<svg width="11" height="14" viewBox="0 0 11 14" fill="none" xmlns="http://www.w3.org/2000/svg">
<path d="M5.5 0C2.73969 0 0.5 2.01594 0.5 4.5C0.5 8.5 5.5 14 5.5 14C5.5 14 10.5 8.5 10.5 4.5C10.5 2.01594 8.26031 0 5.5 0ZM5.5 7C5.10444 7 4.71776 6.8827 4.38886 6.66294C4.05996 6.44318 3.80362 6.13082 3.65224 5.76537C3.50087 5.39991 3.46126 4.99778 3.53843 4.60982C3.6156 4.22186 3.80608 3.86549 4.08579 3.58579C4.36549 3.30608 4.72186 3.1156 5.10982 3.03843C5.49778 2.96126 5.89991 3.00087 6.26537 3.15224C6.63082 3.30362 6.94318 3.55996 7.16294 3.88886C7.3827 4.21776 7.5 4.60444 7.5 5C7.49942 5.53026 7.28852 6.03863 6.91357 6.41357C6.53863 6.78852 6.03026 6.99942 5.5 7Z" fill="#798294"/>
</svg>
