<svg xmlns="http://www.w3.org/2000/svg" viewBox="0 0 392.43 97.96"><defs><style>.cls-1{fill:#e51c24;}.cls-2,.cls-4{fill:#fff;}.cls-3{fill:#203f82;}.cls-4{font-size:31.75px;font-family:Metropolis-BlackItalic, Metropolis;font-weight:800;}.cls-4,.cls-5{font-style:italic;}.cls-5{font-size:27.72px;fill:#999;font-family:Metropolis-LightItalic, Metropolis;font-weight:300;}</style></defs><g id="Layer_2" data-name="Layer 2"><g id="Layer_1-2" data-name="Layer 1"><path class="cls-1" d="M62.52,39c0,17.27-31.26,50.77-31.26,50.77S0,56.25,0,39a31.26,31.26,0,0,1,62.52,0Z"/><polygon class="cls-2" points="31.26 20.47 36.76 31.61 49.05 33.4 40.16 42.07 42.26 54.31 31.26 48.53 20.27 54.31 22.36 42.07 13.47 33.4 25.76 31.61 31.26 20.47"/><path class="cls-3" d="M159,25.41c-4,0-7.3,1.75-8.88,4.5a10.15,10.15,0,0,0-8.57-4.5,7.79,7.79,0,0,0-7.09,4V26.05h-10.2V53.39h10.2V37.52a3.62,3.62,0,0,1,3.87-3.65,3.75,3.75,0,0,1,3.86,4v15.6h9.73V37.52a3.61,3.61,0,0,1,3.86-3.65,3.75,3.75,0,0,1,3.86,4v15.6h9.73V36A10.27,10.27,0,0,0,159,25.41Zm28.77,0c-8.47,0-14.44,5.87-14.44,14.23S179.46,54,188.19,54c4.18,0,8.83-1.74,11.26-4.23l-5.6-5.66a10.09,10.09,0,0,1-6.08,2.28,5.62,5.62,0,0,1-5.4-4.29h19.36C201.73,31.6,196.54,25.41,187.77,25.41Zm-5.24,11.37A5.56,5.56,0,0,1,187.77,33a5,5,0,0,1,4.7,3.75ZM96,17.06,82,53.39H93.59l1.85-4.87h12.64l1.85,4.87h11.58l-14-36.33ZM98.35,41l3.44-8.83L105.17,41Zm160,4.6a5.87,5.87,0,0,1-5.71-5.92,5.8,5.8,0,0,1,5.66-5.77A6.76,6.76,0,0,1,263,36l6.71-5.5a14.59,14.59,0,0,0-11.36-5.08c-8.41,0-15.5,6.51-15.5,14.28S249.89,54,258.2,54a14.9,14.9,0,0,0,11.68-5.23l-6.71-5.4A6.94,6.94,0,0,1,258.3,45.56Zm28.24-20.15a27.44,27.44,0,0,0-12.48,3.23l3.12,6.18A13.28,13.28,0,0,1,283.79,33c3.17,0,5.6,1.59,5.6,4.29v.16a15.49,15.49,0,0,0-5.76-1.22c-6.61,0-11.79,3.75-11.79,9.1,0,5.12,4.65,8.72,10.52,8.72a10.5,10.5,0,0,0,7-2.59v2h9.79V37.26C299.18,29.8,293.47,25.41,286.54,25.41Zm2.85,19.89c-.21,1.58-2.11,2.69-4.54,2.69a3,3,0,0,1-3.34-3,3.25,3.25,0,0,1,3.55-3.17,11.17,11.17,0,0,1,4.33.84Zm-61.12,8.09h10.2V26.05h-10.2ZM216,30.91V26.05H205.8V53.39H216V41.81c0-5,3.17-7.94,8.57-7.94V25.41A9.65,9.65,0,0,0,216,30.91Z"/><polygon class="cls-1" points="332.19 95.51 195.89 95.51 204.55 58.97 340.85 58.97 332.19 95.51"/><text class="cls-4" transform="translate(211.84 88.25)">LOCAL</text><text class="cls-5" transform="translate(343.88 73.83)">.net</text><polygon class="cls-1" points="233.37 0 236.3 5.94 242.86 6.89 238.12 11.52 239.24 18.05 233.37 14.97 227.5 18.05 228.63 11.52 223.88 6.89 230.44 5.94 233.37 0"/></g></g></svg>