<svg width="44" height="44" viewBox="0 0 44 44" fill="none" xmlns="http://www.w3.org/2000/svg">
<rect width="44" height="44" fill="white"/>
<path d="M21.7232 9.61264C21.7288 9.61264 21.7344 9.61264 21.7455 9.61264C21.7511 9.61264 21.7567 9.61264 21.7678 9.61264C24.4113 9.61264 26.5517 7.47216 26.5517 4.8287C26.5517 4.40955 26.4958 4.00157 26.3953 3.61595C25.8644 1.55371 23.9921 0.0279955 21.7622 0.0279955C21.7566 0.0279955 21.7511 0.0279955 21.7399 0.0279955C21.7343 0.0279955 21.7287 0.0279955 21.7175 0.0279955C19.0741 0.0224068 16.9336 2.16847 16.9336 4.80635C16.9336 5.2255 16.9895 5.63348 17.0901 6.0191C17.621 8.08692 19.4932 9.61264 21.7232 9.61264Z" fill="#525252"/>
<path d="M21.7684 9.64058H21.7237C19.5263 9.64058 17.61 8.1542 17.0636 6.02602C16.9592 5.62581 16.9062 5.21538 16.9062 4.80634C16.9062 2.15612 19.0603 4.57764e-05 21.7078 4.57764e-05H21.7628C23.9596 4.57764e-05 25.8759 1.48407 26.4229 3.60896C26.5273 4.00928 26.5802 4.41971 26.5802 4.82869C26.5803 7.48194 24.4217 9.64058 21.7684 9.64058ZM21.7078 0.0559329C19.091 0.0559329 16.9621 2.18697 16.9621 4.80634C16.9621 5.21063 17.0145 5.61626 17.1177 6.01205C17.6578 8.11564 19.5519 9.58469 21.7238 9.58469H21.7685C24.3909 9.58469 26.5244 7.45114 26.5244 4.82869C26.5244 4.42446 26.4721 4.01878 26.3689 3.62299C25.8281 1.52275 23.9341 0.0559329 21.7628 0.0559329H21.7078Z" fill="#525252"/>
<path d="M26.7806 11.619H25.5846L24.3886 17.5877H22.9746L22.6058 13.5806C22.7175 12.9715 22.9803 12.4014 23.2597 11.8034C23.2597 11.8034 23.3099 11.6972 23.3378 11.6413C23.3322 11.6413 23.3267 11.6413 23.3211 11.6413C23.3267 11.6358 23.3267 11.6246 23.3322 11.619C21.6556 11.619 21.7898 11.619 20.1467 11.619C20.1523 11.6246 20.1523 11.6302 20.1578 11.6413H20.1522C20.1801 11.6972 20.2304 11.8034 20.2304 11.8034C20.4763 12.3232 20.7055 12.8206 20.834 13.3459C20.8508 13.4186 20.8676 13.4912 20.8787 13.5639L20.5099 17.5933H19.0959L17.8999 11.6246H16.7041C14.8878 11.6246 13.418 13.0944 13.418 14.9107V24.4842C13.418 26.3005 14.8878 27.7704 16.7041 27.7704H17.1233V41.6807C17.1233 42.9605 18.1628 44 19.4426 44C20.633 44 21.6166 43.1002 21.7451 41.9378C21.8736 43.0946 22.8573 44 24.0477 44C25.3275 44 26.367 42.9605 26.367 41.6807V27.7592H26.7862C28.6025 27.7592 30.0723 26.2893 30.0723 24.473V14.8996C30.0612 13.0888 28.5913 11.619 26.7806 11.619Z" fill="#525252"/>
<path d="M34.1372 9.61264C34.1428 9.61264 34.1484 9.61264 34.1596 9.61264C34.1652 9.61264 34.1707 9.61264 34.1818 9.61264C36.8254 9.61264 38.9659 7.47217 38.9659 4.82871C38.9659 4.40955 38.91 4.00158 38.8094 3.61595C38.2784 1.55372 36.4062 0.0279999 34.1763 0.0279999C34.1707 0.0279999 34.1652 0.0279999 34.1539 0.0279999C34.1484 0.0279999 34.1428 0.0279999 34.1317 0.0279999C31.4882 0.0279999 29.3477 2.16848 29.3477 4.81194C29.3477 5.23109 29.4035 5.63907 29.5042 6.02469C30.0351 8.08693 31.9073 9.61264 34.1372 9.61264Z" fill="#525252"/>
<path d="M34.1825 9.64059H34.1378C31.9411 9.64059 30.0248 8.15656 29.4777 6.03162C29.3733 5.63147 29.3203 5.22103 29.3203 4.81188C29.3203 2.15858 31.479 0 34.1323 0H34.177C36.3737 0 38.29 1.48403 38.8371 3.60891C38.9415 4.00906 38.9945 4.4195 38.9945 4.82865C38.9944 7.48195 36.8358 9.64059 34.1825 9.64059ZM34.1323 0.055943C31.5097 0.055943 29.3761 2.18943 29.3761 4.81194C29.3761 5.21634 29.4285 5.62197 29.5317 6.01765C30.0725 8.11794 31.9665 9.58476 34.1378 9.58476H34.1824C36.8049 9.58476 38.9385 7.45121 38.9385 4.82876C38.9385 4.42436 38.8862 4.01873 38.783 3.62305C38.2422 1.52276 36.3482 0.055943 34.1769 0.055943H34.1323Z" fill="#525252"/>
<path d="M39.1927 11.619H37.9967L36.8007 17.5877H35.3868L35.0178 13.5806C35.1296 12.9715 35.3923 12.4014 35.6717 11.8034C35.6717 11.8034 35.722 11.6972 35.75 11.6413C35.7443 11.6413 35.7387 11.6413 35.7332 11.6413C35.7387 11.6358 35.7387 11.6246 35.7443 11.619C34.0677 11.619 34.2018 11.619 32.5587 11.619C32.5644 11.6246 32.5644 11.6302 32.5699 11.6413H32.5643C32.5923 11.6972 32.6425 11.8034 32.6425 11.8034C32.8884 12.3232 33.1175 12.8206 33.2461 13.3459C33.2629 13.4186 33.2796 13.4912 33.2909 13.5639L32.9219 17.5933H31.6365V24.4842C31.6365 26.1385 30.8039 27.6027 29.5352 28.4745V41.6807C29.5352 42.9605 30.5747 44 31.8545 44C33.0449 44 34.0285 43.1002 34.1571 41.9378C34.2856 43.0946 35.2692 44 36.4596 44C37.7394 44 38.7789 42.9605 38.7789 41.6807V27.7592H39.198C41.0144 27.7592 42.4843 26.2893 42.4843 24.473V14.8996C42.4732 13.0888 41.0034 11.619 39.1927 11.619Z" fill="#525252"/>
<path d="M9.30906 9.61263C9.31465 9.61263 9.32024 9.61263 9.33141 9.61263C9.337 9.61263 9.34259 9.61263 9.35377 9.61263C11.9972 9.61263 14.1377 7.47215 14.1377 4.82869C14.1377 4.40954 14.0818 4.00156 13.9812 3.61594C13.4503 1.5537 11.5781 0.0279846 9.34818 0.0279846C9.34259 0.0279846 9.337 0.0279846 9.32582 0.0279846C9.32024 0.0279846 9.31465 0.0279846 9.30347 0.0279846C6.66001 0.0279846 4.51953 2.16846 4.51953 4.81192C4.51953 5.23108 4.57542 5.63905 4.67602 6.02467C5.20694 8.08691 7.07916 9.61263 9.30906 9.61263Z" fill="#525252"/>
<path d="M9.35437 9.64058H9.30966C7.1129 9.64058 5.19664 8.15655 4.64957 6.03161C4.54511 5.6314 4.49219 5.22102 4.49219 4.81193C4.49219 2.15863 6.65077 4.57764e-05 9.30407 4.57764e-05H9.34878C11.5455 4.57764e-05 13.4618 1.48407 14.0089 3.60896C14.1133 4.00922 14.1663 4.4196 14.1663 4.82869C14.1663 7.48194 12.0076 9.64058 9.35437 9.64058ZM9.30407 0.0559329C6.68157 0.0559329 4.54807 2.18942 4.54807 4.81193C4.54807 5.21627 4.60044 5.62196 4.70366 6.01764C5.24437 8.11788 7.13844 9.58469 9.30966 9.58469H9.35437C11.9768 9.58469 14.1104 7.45114 14.1104 4.82869C14.1104 4.42441 14.058 4.01872 13.9548 3.62299C13.4141 1.52275 11.52 0.0559329 9.34872 0.0559329H9.30407Z" fill="#525252"/>
<path d="M11.8477 24.4786V17.5877H10.5623L10.1934 13.5806C10.3052 12.9715 10.5679 12.4014 10.8473 11.8034C10.8473 11.8034 10.8976 11.6972 10.9256 11.6413C10.92 11.6413 10.9144 11.6413 10.9088 11.6413C10.9144 11.6358 10.9144 11.6246 10.92 11.619C9.24335 11.619 9.37748 11.619 7.7344 11.619C7.73999 11.6246 7.73999 11.6302 7.74558 11.6413H7.73999C7.76793 11.6972 7.81823 11.8034 7.81823 11.8034C8.06413 12.3232 8.29327 12.8206 8.42181 13.3459C8.43858 13.4186 8.45534 13.4912 8.46652 13.5639L8.09767 17.5933H6.68372L5.48774 11.6246H4.28616C2.46983 11.6246 1 13.0944 1 14.9107V24.4842C1 26.3005 2.46983 27.7704 4.28616 27.7704H4.70532V41.6807C4.70532 42.9605 5.74482 44 7.02463 44C8.21503 44 9.19864 43.1002 9.32718 41.9378C9.45572 43.0946 10.4393 44 11.6297 44C12.9095 44 13.949 42.9605 13.949 41.6807V28.469C12.6804 27.5915 11.8477 26.1329 11.8477 24.4786Z" fill="#525252"/>
</svg>
