<svg width="44" height="44" viewBox="0 0 44 44" fill="none" xmlns="http://www.w3.org/2000/svg">
<g clip-path="url(#clip0_3391_14187)">
<rect width="44" height="44" fill="white"/>
<path d="M28.534 8.57086C28.3861 8.0287 28.0303 7.56703 27.544 7.2864C27.0578 7.00578 26.4805 6.92894 25.938 7.07261L18.458 9.07762L8.69 0L5.984 0.72709L11.836 10.8403L4.818 12.7131L2.046 10.5538L0 11.1047L3.652 17.4502L27.016 11.1928C28.16 10.8623 28.82 9.69454 28.534 8.57086ZM41.8 17.5603L39.6 21.967H28.6L26.4 17.5603L28.6 15.357H33V10.9504H35.2V15.357H39.6L41.8 17.5603ZM44 39.5934V44H0V39.5934H28.6V24.1703H39.6V39.5934H44Z" fill="#525252"/>
</g>
<defs>
<clipPath id="clip0_3391_14187">
<rect width="44" height="44" fill="white"/>
</clipPath>
</defs>
</svg>
