<svg width="44" height="44" viewBox="0 0 44 44" fill="none" xmlns="http://www.w3.org/2000/svg">
<path d="M17.3924 9.94023L20.0772 4.52827L12.0673 9.94023H17.3924ZM30.2124 15.1158L31.8262 27.2655H32.3413L30.7146 15.0143C30.5503 15.0568 30.3822 15.09 30.2124 15.1158ZM30.5355 27.2655L28.9235 15.1158C27.5461 14.9238 26.3496 14.1151 25.6442 12.9555C25.3507 13.4393 24.9703 13.8639 24.5234 14.2092V35.5247C27.9135 35.774 30.9491 36.472 33.2793 37.469C35.8551 38.5714 37.6074 40.0652 38.1004 41.7676C38.2204 42.1793 37.9102 42.5856 37.4874 42.5856V42.5874H5.96656C5.61389 42.5874 5.32584 42.2994 5.32584 41.9467C5.32584 41.8618 5.34246 41.7805 5.37201 41.7067C5.88901 40.0301 7.63022 38.5584 10.1765 37.469C12.5067 36.472 15.5423 35.774 18.9324 35.5247V14.2092C18.4855 13.8639 18.1033 13.4393 17.8097 12.9555C17.2041 13.9526 16.2329 14.693 15.0917 15.0032L13.4632 27.2655H14.259C14.5618 27.2655 14.8148 27.476 14.8813 27.7567C14.9348 27.921 14.9736 28.0872 15.0031 28.2589C15.3539 30.4193 13.6884 32.3636 11.517 32.3636C9.34373 32.3636 7.67823 30.4193 8.0309 28.2589C8.06044 28.0687 8.10661 27.8841 8.16754 27.7031C8.25802 27.4354 8.50729 27.2674 8.77318 27.2674V27.2655H10.3685L12.0285 14.765C11.1754 14.3846 10.4571 13.7495 9.97522 12.9555C9.34188 13.9969 8.30972 14.7595 7.10398 15.0401L5.48095 27.2655H6.27492C6.57774 27.2655 6.83255 27.476 6.89902 27.7567C6.95072 27.921 6.99135 28.0872 7.01904 28.2589C7.37172 30.4193 5.70621 32.3636 3.53294 32.3636C1.3615 32.3636 -0.303999 30.4193 0.0468275 28.2589C0.0782172 28.0687 0.124379 27.8841 0.185312 27.7031C0.273941 27.4354 0.523213 27.2674 0.790949 27.2674V27.2655H2.38629L4.05364 14.7004C2.50446 13.947 1.47598 12.3665 1.47598 10.5809C1.47598 10.3003 1.65694 10.0621 1.90805 9.97531L21.4786 2.05033C21.6467 1.98201 21.811 1.98385 21.979 2.05217L41.5459 9.97531C41.797 10.0621 41.978 10.3003 41.978 10.5809C41.978 12.1652 41.1711 13.5833 39.9063 14.4123L41.6124 27.2655H43.2077V27.2674C43.4755 27.2674 43.7247 27.4354 43.8152 27.7031C44.2454 28.9883 43.9094 30.3842 42.964 31.3277C41.5847 32.7089 39.3468 32.7089 37.9675 31.3277C37.1772 30.5393 36.7913 29.413 36.9796 28.2589C37.0073 28.0872 37.048 27.921 37.0997 27.7567C37.168 27.476 37.4209 27.2655 37.7238 27.2655H38.5196L36.9095 15.1343C35.4692 14.9829 34.2118 14.1575 33.4806 12.9555C33.0965 13.5851 32.5666 14.1169 31.9351 14.4991L33.6302 27.2655H35.2255V27.2674C35.4932 27.2674 35.7425 27.4354 35.8311 27.7031C36.2632 28.9883 35.9272 30.3842 34.9818 31.3277C33.6025 32.7089 31.3646 32.7089 29.9853 31.3277C29.195 30.5393 28.8091 29.413 28.9974 28.2589C29.0251 28.0872 29.0657 27.921 29.1174 27.7567C29.1839 27.476 29.4387 27.2655 29.7415 27.2655H30.5355ZM12.1743 27.2655L13.7808 15.1602C13.609 15.1546 13.4373 15.1417 13.2711 15.1195L11.6592 27.2655H12.1743ZM38.1928 15.0918L39.8084 27.2655H40.3236L38.6931 14.9755C38.5288 15.0235 38.3626 15.0623 38.1928 15.0918ZM4.19212 27.2655L5.79854 15.1546C5.62682 15.1435 5.45694 15.1251 5.29076 15.0974L3.67511 27.2655H4.19212ZM30.2475 28.547C30.0868 29.9023 31.1319 31.0821 32.4835 31.0821C33.8351 31.0821 34.8802 29.9023 34.7196 28.547H30.2475ZM13.7678 28.8295C13.7678 28.7298 13.7623 28.6356 13.7512 28.547H9.28095C9.11846 29.9023 10.1636 31.0821 11.517 31.0821C12.7597 31.0821 13.7678 30.074 13.7678 28.8295ZM38.2297 28.547C38.069 29.9023 39.1141 31.0821 40.4657 31.0821C41.8173 31.0821 42.8624 29.9023 42.7018 28.547H38.2297ZM5.78561 28.8295C5.78561 28.7298 5.78007 28.6356 5.76899 28.547H1.29688C1.13624 29.9023 2.18133 31.0821 3.53294 31.0821C4.77745 31.0821 5.78561 30.074 5.78561 28.8295ZM18.9324 36.808C15.7232 37.0517 12.8631 37.7109 10.6769 38.6471C8.92274 39.3967 7.62653 40.3089 6.96919 41.3041H36.4866C35.8293 40.3089 34.5312 39.3967 32.7771 38.6471C30.5909 37.7109 27.7326 37.0517 24.5234 36.808V39.755C24.5234 40.1095 24.2354 40.3957 23.8809 40.3957H19.5731C19.2186 40.3957 18.9324 40.1095 18.9324 39.755V36.808ZM20.2138 14.9053V39.1142H23.2402V14.9053C22.2652 15.2469 21.1906 15.2469 20.2138 14.9053ZM38.0469 9.94023L27.1362 5.52166L33.6745 9.94023H38.0469ZM31.3867 9.94023L23.3786 4.52827L26.0615 9.94023H31.3867ZM24.6342 9.94023L21.7279 4.07958L18.8197 9.94023H24.6342ZM9.77949 9.94023L16.3196 5.52166L5.40709 9.94023H9.77949ZM39.7309 12.913C40.1832 12.4606 40.5045 11.8753 40.6338 11.2217H34.1619C34.4629 12.7505 35.809 13.8787 37.3988 13.8787C38.3091 13.8787 39.1326 13.5094 39.7309 12.913ZM31.8945 12.913C32.3487 12.4588 32.67 11.8753 32.7993 11.2217H26.3274C26.6284 12.7505 27.9745 13.8787 29.5624 13.8787C30.4727 13.8787 31.2981 13.5094 31.8945 12.913ZM24.06 12.913C24.5124 12.4606 24.8336 11.8753 24.9629 11.2217H18.4911C18.792 12.7505 20.1381 13.8787 21.7279 13.8787C22.6382 13.8787 23.4636 13.5094 24.06 12.913ZM16.2236 12.913C16.6779 12.4588 16.9991 11.8753 17.1284 11.2217H10.6566C10.9575 12.7505 12.3036 13.8787 13.8916 13.8787C14.8037 13.8787 15.6272 13.5094 16.2236 12.913ZM8.38911 12.913C8.8415 12.4606 9.16462 11.8753 9.29203 11.2217H2.82205C3.12302 12.7505 4.46724 13.8787 6.05704 13.8787C6.96734 13.8787 7.79271 13.5094 8.38911 12.913Z" fill="#525252"/>
</svg>
