<svg width="44" height="44" viewBox="0 0 44 44" fill="none" xmlns="http://www.w3.org/2000/svg">
<rect width="44" height="44" fill="white"/>
<path d="M33.5567 14.1069V0H11V14.1069H33.5567ZM13.5143 6.04327C13.5143 5.55837 13.9004 5.17224 14.3853 5.17224C14.8702 5.17224 15.2563 5.55837 15.2563 6.04327V11.1796C15.2563 11.6645 14.8702 12.0506 14.3853 12.0506C13.9004 12.0506 13.5143 11.6645 13.5143 11.1796V6.04327Z" fill="#525252"/>
<path d="M11 15.858V42.222H13.2V44H17.4563V42.222H27.1273V44H31.3478V42.222H33.5478V15.858H11ZM15.2922 23.7151C15.2922 24.2 14.9061 24.5861 14.4212 24.5861C13.9363 24.5861 13.5502 24.2 13.5502 23.7151V18.5788C13.5502 18.0939 13.9363 17.7078 14.4212 17.7078C14.9061 17.7078 15.2922 18.0939 15.2922 18.5788V23.7151Z" fill="#525252"/>
</svg>
