<svg width="44" height="44" viewBox="0 0 44 44" fill="none" xmlns="http://www.w3.org/2000/svg">
<g clip-path="url(#clip0_3391_14187)">
<rect width="44" height="44" fill="white"/>
<path d="M0.260292 0L0 1.50318L35.356 7.41113L35.6085 5.90699L0.260292 0ZM0.206874 5.51929L0.053418 7.03581L35.4045 10.4689L35.5599 8.94479L0.206874 5.51929V5.51929ZM19.8842 10.488C19.7093 11.231 19.1363 12.3455 18.4953 13.441C17.7183 14.7556 16.8345 15.9939 16.8345 17.3276C16.8345 19.1089 17.7863 20.2901 18.5827 21.1665C19.3791 22.0524 19.9424 22.6239 19.9424 23.4241C19.9424 23.9671 19.6219 24.8339 19.1849 25.7103H20.9331C21.2633 24.9578 21.4964 24.1862 21.4964 23.4241C21.4964 21.9476 20.5058 20.995 19.7482 20.1567C18.9906 19.3185 18.3885 18.5945 18.3885 17.3276C18.3885 16.8608 19.0586 15.5367 19.8356 14.2031C20.5155 13.0504 21.273 11.8597 21.4576 10.6404L19.8842 10.488ZM23.7691 10.869C23.604 11.5835 23.0407 12.6027 22.39 13.6125C21.613 14.8318 20.7194 15.9939 20.7194 17.3276C20.7194 19.1089 21.6712 20.2901 22.4677 21.1665C23.2641 22.0524 23.8274 22.6239 23.8274 23.4241C23.8274 23.9671 23.5069 24.8339 23.0698 25.7103H24.818C25.1483 24.9578 25.3814 24.1862 25.3814 23.4241C25.3814 21.9476 24.3907 20.995 23.6331 20.1567C22.8756 19.3185 22.2734 18.5945 22.2734 17.3276C22.2734 16.8608 22.9338 15.651 23.7108 14.4222C24.3907 13.3457 25.1483 12.2217 25.3425 11.0119L23.7691 10.869V10.869ZM27.6541 11.2405C27.4889 11.9264 26.9353 12.8504 26.2943 13.7839C25.5173 14.908 24.6044 15.9939 24.6044 17.3276C24.6044 19.1089 25.5562 20.2901 26.3526 21.1665C27.149 22.0524 27.7123 22.6239 27.7123 23.4241C27.7123 23.9671 27.3918 24.8339 26.9548 25.7103H28.703C29.0332 24.9578 29.2663 24.1862 29.2663 23.4241C29.2663 21.9476 28.2757 20.995 27.5181 20.1567C26.7605 19.3185 26.1584 18.5945 26.1584 17.3276C26.1584 16.8608 26.7994 15.7653 27.5764 14.6317C28.2562 13.641 29.0332 12.5837 29.2178 11.3929L27.6541 11.2405ZM2.1037 27.2345C2.26687 31.283 3.71596 34.5503 6.82198 36.9223C10.1232 39.4371 15.3873 40.9517 23.0504 40.9517C30.7135 40.9517 35.9776 39.4371 39.2798 36.9223C42.3877 34.5503 43.8349 31.283 44 27.2345H2.1037ZM16.8345 42.4759V44H29.2663V42.4759H16.8345Z" fill="#525252"/>
</g>
<defs>
<clipPath id="clip0_3391_14187">
<rect width="44" height="44" fill="white"/>
</clipPath>
</defs>
</svg>
