<svg width="44" height="44" viewBox="0 0 44 44" fill="none" xmlns="http://www.w3.org/2000/svg">
<g clip-path="url(#clip0_3404_23381)">
<path d="M21.9999 41.0678C22.4049 41.0678 22.7333 40.7396 22.7333 40.3347C22.7333 39.9298 22.4049 39.6016 21.9999 39.6016C21.5949 39.6016 21.2666 39.9298 21.2666 40.3347C21.2666 40.7396 21.5949 41.0678 21.9999 41.0678Z" fill="#525252"/>
<path d="M29.7953 31.8153C33.1432 30.0709 35.8089 27.2541 37.3657 23.8157C38.9226 20.3773 39.2805 16.5162 38.3823 12.8503C37.4841 9.18444 35.3817 5.92581 32.4115 3.59602C29.4414 1.26623 25.7753 0 22 0C18.2247 0 14.5586 1.26623 11.5885 3.59602C8.61831 5.92581 6.51587 9.18444 5.61766 12.8503C4.71945 16.5162 5.07742 20.3773 6.63426 23.8157C8.1911 27.2541 10.8568 30.0709 14.2047 31.8153C4.774 32.5191 0 34.5206 0 37.7683C0 42.9223 11.9607 44 22 44C32.0393 44 44 42.9223 44 37.7683C44 34.5206 39.226 32.5191 29.7953 31.8153V31.8153ZM9.53333 16.874C9.53333 14.409 10.2645 11.9993 11.6343 9.94973C13.0042 7.90014 14.9512 6.30269 17.2292 5.35937C19.5072 4.41605 22.0138 4.16924 24.4321 4.65014C26.8504 5.13104 29.0718 6.31805 30.8153 8.06108C32.5588 9.8041 33.7461 12.0249 34.2271 14.4425C34.7082 16.8601 34.4613 19.3661 33.5177 21.6435C32.5741 23.9208 30.9762 25.8673 28.9261 27.2368C26.876 28.6063 24.4657 29.3373 22 29.3373C18.6951 29.3326 15.5268 28.018 13.1899 25.6817C10.8529 23.3454 9.53799 20.178 9.53333 16.874V16.874ZM22 42.5337C9.33533 42.5337 1.46667 40.7082 1.46667 37.7683C1.46667 35.3637 6.72467 33.6994 15.8913 33.1716L17.314 34.6012C12.7087 34.8578 6.6 35.6129 6.6 37.7683C6.6 40.2097 14.388 40.8475 19.03 41.0161H19.052C19.1483 41.0181 19.244 41.001 19.3338 40.9659C19.4235 40.9309 19.5054 40.8785 19.5748 40.8118C19.6443 40.7451 19.6999 40.6653 19.7386 40.5771C19.7772 40.4889 19.7981 40.3939 19.8 40.2977C19.8019 40.2014 19.7849 40.1057 19.7498 40.016C19.7147 39.9263 19.6623 39.8444 19.5956 39.775C19.5288 39.7055 19.4491 39.6499 19.3609 39.6113C19.2726 39.5727 19.1776 39.5518 19.0813 39.5499C12.0633 39.3006 8.8 38.2889 8.14733 37.7683C8.79267 37.2551 11.9533 36.2727 18.7147 36.0015L20.5553 37.8417C20.9501 38.1896 21.4591 38.3801 21.9853 38.3768C22.5362 38.3777 23.0684 38.1769 23.4813 37.8123L25.2853 36.0015C32.0467 36.2727 35.2073 37.2551 35.8527 37.7683C35.2 38.2889 31.944 39.3006 24.9187 39.5499C24.7242 39.5538 24.5392 39.6347 24.4044 39.775C24.2696 39.9152 24.1961 40.1032 24.2 40.2977C24.2039 40.4921 24.2849 40.677 24.4252 40.8118C24.5654 40.9465 24.7535 41.02 24.948 41.0161H24.97C29.612 40.8475 37.4 40.2097 37.4 37.7683C37.4 35.6129 31.2913 34.8578 26.686 34.6012L28.1087 33.1716C37.2753 33.6994 42.5333 35.3637 42.5333 37.7683C42.5333 40.7082 34.6647 42.5337 22 42.5337Z" fill="#525252"/>
<path d="M25.3148 17.6073C26.3415 17.6879 28.8421 17.7099 30.2281 16.3243C30.9406 15.6134 31.444 14.7205 31.6832 13.743C31.9225 12.7656 31.8885 11.7412 31.5848 10.7818C31.5462 10.6623 31.4776 10.5547 31.3858 10.4692C31.2939 10.3836 31.1817 10.3229 31.0598 10.2928C30.9379 10.2627 30.8104 10.2642 30.6892 10.2972C30.568 10.3301 30.4573 10.3935 30.3675 10.4812L28.4315 12.424L26.7008 12.0721L26.3561 10.3492L28.2921 8.41373C28.3797 8.32318 28.4428 8.21191 28.4756 8.09035C28.5084 7.96878 28.5099 7.84088 28.4799 7.71859C28.4499 7.5963 28.3893 7.48362 28.3039 7.39107C28.2185 7.29853 28.111 7.22914 27.9915 7.1894C27.0309 6.88932 26.0065 6.85776 25.0292 7.09813C24.052 7.3385 23.1591 7.84163 22.4475 8.55303C21.0615 9.93866 21.0908 12.4313 21.1641 13.4577L17.8641 16.7642C16.8348 17.7933 15.6462 18.6499 14.3441 19.3008C13.9671 19.6282 13.6615 20.0296 13.4463 20.4801C13.2312 20.9307 13.1111 21.4207 13.0936 21.9196C13.076 22.4186 13.1614 22.9158 13.3443 23.3803C13.5273 23.8448 13.804 24.2667 14.1571 24.6198C14.5102 24.9728 14.9322 25.2494 15.3969 25.4323C15.8615 25.6152 16.3589 25.7006 16.858 25.683C17.357 25.6655 17.8472 25.5454 18.2978 25.3303C18.7485 25.1152 19.15 24.8097 19.4775 24.4328C20.1278 23.1284 20.9846 21.9376 22.0148 20.9064L25.3148 17.6073ZM17.2628 22.5486C17.1254 22.6851 16.9396 22.7618 16.7458 22.7618C16.5521 22.7618 16.3662 22.6851 16.2288 22.5486C16.0914 22.4102 16.0143 22.2231 16.0143 22.0281C16.0143 21.8331 16.0914 21.646 16.2288 21.5075C16.3662 21.371 16.5521 21.2944 16.7458 21.2944C16.9396 21.2944 17.1254 21.371 17.2628 21.5075C17.4002 21.646 17.4773 21.8331 17.4773 22.0281C17.4773 22.2231 17.4002 22.4102 17.2628 22.5486V22.5486Z" fill="#525252"/>
</g>
<defs>
<clipPath id="clip0_3404_23381">
<rect width="44" height="44" fill="white"/>
</clipPath>
</defs>
</svg>
