<svg width="44" height="44" viewBox="0 0 44 44" fill="none" xmlns="http://www.w3.org/2000/svg">
<rect width="44" height="44" fill="white"/>
<path d="M27.76 22.5185C30.3405 21.6089 32.5864 19.9419 34.2043 17.7354C35.8222 15.5289 36.7367 12.8856 36.8283 10.1511H6.37507C6.46599 12.8524 7.36162 15.4651 8.94715 17.6541C10.5327 19.843 12.7358 21.5086 15.2742 22.4373L12.8819 27.2184C11.4045 26.962 9.88543 27.1039 8.48105 27.6295C7.07667 28.1551 5.8377 29.0454 4.89163 30.2087C3.94556 31.3721 3.32656 32.7666 3.09832 34.2486C2.87009 35.7306 3.04087 37.2467 3.59309 38.6408C4.14531 40.035 5.05903 41.2568 6.24021 42.1805C7.42139 43.1043 8.82738 43.6966 10.3135 43.8966C11.7996 44.0966 13.3121 43.897 14.6955 43.3183C16.0789 42.7396 17.283 41.8028 18.1841 40.6043H32.4735L33.607 43.0304C33.7991 43.4365 34.1445 43.7496 34.5675 43.901C34.9904 44.0523 35.4562 44.0295 35.8622 43.8374C36.2683 43.6454 36.5815 43.2999 36.7328 42.8769C36.8842 42.454 36.8613 41.9883 36.6692 41.5822L27.76 22.5185ZM11.4506 39.7584C10.3288 39.7584 9.25302 39.3127 8.45981 38.5195C7.66661 37.7263 7.22099 36.6505 7.22099 35.5288C7.22099 34.407 7.66661 33.3312 8.45981 32.538C9.25302 31.7448 10.3288 31.2991 11.4506 31.2991C12.5724 31.2991 13.6482 31.7448 14.4414 32.538C15.2346 33.3312 15.6802 34.407 15.6802 35.5288C15.6802 36.6505 15.2346 37.7263 14.4414 38.5195C13.6482 39.3127 12.5724 39.7584 11.4506 39.7584V39.7584ZM19.7406 37.2206C20.0823 35.5559 19.9125 33.8269 19.2537 32.2604C18.5949 30.694 17.4778 29.3634 16.049 28.4433L18.5564 23.4253C20.5087 23.7778 22.5085 23.7778 24.4609 23.4253L30.8899 37.1969L19.7406 37.2206ZM12.2965 0C12.0722 0 11.857 0.0891239 11.6984 0.247765C11.5397 0.406406 11.4506 0.62157 11.4506 0.845923C11.4506 2.53777 9.75876 2.53777 9.75876 2.53777C6.37507 2.53777 6.37507 5.92146 6.37507 5.92146C6.37507 6.14581 6.46419 6.36098 6.62283 6.51962C6.78147 6.67826 6.99664 6.76738 7.22099 6.76738C7.44534 6.76738 7.66051 6.67826 7.81915 6.51962C7.97779 6.36098 8.06691 6.14581 8.06691 5.92146C8.06691 4.22961 9.75876 4.22961 9.75876 4.22961C13.1424 4.22961 13.1424 0.845923 13.1424 0.845923C13.1424 0.62157 13.0533 0.406406 12.8947 0.247765C12.736 0.0891239 12.5209 0 12.2965 0V0ZM19.0639 0C18.8396 0 18.6244 0.0891239 18.4657 0.247765C18.3071 0.406406 18.218 0.62157 18.218 0.845923C18.218 2.53777 16.5261 2.53777 16.5261 2.53777C13.1424 2.53777 13.1424 5.92146 13.1424 5.92146C13.1424 6.14581 13.2316 6.36098 13.3902 6.51962C13.5489 6.67826 13.764 6.76738 13.9884 6.76738C14.2127 6.76738 14.4279 6.67826 14.5865 6.51962C14.7452 6.36098 14.8343 6.14581 14.8343 5.92146C14.8343 4.22961 16.5261 4.22961 16.5261 4.22961C19.9098 4.22961 19.9098 0.845923 19.9098 0.845923C19.9098 0.62157 19.8207 0.406406 19.6621 0.247765C19.5034 0.0891239 19.2883 0 19.0639 0V0ZM25.8313 0C25.6069 0 25.3918 0.0891239 25.2331 0.247765C25.0745 0.406406 24.9854 0.62157 24.9854 0.845923C24.9854 2.53777 23.2935 2.53777 23.2935 2.53777C19.9098 2.53777 19.9098 5.92146 19.9098 5.92146C19.9098 6.14581 19.999 6.36098 20.1576 6.51962C20.3162 6.67826 20.5314 6.76738 20.7558 6.76738C20.9801 6.76738 21.1953 6.67826 21.3539 6.51962C21.5126 6.36098 21.6017 6.14581 21.6017 5.92146C21.6017 4.22961 23.2935 4.22961 23.2935 4.22961C26.6772 4.22961 26.6772 0.845923 26.6772 0.845923C26.6772 0.62157 26.5881 0.406406 26.4294 0.247765C26.2708 0.0891239 26.0556 0 25.8313 0V0ZM32.5987 0C32.3743 0 32.1592 0.0891239 32.0005 0.247765C31.8419 0.406406 31.7527 0.62157 31.7527 0.845923C31.7527 2.53777 30.0609 2.53777 30.0609 2.53777C26.6772 2.53777 26.6772 5.92146 26.6772 5.92146C26.6772 6.14581 26.7663 6.36098 26.925 6.51962C27.0836 6.67826 27.2988 6.76738 27.5231 6.76738C27.7475 6.76738 27.9626 6.67826 28.1213 6.51962C28.2799 6.36098 28.3691 6.14581 28.3691 5.92146C28.3691 4.22961 30.0609 4.22961 30.0609 4.22961C33.4446 4.22961 33.4446 0.845923 33.4446 0.845923C33.4446 0.62157 33.3555 0.406406 33.1968 0.247765C33.0382 0.0891239 32.823 0 32.5987 0V0ZM39.366 0C39.1417 0 38.9265 0.0891239 38.7679 0.247765C38.6092 0.406406 38.5201 0.62157 38.5201 0.845923C38.5201 2.53777 36.8283 2.53777 36.8283 2.53777C33.4446 2.53777 33.4446 5.92146 33.4446 5.92146C33.4446 6.14581 33.5337 6.36098 33.6924 6.51962C33.851 6.67826 34.0662 6.76738 34.2905 6.76738C34.5149 6.76738 34.73 6.67826 34.8887 6.51962C35.0473 6.36098 35.1364 6.14581 35.1364 5.92146C35.1364 4.22961 36.8283 4.22961 36.8283 4.22961C40.212 4.22961 40.212 0.845923 40.212 0.845923C40.212 0.62157 40.1228 0.406406 39.9642 0.247765C39.8056 0.0891239 39.5904 0 39.366 0V0Z" fill="#525252"/>
</svg>
