<svg width="44" height="44" viewBox="0 0 44 44" fill="none" xmlns="http://www.w3.org/2000/svg">
<path d="M9.6065 0C9.1885 0 8.7595 0.02475 8.31675 0.086625C8.13685 0.114551 7.97438 0.210047 7.86247 0.35364C7.75056 0.497232 7.69764 0.678106 7.7145 0.859375L9.51987 13.75H4.0625C3.5675 13.75 3.08488 13.915 2.6875 14.2656C2.2915 14.6162 2 15.18 2 15.8125C2 16.445 2.2915 16.9647 2.6875 17.3167C3.08488 17.6674 3.5675 17.875 4.0625 17.875H10.0781C10.1689 18.535 10.2747 19.2101 10.3792 19.9801L10.9375 24.0625V29.5625C10.9375 29.9227 11.2648 30.25 11.625 30.25H13.6875V35.0625C13.6875 35.4227 14.0148 35.75 14.375 35.75H19.1875V39.875H16.4375C14.353 39.875 13.1829 40.4346 12.6562 41.2926C12.131 42.152 11.625 43.1324 11.625 43.3125C11.625 43.6727 11.9523 44 12.3125 44H28.8125C28.9927 43.9932 29.1636 43.9186 29.2911 43.7911C29.4186 43.6636 29.4932 43.4927 29.5 43.3125C29.5 43.087 28.9239 42.1644 28.3835 41.3353C27.8417 40.5075 26.7032 39.9259 24.6875 39.875H21.9375V35.75H26.75C26.9302 35.7432 27.1011 35.6686 27.2286 35.5411C27.3561 35.4136 27.4307 35.2427 27.4375 35.0625V30.25H28.2969L31.6065 42.1094C31.6436 42.2533 31.7263 42.3814 31.8424 42.4744C31.9584 42.5673 32.1014 42.6202 32.25 42.625H40.5C40.7681 42.6223 41.033 42.5668 41.2796 42.4617C41.5263 42.3566 41.7497 42.2039 41.9373 42.0123C42.1249 41.8208 42.2729 41.5941 42.3729 41.3454C42.4728 41.0966 42.5228 40.8306 42.5199 40.5625C42.5199 39.8695 42.2009 39.2631 41.7897 38.929C41.4229 38.6392 40.966 38.4874 40.4986 38.5H34.8268L32.4645 30.25H35.6861C35.8663 30.2432 36.0372 30.1686 36.1647 30.0411C36.2922 29.9136 36.3668 29.7427 36.3736 29.5625C36.3736 29.5625 36.3929 28.0431 35.7301 26.5114C35.1251 25.1185 33.8148 23.6706 31.5611 23.4176V19.25C31.5611 17.8846 31.1143 16.511 30.1861 15.4688C29.258 14.4265 27.8404 13.75 26.0611 13.75H15.8353C16.8995 12.6459 17.4976 11.2613 17.2955 9.79688L16.608 4.598C16.4155 3.19 15.5492 2.0405 14.331 1.24575C13.1141 0.451 11.5232 0.01375 9.821 0H9.60512H9.6065ZM4.06112 15.125H9.733L9.81962 15.8551V15.8978C9.81962 15.9115 9.8155 15.9115 9.81962 15.9417C9.82184 15.9559 9.82184 15.9703 9.81962 15.9844C9.82787 16.0408 9.8485 16.1054 9.86225 16.1989L9.90488 16.5H4.06112C3.9085 16.5 3.71738 16.3982 3.58813 16.2855C3.51523 16.2313 3.45731 16.1594 3.41979 16.0767C3.38227 15.994 3.36639 15.9031 3.37362 15.8125C3.37362 15.554 3.46025 15.411 3.58813 15.2969C3.72169 15.1866 3.88928 15.1258 4.0625 15.125H4.06112ZM13.9872 15.125H26.0611C27.5021 15.125 28.4811 15.6145 29.1549 16.3708C29.8286 17.127 30.1861 18.1844 30.1861 19.25V23.3324H28.8111V20.625C28.8111 19.7794 28.8043 18.7468 28.2103 17.875C27.6149 17.0032 26.4668 16.5 24.6861 16.5H14.0299L13.858 15.2103C13.8869 15.1951 13.9158 15.1869 13.9446 15.1704C13.9625 15.1566 13.9694 15.1374 13.9872 15.1277V15.125V15.125ZM14.2017 17.875H24.6861C26.2206 17.875 26.7981 18.216 27.0924 18.6491C27.388 19.0809 27.4361 19.8138 27.4361 20.625V23.375H14.9786L14.2045 17.875H14.2017ZM16.4361 30.25H24.6861V33H16.4361V30.25ZM29.7131 30.25H31.0469L33.6663 39.3594C33.7035 39.5038 33.7866 39.6322 33.9032 39.7252C34.0198 39.8182 34.1634 39.8708 34.3125 39.875H40.5C40.5963 39.875 40.808 39.9094 40.929 40.007C41.0486 40.1033 41.1435 40.2325 41.1435 40.5653C41.1435 40.898 41.0486 40.9833 40.929 41.0809C40.8036 41.1759 40.6549 41.2353 40.4986 41.2528H32.7643L29.7145 30.2528V30.25H29.7131Z" fill="#525252"/>
</svg>
