<svg width="44" height="44" viewBox="0 0 44 44" fill="none" xmlns="http://www.w3.org/2000/svg">
<g clip-path="url(#clip0_3391_14187)">
<rect width="44" height="44" fill="white"/>
<path d="M23.1218 20.8144C23.4775 20.8663 23.839 20.7734 24.1268 20.5561C24.4147 20.3389 24.6052 20.0151 24.6566 19.6559C24.708 19.2968 24.6159 18.9318 24.4008 18.6412C24.1856 18.3506 23.8649 18.1582 23.5092 18.1063C20.5941 17.6823 17.1317 20.0813 17.1317 24.0231C17.1317 24.3859 17.2744 24.7338 17.5285 24.9903C17.7825 25.2468 18.127 25.3909 18.4863 25.3909C18.8456 25.3909 19.1901 25.2468 19.4442 24.9903C19.6982 24.7338 19.8409 24.3859 19.8409 24.0231C19.8409 21.8347 21.7564 20.6147 23.1218 20.8144ZM5.57681 14.0441C-0.971408 19.2634 -1.14209 28.1099 1.92747 34.0678C3.9892 38.0725 7.95552 41.6368 13.905 41.6368C15.3815 41.6368 16.4463 41.5958 17.2861 41.5657C19.8247 41.4672 20.2852 41.4508 23.8208 42.8787C28.524 44.7772 33.5253 44.2136 37.7029 41.5767C41.4633 39.2023 43.6226 33.693 43.2568 29.2205C43.0374 26.5343 43.2352 25.4839 43.4898 24.1271C43.7333 22.9141 43.8944 21.6857 43.9721 20.4506C44.262 16.0875 42.2246 11.9925 41.1165 10.0394C40.0058 8.08627 38.1364 5.03348 33.7366 2.22962C30.1252 -0.0736468 23.2844 -1.17604 17.8713 1.83024C13.905 4.0323 11.9218 6.03466 9.54313 10.0367C8.64095 11.5548 7.77671 12.288 5.57681 14.0441V14.0441ZM35.1264 23.156C35.1264 24.7707 34.8114 26.3696 34.1994 27.8614C33.5874 29.3533 32.6904 30.7087 31.5596 31.8505C30.4287 32.9923 29.0862 33.898 27.6087 34.516C26.1312 35.1339 24.5477 35.4519 22.9484 35.4519C21.3492 35.4519 19.7656 35.1339 18.2881 34.516C16.8106 33.898 15.4681 32.9923 14.3373 31.8505C13.2064 30.7087 12.3094 29.3533 11.6974 27.8614C11.0854 26.3696 10.7704 24.7707 10.7704 23.156C10.7704 19.8949 12.0534 16.7674 14.3373 14.4614C16.6211 12.1555 19.7186 10.86 22.9484 10.86C26.1782 10.86 29.2757 12.1555 31.5596 14.4614C33.8434 16.7674 35.1264 19.8949 35.1264 23.156V23.156Z" fill="#525252"/>
</g>
<defs>
<clipPath id="clip0_3391_14187">
<rect width="44" height="44" fill="white"/>
</clipPath>
</defs>
</svg>
