<svg width="44" height="44" viewBox="0 0 44 44" fill="none" xmlns="http://www.w3.org/2000/svg">
<rect width="44" height="44" fill="white"/>
<path d="M0 37.2H44L39.6 41.6H4.4L0 37.2ZM6.6 8.6H8.8V10.8H6.6V8.6ZM6.6 4.2H8.8V6.4H6.6V4.2ZM15.4 4.2V6.4H11V4.2H15.4ZM15.4 10.8H11V8.6H15.4V10.8ZM8.8 28.906C8.008 29.148 7.282 29.522 6.6 29.94V13H8.8V28.906ZM4.4 31.744C3.564 32.712 2.904 33.79 2.552 35H39.556C39.578 34.648 39.622 34.274 39.622 33.9C39.6256 31.0986 38.6566 28.3828 36.8803 26.2165C35.1041 24.0502 32.6309 22.5677 29.8831 22.0223C27.1353 21.4769 24.2833 21.9024 21.8144 23.2261C19.3454 24.5498 17.4126 26.6896 16.346 29.28C15.048 28.73 13.618 28.4 12.1 28.4C11.726 28.4 11.374 28.444 11 28.488V13H15.4C17.666 13.132 19.58 10.888 19.8 8.6H41.8V6.4H19.8C19.58 4.09 17.666 2.066 15.4 2H2.2V4.2H4.4V6.4H2.2V8.6H4.4V10.8H2.2V13H4.4V31.744Z" fill="#525252"/>
</svg>
