<svg width="44" height="44" viewBox="0 0 44 44" fill="none" xmlns="http://www.w3.org/2000/svg">
<rect width="44" height="44" fill="white"/>
<path d="M1 40.9655H43.4828V44H1V40.9655ZM35.1379 15.1724H10.1034C9.2989 15.1732 8.52753 15.4932 7.95863 16.0621C7.38973 16.631 7.06977 17.4023 7.06897 18.2069V30.3448C7.07137 32.3561 7.87141 34.2843 9.29357 35.7064C10.7157 37.1286 12.6439 37.9286 14.6552 37.931H26.7931C28.8044 37.9286 30.7325 37.1286 32.1547 35.7064C33.5769 34.2843 34.3769 32.3561 34.3793 30.3448V28.8276H35.1379C36.9487 28.8276 38.6853 28.1083 39.9658 26.8278C41.2462 25.5474 41.9655 23.8108 41.9655 22C41.9655 20.1892 41.2462 18.4526 39.9658 17.1722C38.6853 15.8917 36.9487 15.1724 35.1379 15.1724V15.1724ZM31.3448 30.3448C31.3436 31.5516 30.8637 32.7087 30.0103 33.5621C29.157 34.4154 27.9999 34.8953 26.7931 34.8966H14.6552C13.4483 34.8953 12.2913 34.4154 11.4379 33.5621C10.5846 32.7087 10.1047 31.5516 10.1034 30.3448V18.2069H31.3448V30.3448ZM35.1379 25.7931H34.3793V18.2069H35.1379C36.1439 18.2069 37.1087 18.6065 37.8201 19.3179C38.5314 20.0292 38.931 20.994 38.931 22C38.931 23.006 38.5314 23.9708 37.8201 24.6821C37.1087 25.3935 36.1439 25.7931 35.1379 25.7931ZM26.7931 12.1379H23.7586V11.9164C23.7608 11.3525 23.6049 10.7992 23.3086 10.3194C23.0122 9.83965 22.5873 9.45254 22.0821 9.20207L18.0083 7.16745C16.9981 6.66607 16.1486 5.89177 15.5559 4.93229C14.9633 3.9728 14.6512 2.86651 14.6552 1.73876V0H17.6897V1.73876C17.6878 2.30261 17.8438 2.85573 18.1401 3.33545C18.4365 3.81518 18.8612 4.20235 19.3662 4.4531L23.4385 6.48772C24.4488 6.98903 25.2986 7.76327 25.8915 8.72274C26.4844 9.68221 26.7967 10.7885 26.7931 11.9164V12.1379Z" fill="#525252"/>
</svg>
