<svg width="44" height="44" viewBox="0 0 44 44" fill="none" xmlns="http://www.w3.org/2000/svg">
<g clip-path="url(#clip0_3404_23381)">
<path d="M19.362 6.97929L17.1748 9.95456H12.0672C12.6971 11.7518 14.7594 13.4465 17.6394 12.884C18.4931 12.8265 21.3731 12.3691 22.5664 12.6504C24.1552 13.0314 23.4929 13.0332 26.3414 15.3192L40.5384 27.028C41.4083 27.7963 42.5208 27.4818 43.2909 26.6137C44.061 25.7439 44.1041 24.2019 43.2342 23.4336L25.2622 9.05596C24.1372 8.15286 23.8532 6.90201 23.465 5.46155C22.7102 2.98591 19.9344 1 17.2099 1C15.0146 1 12.6522 2.89874 11.7832 4.56295H17.1748L19.362 6.97929ZM31.6908 28.8252L26.1357 19.1832C25.9164 18.7833 25.362 18.042 24.9064 18.042H9.44325C8.98766 18.042 8.43323 18.7833 8.21307 19.1832L2.7972 28.8252H2.65882C1.74674 28.8252 1 29.1568 1 30.0697V38.3638C1 39.2768 1.74674 39.6084 2.65882 39.6084H4.5944V42.5109C4.5944 43.8803 5.43729 45 6.80586 45H7.63527C9.00474 45 9.98601 43.8803 9.98601 42.5109V39.6084H24.3636V42.5109C24.3636 43.8794 25.3449 45 26.7135 45H27.5429C28.9123 45 29.7552 43.8803 29.7552 42.5109V39.6084H31.6908C32.6029 39.6084 33.3496 39.2768 33.3496 38.3638V30.0697C33.3496 29.1568 32.6029 28.8252 31.6908 28.8252ZM5.5622 35.0462C5.28627 35.0519 5.01196 35.0026 4.75536 34.9009C4.49876 34.7993 4.26503 34.6475 4.06785 34.4544C3.87068 34.2613 3.71403 34.0307 3.60709 33.7763C3.50014 33.5219 3.44506 33.2487 3.44506 32.9727C3.44506 32.6967 3.50014 32.4235 3.60709 32.169C3.71403 31.9146 3.87068 31.6841 4.06785 31.491C4.26503 31.2979 4.49876 31.146 4.75536 31.0444C5.01196 30.9428 5.28627 30.8934 5.5622 30.8992C6.10466 30.9104 6.62109 31.1339 7.00073 31.5215C7.38038 31.9091 7.593 32.4301 7.593 32.9727C7.593 33.5153 7.38038 34.0362 7.00073 34.4239C6.62109 34.8115 6.10466 35.0349 5.5622 35.0462ZM7.22101 28.8252L10.5827 21.7909C10.7867 21.383 11.3276 20.7378 11.7832 20.7378H22.5664C23.022 20.7378 23.5621 21.383 23.767 21.7909L27.1286 28.8252H7.22101ZM28.7874 35.0462C28.2374 35.0462 27.7099 34.8277 27.3209 34.4387C26.932 34.0498 26.7135 33.5223 26.7135 32.9722C26.7135 32.4222 26.932 31.8947 27.3209 31.5057C27.7099 31.1168 28.2374 30.8983 28.7874 30.8983C29.3375 30.8983 29.865 31.1168 30.254 31.5057C30.6429 31.8947 30.8614 32.4222 30.8614 32.9722C30.8614 33.5223 30.6429 34.0498 30.254 34.4387C29.865 34.8277 29.3375 35.0462 28.7874 35.0462V35.0462Z" fill="#525252"/>
</g>
<defs>
<clipPath id="clip0_3404_23381">
<rect width="44" height="44" fill="white"/>
</clipPath>
</defs>
</svg>
