<svg width="44" height="44" viewBox="0 0 44 44" fill="none" xmlns="http://www.w3.org/2000/svg">
<path d="M27.3965 16.4022C26.0322 15.4882 24.4268 15.0007 22.7846 15.002H11.9363C10.7378 15.0022 9.56057 15.3186 8.52341 15.9192C7.48625 16.5198 6.62587 17.3833 6.02908 18.4227C4.04613 21.8711 2.74013 25.6665 2.18127 29.605L2.10426 30.1421C1.42052 30.3561 0.835924 30.8077 0.456177 31.4153C0.0764299 32.0228 -0.0734037 32.7462 0.0337676 33.4546C0.140939 34.163 0.498041 34.8096 1.04051 35.2777C1.58297 35.7457 2.27499 36.0041 2.99144 36.0063H4.41574C4.80348 36.8979 5.44318 37.6568 6.25628 38.1899C7.06937 38.7229 8.02045 39.0069 8.9927 39.0069C9.96494 39.0069 10.916 38.7229 11.7291 38.1899C12.5422 37.6568 13.1819 36.8979 13.5697 36.0063H30.4212C30.8089 36.8979 31.4486 37.6568 32.2617 38.1899C33.0748 38.7229 34.0259 39.0069 34.9981 39.0069C35.9704 39.0069 36.9214 38.7229 37.7345 38.1899C38.5476 37.6568 39.1873 36.8979 39.5751 36.0063H42.9998C43.2651 36.0063 43.5195 35.901 43.707 35.7134C43.8946 35.5258 44 35.2714 44 35.0061V33.0057C43.997 30.4405 43.0096 27.9743 41.2416 26.1157C39.4737 24.2571 37.0599 23.1478 34.498 23.0166C32.5043 20.4422 30.1059 18.2083 27.3965 16.4022V16.4022ZM37.5517 29.729C36.7047 29.2088 35.7192 28.9594 34.7267 29.0141C33.7343 29.0688 32.7822 29.425 31.9975 30.0351C31.9836 28.3367 31.7581 26.6467 31.3264 25.004H33.9979C35.0268 25.0043 36.0459 25.2044 36.9985 25.5932V28.0047C36.9991 28.623 37.1924 29.2258 37.5517 29.729V29.729ZM26.2813 18.0616C28.3622 19.4517 30.248 21.1138 31.8885 23.0036H18.9948V17.0024H22.7846C24.0294 17.001 25.2465 17.3697 26.2813 18.0616V18.0616ZM10.9931 21.2463C10.9996 19.7676 11.3612 18.3122 12.0473 17.0024H16.9944V22.8506L10.9931 21.9934V21.2463ZM7.76344 19.4189C8.20512 18.6501 8.85068 18.0184 9.62883 17.5935C9.21565 18.7674 9.00067 20.0018 8.9927 21.2463V21.7034L6.73923 21.3823C7.05729 20.7201 7.39236 20.063 7.76344 19.4189V19.4189ZM3.99165 34.0059H2.99144C2.72617 34.0059 2.47177 33.9005 2.28419 33.713C2.09661 33.5254 1.99124 33.271 1.99124 33.0057C1.99124 32.7404 2.09661 32.486 2.28419 32.2985C2.47177 32.1109 2.72617 32.0055 2.99144 32.0055C3.23213 32.0055 3.46476 31.9188 3.64664 31.7611C3.82853 31.6035 3.94747 31.3856 3.98165 31.1473L4.16169 29.8851C4.2407 29.3309 4.34073 28.7848 4.45075 28.2347C5.28954 28.494 6.04329 28.9738 6.6332 29.624C5.83803 30.0475 5.17249 30.6786 4.70736 31.4502C4.24223 32.2218 3.9949 33.105 3.99165 34.0059V34.0059ZM8.9927 37.0065C8.39923 37.0065 7.81909 36.8306 7.32564 36.5008C6.83219 36.1711 6.44759 35.7025 6.22048 35.1542C5.99337 34.6059 5.93395 34.0026 6.04973 33.4205C6.16551 32.8385 6.45129 32.3038 6.87093 31.8842C7.29058 31.4645 7.82524 31.1787 8.4073 31.0629C8.98937 30.9472 9.59269 31.0066 10.141 31.2337C10.6893 31.4608 11.1579 31.8454 11.4876 32.3389C11.8173 32.8323 11.9933 33.4125 11.9933 34.0059C11.9933 34.8017 11.6772 35.565 11.1145 36.1277C10.5517 36.6904 9.78851 37.0065 8.9927 37.0065ZM8.9927 29.0049C8.89268 29.0049 8.79866 29.0289 8.69964 29.0349C7.79581 27.7065 6.45644 26.7354 4.91284 26.2893C5.18905 25.2718 5.52061 24.2701 5.90605 23.2887L16.5703 24.812C15.7495 27.1641 15.8074 29.7338 16.7333 32.0465L17.5175 34.0059H13.9937C13.9922 32.68 13.4647 31.4089 12.5272 30.4714C11.5897 29.5339 10.3186 29.0065 8.9927 29.0049V29.0049ZM19.6719 34.0059L18.5947 31.3054C18.1905 30.3025 17.9879 29.2298 17.9984 28.1486C18.0088 27.0674 18.2322 25.9989 18.6557 25.004H29.2449C29.7398 26.6809 29.993 28.4198 29.9971 30.1681V34.0059H19.6719ZM34.9981 37.0065C34.4047 37.0065 33.8245 36.8306 33.3311 36.5008C32.8376 36.1711 32.453 35.7025 32.2259 35.1542C31.9988 34.6059 31.9394 34.0026 32.0552 33.4205C32.1709 32.8385 32.4567 32.3038 32.8764 31.8842C33.296 31.4645 33.8307 31.1787 34.4127 31.0629C34.9948 30.9472 35.5981 31.0066 36.1464 31.2337C36.6947 31.4608 37.1633 31.8454 37.493 32.3389C37.8228 32.8323 37.9987 33.4125 37.9987 34.0059C37.9987 34.8017 37.6826 35.565 37.1199 36.1277C36.5572 36.6904 35.7939 37.0065 34.9981 37.0065ZM41.9996 34.0059H39.9992C39.9949 32.7915 39.5451 31.6209 38.7349 30.7162C39.1299 30.9044 39.5616 31.0031 39.9992 31.0053H41.7365C41.9088 31.6582 41.9972 32.3304 41.9996 33.0057V34.0059ZM40.9174 29.0049H39.9992C39.7339 29.0049 39.4795 28.8995 39.2919 28.7119C39.1043 28.5243 38.999 28.2699 38.999 28.0047V26.7694C39.7704 27.3904 40.4207 28.1482 40.9174 29.0049V29.0049Z" fill="#525252"/>
<path d="M8.9926 36.0067C10.0974 36.0067 10.993 35.1111 10.993 34.0063C10.993 32.9015 10.0974 32.0059 8.9926 32.0059C7.8878 32.0059 6.99219 32.9015 6.99219 34.0063C6.99219 35.1111 7.8878 36.0067 8.9926 36.0067Z" fill="#525252"/>
<path d="M34.998 36.0067C36.1028 36.0067 36.9984 35.1111 36.9984 34.0063C36.9984 32.9015 36.1028 32.0059 34.998 32.0059C33.8932 32.0059 32.9976 32.9015 32.9976 34.0063C32.9976 35.1111 33.8932 36.0067 34.998 36.0067Z" fill="#525252"/>
<path d="M9.99309 11.0013H10.7573C11.1296 11.1859 11.4428 11.4712 11.6613 11.8248C11.8798 12.1783 11.9949 12.5861 11.9935 13.0017H13.9939C13.9958 11.9881 13.6317 11.0078 12.9687 10.2411C13.428 9.84057 13.7539 9.30919 13.9027 8.71819C14.0515 8.12719 14.016 7.50484 13.8011 6.93457C13.5861 6.3643 13.202 5.87337 12.7001 5.52759C12.1983 5.18182 11.6027 4.99774 10.9933 5.00002H8.99288C8.72761 5.00002 8.4732 5.1054 8.28563 5.29298C8.09805 5.48055 7.99268 5.73496 7.99268 6.00023V13.0017H9.99309V11.0013ZM9.99309 7.00044H10.9933C11.2586 7.00044 11.513 7.10582 11.7006 7.29339C11.8881 7.48097 11.9935 7.73538 11.9935 8.00065C11.9935 8.26592 11.8881 8.52033 11.7006 8.7079C11.513 8.89548 11.2586 9.00086 10.9933 9.00086H9.99309V7.00044ZM15.9943 13.0017H19.9952V11.0013H16.9946V10.0011H19.9952V8.00065H16.9946V7.00044H19.9952V5.00002H15.9943C15.7291 5.00002 15.4747 5.1054 15.2871 5.29298C15.0995 5.48055 14.9941 5.73496 14.9941 6.00023V12.0015C14.9941 12.2668 15.0995 12.5212 15.2871 12.7087C15.4747 12.8963 15.7291 13.0017 15.9943 13.0017ZM22.9958 7.00044H23.1488L24.01 12.1665C24.0491 12.3999 24.1696 12.6119 24.3501 12.7648C24.5307 12.9177 24.7596 13.0016 24.9962 13.0017H26.9966C27.2619 13.0017 27.5163 12.8963 27.7039 12.7087C27.8915 12.5212 27.9968 12.2668 27.9968 12.0015V5.00002H25.9964V11.0013H25.8434L24.9822 5.8352C24.9432 5.60183 24.8227 5.38986 24.6421 5.23695C24.4615 5.08404 24.2326 5.00009 23.996 5.00002H21.9956C21.7303 5.00002 21.4759 5.1054 21.2883 5.29298C21.1008 5.48055 20.9954 5.73496 20.9954 6.00023V13.0017H22.9958V7.00044Z" fill="#525252"/>
<path d="M30.9975 13.0017H32.9979V7.00042H34.9983V5H28.9971V7.00042H30.9975V13.0017Z" fill="#525252"/>
<path d="M23.996 27.0049H19.9951V29.0053H23.996V27.0049Z" fill="#525252"/>
</svg>
