<svg width="44" height="44" viewBox="0 0 44 44" fill="none" xmlns="http://www.w3.org/2000/svg">
<path d="M42.169 10.457C41.5636 9.98008 39.94 9.59728 38.7247 9.31216L37.08 9.09216V5.11632L37.9222 5.10312C38.7115 5.50352 39.8485 6.16 39.9074 7.04H43.079C43.02 5.28 41.6833 4.16944 40.4935 3.28768C39.7042 2.70248 38.84 2.39008 37.08 2.20088V0H35.32V2.13312C33.56 2.30208 32.9915 2.74032 32.1969 3.45576C31.1576 4.3912 30.6947 5.56512 30.6947 6.9784C30.6947 8.5272 31.1374 9.66504 32.2013 10.3937C32.7962 10.8064 33.56 11.1901 35.32 11.5456V15.8532C34.44 15.6974 34.4382 15.737 34.1276 15.3683C33.8284 15.011 33.7466 14.08 33.6445 14.08H30.4976C30.4976 15.84 30.9737 16.683 32.1652 17.622C33.0241 18.2987 33.56 18.4184 35.32 18.5962V20.24H37.08V18.6243C38.84 18.4545 40.3351 18.0066 41.1949 17.2726C42.3107 16.3196 43.2233 15.1219 43.2233 13.6805C43.2224 12.2742 43.1098 11.2006 42.169 10.457V10.457ZM34.4558 8.00536C33.9437 7.7264 33.7466 7.304 33.7466 6.73992C33.7466 6.12568 33.9164 5.6452 34.4356 5.302C34.7093 5.1216 34.44 4.99048 35.32 4.90336V8.37056C34.44 8.2368 34.6494 8.11536 34.4558 8.00536V8.00536ZM38.2777 15.767C38.1298 15.818 37.08 15.8585 37.08 15.8946V12.2276C38.84 12.379 38.7045 12.5418 38.9966 12.7186C39.4551 13.0038 39.6857 13.4103 39.6857 13.9304C39.6857 14.8245 39.2149 15.4378 38.2777 15.767ZM34.0176 26.4H33.531L28.1242 16.61C27.891 16.1867 27.3032 15.84 26.8192 15.84H10.4151C9.93112 15.84 9.34328 16.1867 9.11008 16.61L3.70336 26.4H3.2176C2.24872 26.4 1 27.192 1 28.16V36.96C1 37.928 2.24872 38.72 3.2176 38.72H4.52V41.36C4.52 42.812 6.1656 44 7.6176 44H8.4976C9.9496 44 10.68 42.812 10.68 41.36V38.72H25.64V41.36C25.64 42.812 27.2847 44 28.7376 44H29.6176C31.0696 44 31.8 42.812 31.8 41.36V38.72H34.0176C34.9856 38.72 35.32 37.928 35.32 36.96V28.16C35.32 27.192 34.9847 26.4 34.0176 26.4ZM6.2976 33.44C5.71412 33.44 5.15455 33.2082 4.74197 32.7956C4.32939 32.3831 4.0976 31.8235 4.0976 31.24C4.0976 30.6565 4.32939 30.0969 4.74197 29.6844C5.15455 29.2718 5.71412 29.04 6.2976 29.04C6.88108 29.04 7.44066 29.2718 7.85324 29.6844C8.26582 30.0969 8.4976 30.6565 8.4976 31.24C8.4976 31.8235 8.26582 32.3831 7.85324 32.7956C7.44066 33.2082 6.88108 33.44 6.2976 33.44V33.44ZM8.0576 26.4L11.6242 19.2676C11.8398 18.8338 12.4136 18.48 12.8976 18.48H24.3376C24.8216 18.48 25.3945 18.8338 25.611 19.2676L29.1776 26.4H8.0576ZM30.9376 33.44C30.3541 33.44 29.7945 33.2082 29.382 32.7956C28.9694 32.3831 28.7376 31.8235 28.7376 31.24C28.7376 30.6565 28.9694 30.0969 29.382 29.6844C29.7945 29.2718 30.3541 29.04 30.9376 29.04C31.5211 29.04 32.0807 29.2718 32.4932 29.6844C32.9058 30.0969 33.1376 30.6565 33.1376 31.24C33.1376 31.8235 32.9058 32.3831 32.4932 32.7956C32.0807 33.2082 31.5211 33.44 30.9376 33.44V33.44Z" fill="#525252"/>
</svg>
