<svg width="44" height="44" viewBox="0 0 44 44" fill="none" xmlns="http://www.w3.org/2000/svg">
<g clip-path="url(#clip0_3391_14187)">
<rect width="44" height="44" fill="white"/>
<path d="M43.9727 10.6366C44.0511 10.9209 43.9521 11.2346 43.7864 11.4797L38.5027 19.3415C38.3066 19.6454 37.8949 19.812 37.5508 19.812C37.4528 19.812 37.1783 19.7924 37.0715 19.763L32.8367 18.7239V37.3493C32.8367 37.9178 32.4348 38.3295 31.8564 38.3295H11.2705C10.6921 38.3295 10.2902 37.9178 10.2902 37.3493V18.7239L6.48673 19.7728C6.04561 19.9101 5.6633 19.7336 5.41823 19.3513L0.173725 11.5091C0.00707739 11.2542 -0.0419367 10.9699 0.0364857 10.6856C0.105105 10.3915 0.310964 10.1955 0.57564 10.0582L11.2705 5H16.1719C16.7503 5 17.1522 5.40192 17.1522 5.98028C17.1522 7.99966 19.9852 9.43087 22.0046 9.43087C24.024 9.43087 26.955 8.00946 26.955 5.98028C26.955 5.41172 27.3569 5 27.9353 5H32.8367L43.4237 9.96022C43.6982 10.0975 43.8942 10.3425 43.9727 10.6366V10.6366Z" fill="#525252"/>
</g>
<defs>
<clipPath id="clip0_3391_14187">
<rect width="44" height="44" fill="white"/>
</clipPath>
</defs>
</svg>
