<svg width="44" height="44" viewBox="0 0 44 44" fill="none" xmlns="http://www.w3.org/2000/svg">
<path d="M37.7958 43.7112C37.7271 43.8853 37.5575 43.9999 37.3696 43.9999H24.9784C24.7905 43.9999 24.6256 43.8853 24.5523 43.7112C22.2014 37.8501 22.6367 30.3759 25.7483 23.2089C26.1057 22.3932 26.8985 21.8663 27.7738 21.8663H34.5788C35.4541 21.8663 36.2469 22.3933 36.5997 23.2089C39.7113 30.376 40.1466 37.8501 37.7958 43.7112ZM19.0257 22.9249C18.8515 22.4299 18.4346 22.0633 17.9351 21.9259V20.1112C17.9351 19.2268 17.2202 18.5119 16.3358 18.5027V12.9853C16.3358 12.1926 15.7584 11.5327 14.9977 11.4043V2.70206C14.9977 0.470369 12.6193 -0.886029 11.0704 0.667382L9.86974 1.87258C9.45732 2.285 9.22816 2.83487 9.22816 3.42152V11.4043C8.472 11.5327 7.89007 12.1926 7.89007 12.9853V18.5027C7.01022 18.5119 6.29531 19.2267 6.29531 20.1112V21.9305C5.79582 22.0634 5.37884 22.43 5.20469 22.9249C3.14259 28.786 3.74747 36.1227 6.86813 43.056C7.12471 43.6288 7.70217 44 8.33911 44H15.8911C16.528 44 17.1055 43.6288 17.3621 43.056C20.4829 36.1226 21.0879 28.7859 19.0257 22.9249ZM8.80663 12.9853C8.80663 12.605 9.12286 12.2934 9.50322 12.2934H14.7228C15.1077 12.2934 15.4193 12.605 15.4193 12.9853V18.4981H8.80671V12.9853H8.80663ZM16.5282 42.6801C16.4183 42.923 16.1662 43.0834 15.8913 43.0834H8.33928C8.05975 43.0834 7.81228 42.923 7.70234 42.6801C4.68242 35.9575 4.08674 28.8683 6.07097 23.2273C6.1626 22.9615 6.42382 22.7828 6.72166 22.7828H17.509C17.8068 22.7828 18.068 22.9615 18.1598 23.2273C20.1438 28.8683 19.5481 35.9575 16.5282 42.6801Z" fill="#525252"/>
</svg>
