<svg width="44" height="44" viewBox="0 0 44 44" fill="none" xmlns="http://www.w3.org/2000/svg">
<path d="M2.66546 42.4865C2.51996 42.4867 2.37687 42.4493 2.25002 42.378C2.12317 42.3068 2.01685 42.204 1.94131 42.0796C1.86578 41.9553 1.82358 41.8135 1.81881 41.6681C1.81404 41.5227 1.84685 41.3785 1.91408 41.2494L15.0768 16.1204C15.1387 16.003 15.2273 15.9017 15.3355 15.8248C15.4436 15.7479 15.5683 15.6975 15.6996 15.6776C15.8308 15.6577 15.9648 15.6688 16.0909 15.7102C16.217 15.7515 16.3317 15.8219 16.4256 15.9156L28.3919 27.8819C28.486 27.9757 28.5567 28.0903 28.5982 28.2165C28.6398 28.3426 28.651 28.4768 28.6311 28.6081C28.6111 28.7395 28.5606 28.8642 28.4834 28.9724C28.4063 29.0805 28.3048 29.169 28.1872 29.2307L3.05639 42.3934C2.93522 42.4548 2.80128 42.4867 2.66546 42.4865V42.4865ZM16.0432 17.9244L4.67085 39.635L26.3815 28.2627L16.0432 17.9244V17.9244Z" fill="#525252"/>
<path d="M10.2505 38.5149C10.165 38.5152 10.0799 38.5021 9.99839 38.476L5.27008 36.9986C5.16184 36.9673 5.06095 36.9146 4.97332 36.8438C4.8857 36.7729 4.81311 36.6853 4.75981 36.586C4.70651 36.4867 4.67358 36.3778 4.66295 36.2656C4.65232 36.1534 4.66421 36.0403 4.69791 35.9327C4.73161 35.8252 4.78645 35.7255 4.8592 35.6395C4.93196 35.5534 5.02117 35.4828 5.1216 35.4317C5.22203 35.3806 5.33166 35.35 5.44405 35.3419C5.55643 35.3337 5.66932 35.3481 5.77608 35.3841L10.5044 36.8615C10.6973 36.9221 10.8621 37.0498 10.969 37.2215C11.0758 37.3931 11.1177 37.5973 11.0871 37.7972C11.0564 37.997 10.9551 38.1793 10.8017 38.3109C10.6483 38.4426 10.4527 38.5149 10.2505 38.5149V38.5149ZM15.8842 35.5635C15.7987 35.5639 15.7136 35.5507 15.6321 35.5246L7.39054 32.9506C7.2823 32.9193 7.18141 32.8666 7.09378 32.7958C7.00616 32.7249 6.93357 32.6373 6.88027 32.538C6.82697 32.4387 6.79404 32.3298 6.78342 32.2176C6.77279 32.1054 6.78467 31.9923 6.81837 31.8847C6.85207 31.7772 6.90691 31.6775 6.97967 31.5915C7.05242 31.5054 7.14164 31.4348 7.24206 31.3837C7.34249 31.3326 7.45212 31.302 7.56451 31.2939C7.67689 31.2857 7.78978 31.3001 7.89654 31.3361L16.1381 33.9101C16.331 33.9708 16.4958 34.0984 16.6027 34.2701C16.7095 34.4417 16.7514 34.6459 16.7208 34.8458C16.6901 35.0456 16.5888 35.2279 16.4354 35.3595C16.2819 35.4912 16.0864 35.5636 15.8842 35.5635V35.5635ZM21.5179 32.6121C21.4324 32.6125 21.3473 32.5993 21.2658 32.5732L9.51269 28.9009C9.40445 28.8696 9.30356 28.8169 9.21594 28.7461C9.12831 28.6752 9.05572 28.5876 9.00242 28.4883C8.94913 28.389 8.9162 28.2801 8.90557 28.1679C8.89494 28.0558 8.90682 27.9426 8.94052 27.8351C8.97422 27.7275 9.02906 27.6278 9.10182 27.5418C9.17458 27.4557 9.26379 27.3851 9.36422 27.334C9.46465 27.2829 9.57427 27.2523 9.68666 27.2442C9.79905 27.236 9.91194 27.2504 10.0187 27.2864L21.7718 30.9588C21.9647 31.0194 22.1295 31.1471 22.2364 31.3187C22.3432 31.4903 22.3851 31.6945 22.3544 31.8944C22.3238 32.0942 22.2225 32.2765 22.0691 32.4082C21.9156 32.5398 21.7201 32.6122 21.5179 32.6121V32.6121ZM27.1516 29.6608C27.066 29.6611 26.981 29.648 26.8995 29.6218L11.6315 24.8495C11.5232 24.8182 11.4223 24.7656 11.3347 24.6947C11.2471 24.6239 11.1745 24.5362 11.1212 24.4369C11.0679 24.3377 11.035 24.2287 11.0243 24.1166C11.0137 24.0044 11.0256 23.8912 11.0593 23.7837C11.093 23.6761 11.1478 23.5764 11.2206 23.4904C11.2933 23.4043 11.3826 23.3337 11.483 23.2826C11.5834 23.2315 11.693 23.201 11.8054 23.1928C11.9178 23.1846 12.0307 23.199 12.1375 23.2351L27.4055 28.0074C27.5984 28.068 27.7632 28.1957 27.87 28.3673C27.9769 28.5389 28.0188 28.7432 27.9881 28.943C27.9575 29.1429 27.8562 29.3251 27.7028 29.4568C27.5493 29.5884 27.3538 29.6608 27.1516 29.6608ZM21.6313 23.2249C21.5457 23.2252 21.4606 23.2121 21.3792 23.186L13.7519 20.8015C13.6437 20.7702 13.5428 20.7176 13.4552 20.6467C13.3675 20.5759 13.295 20.4882 13.2417 20.3889C13.1884 20.2897 13.1554 20.1807 13.1448 20.0686C13.1342 19.9564 13.1461 19.8432 13.1798 19.7357C13.2135 19.6281 13.2683 19.5284 13.3411 19.4424C13.4138 19.3563 13.503 19.2857 13.6034 19.2346C13.7039 19.1835 13.8135 19.153 13.9259 19.1448C14.0383 19.1366 14.1512 19.151 14.2579 19.1871L21.8852 21.5715C22.078 21.6321 22.2429 21.7598 22.3497 21.9315C22.4566 22.1031 22.4985 22.3073 22.4678 22.5072C22.4371 22.707 22.3359 22.8893 22.1825 23.0209C22.029 23.1526 21.8335 23.2249 21.6313 23.2249Z" fill="#525252"/>
<path d="M9.30769 17.2308C8.81844 17.229 8.3401 17.086 7.93009 16.8191C7.52009 16.5521 7.19583 16.1725 6.99625 15.7258C6.79666 15.2792 6.73024 14.7843 6.80494 14.3008C6.87964 13.8173 7.0923 13.3656 7.41738 13C6.99972 12.5353 6.76866 11.9325 6.76866 11.3077C6.76866 10.6829 6.99972 10.0801 7.41738 9.61538C7.0923 9.24975 6.87964 8.79807 6.80494 8.31455C6.73024 7.83104 6.79666 7.33623 6.99625 6.88954C7.19583 6.44285 7.52009 6.06324 7.93009 5.7963C8.3401 5.52935 8.81844 5.3864 9.30769 5.38462C9.53211 5.38462 9.74733 5.47376 9.90601 5.63245C10.0647 5.79113 10.1538 6.00636 10.1538 6.23077C10.1538 6.45518 10.0647 6.67041 9.90601 6.82909C9.74733 6.98777 9.53211 7.07692 9.30769 7.07692C9.08328 7.07692 8.86806 7.16607 8.70937 7.32476C8.55069 7.48344 8.46154 7.69866 8.46154 7.92308C8.46154 8.14749 8.55069 8.36271 8.70937 8.5214C8.86806 8.68008 9.08328 8.76923 9.30769 8.76923C9.53211 8.76923 9.74733 8.85838 9.90601 9.01706C10.0647 9.17575 10.1538 9.39097 10.1538 9.61538C10.1538 9.8398 10.0647 10.055 9.90601 10.2137C9.74733 10.3724 9.53211 10.4615 9.30769 10.4615C9.08328 10.4615 8.86806 10.5507 8.70937 10.7094C8.55069 10.8681 8.46154 11.0833 8.46154 11.3077C8.46154 11.5321 8.55069 11.7473 8.70937 11.906C8.86806 12.0647 9.08328 12.1538 9.30769 12.1538C9.53211 12.1538 9.74733 12.243 9.90601 12.4017C10.0647 12.5604 10.1538 12.7756 10.1538 13C10.1538 13.2244 10.0647 13.4396 9.90601 13.5983C9.74733 13.757 9.53211 13.8462 9.30769 13.8462C9.08328 13.8462 8.86806 13.9353 8.70937 14.094C8.55069 14.2527 8.46154 14.4679 8.46154 14.6923C8.46154 14.9167 8.55069 15.1319 8.70937 15.2906C8.86806 15.4493 9.08328 15.5385 9.30769 15.5385C9.53211 15.5385 9.74733 15.6276 9.90601 15.7863C10.0647 15.945 10.1538 16.1602 10.1538 16.3846C10.1538 16.609 10.0647 16.8243 9.90601 16.9829C9.74733 17.1416 9.53211 17.2308 9.30769 17.2308ZM32.5465 19.0229C31.8966 19.0229 31.2468 18.7758 30.7509 18.2817C30.6723 18.2031 30.6098 18.1098 30.5672 18.0072C30.5246 17.9045 30.5026 17.7944 30.5025 17.6832C30.5025 17.572 30.5243 17.4619 30.5667 17.3592C30.6092 17.2564 30.6715 17.1631 30.7501 17.0844C30.8286 17.0057 30.9219 16.9433 31.0246 16.9007C31.1273 16.858 31.2374 16.8361 31.3486 16.836C31.4597 16.8359 31.5698 16.8577 31.6726 16.9002C31.7753 16.9427 31.8687 17.005 31.9474 17.0835C32.1063 17.2422 32.3217 17.3312 32.5462 17.3311C32.7708 17.3309 32.986 17.2416 33.1447 17.0827C33.3034 16.9238 33.3924 16.7084 33.3922 16.4839C33.3921 16.2593 33.3027 16.044 33.1438 15.8854C33.0646 15.807 33.0018 15.7137 32.9588 15.6109C32.9159 15.5081 32.8938 15.3977 32.8938 15.2863C32.8938 15.1749 32.9159 15.0646 32.9588 14.9617C33.0018 14.8589 33.0646 14.7656 33.1438 14.6872C33.3025 14.5286 33.5177 14.4395 33.7421 14.4395C33.9664 14.4395 34.1816 14.5286 34.3403 14.6872C34.4999 14.8414 34.7136 14.9267 34.9355 14.9247C35.1574 14.9228 35.3696 14.8338 35.5265 14.6769C35.6833 14.52 35.7723 14.3078 35.7743 14.086C35.7762 13.8641 35.6909 13.6504 35.5368 13.4908C35.4576 13.4124 35.3947 13.3191 35.3518 13.2163C35.3089 13.1134 35.2868 13.0031 35.2868 12.8917C35.2868 12.7803 35.3089 12.6699 35.3518 12.5671C35.3947 12.4643 35.4576 12.371 35.5368 12.2926C35.6954 12.134 35.9106 12.0449 36.135 12.0449C36.3594 12.0449 36.5746 12.134 36.7332 12.2926C36.8948 12.4457 37.1089 12.531 37.3315 12.531C37.554 12.531 37.7681 12.4457 37.9297 12.2926C38.0086 12.2142 38.0711 12.1208 38.1135 12.0179C38.1559 11.9151 38.1774 11.8048 38.1768 11.6935C38.1772 11.5826 38.1556 11.4726 38.1132 11.3701C38.0708 11.2675 38.0084 11.1744 37.9297 11.0962C37.7708 10.9375 37.6815 10.7222 37.6813 10.4977C37.6811 10.2731 37.7702 10.0577 37.9288 9.89885C38.0875 9.73996 38.3028 9.65061 38.5273 9.65045C38.7519 9.65029 38.9673 9.73934 39.1262 9.898C39.6051 10.3769 39.8691 11.0149 39.8691 11.6935C39.8696 12.3427 39.6213 12.9673 39.1752 13.4389C38.7291 13.9105 38.1192 14.1931 37.4711 14.2286C37.4381 14.853 37.1752 15.4431 36.7331 15.8852C36.291 16.3274 35.7009 16.5902 35.0765 16.6232C35.0426 17.2257 34.7972 17.8197 34.3369 18.2783C33.8478 18.7758 33.1963 19.0229 32.5465 19.0229V19.0229ZM23.1423 39.1631C22.9955 39.1631 22.8512 39.1248 22.7236 39.0521C22.596 38.9794 22.4895 38.8748 22.4146 38.7485C22.163 38.3272 22.0391 37.8419 22.0578 37.3516C22.0766 36.8612 22.2373 36.3869 22.5204 35.9861C22.8035 35.5852 23.1968 35.2752 23.6527 35.0936C24.1085 34.9119 24.6073 34.8665 25.0885 34.9628C25.2695 34.3874 25.6554 33.8729 26.2138 33.5429C26.7499 33.2216 27.3867 33.1124 27.9992 33.2366C28.1854 32.6392 28.5814 32.1383 29.1246 31.8168C29.4108 31.645 29.7284 31.5321 30.0589 31.4847C30.3893 31.4373 30.7258 31.4565 31.0488 31.5409C31.7054 31.7085 32.2588 32.1231 32.604 32.7052C32.7185 32.8987 32.7514 33.1297 32.6955 33.3474C32.6397 33.5651 32.4996 33.7517 32.3062 33.8662C32.1127 33.9806 31.8817 34.0135 31.664 33.9577C31.4463 33.9018 31.2597 33.7618 31.1452 33.5683C31.0612 33.4224 30.9354 33.3051 30.7841 33.2315C30.6327 33.1579 30.4627 33.1315 30.2961 33.1555C30.1295 33.1796 29.974 33.2531 29.8496 33.3665C29.7252 33.4799 29.6377 33.628 29.5985 33.7917C29.5708 33.8992 29.5648 34.0111 29.5808 34.1209C29.5968 34.2307 29.6344 34.3362 29.6915 34.4314C29.7843 34.6229 29.8018 34.8423 29.7405 35.0461C29.6793 35.2499 29.5438 35.4233 29.3609 35.532C29.1779 35.6407 28.9609 35.6768 28.7526 35.6331C28.5443 35.5894 28.36 35.4692 28.2362 35.2962C28.1133 35.1204 27.9286 34.9977 27.7191 34.9524C27.5095 34.9072 27.2906 34.9429 27.1063 35.0523C26.9219 35.1617 26.7857 35.3368 26.7251 35.5424C26.6644 35.748 26.6837 35.9689 26.7791 36.1609C26.8357 36.2567 26.873 36.3627 26.8887 36.4729C26.9044 36.5831 26.8982 36.6953 26.8706 36.8031C26.8429 36.9109 26.7943 37.0122 26.7275 37.1012C26.6607 37.1902 26.577 37.2652 26.4812 37.3218C26.3854 37.3785 26.2794 37.4158 26.1693 37.4315C26.0591 37.4472 25.9469 37.441 25.8391 37.4134C25.7313 37.3857 25.63 37.3371 25.541 37.2703C25.452 37.2035 25.377 37.1198 25.3203 37.024C25.2338 36.8818 25.1073 36.7681 24.9567 36.6971C24.8061 36.6261 24.6379 36.601 24.4731 36.6248C24.3083 36.6486 24.1542 36.7203 24.0298 36.831C23.9054 36.9417 23.8163 37.0865 23.7735 37.2474C23.7459 37.3549 23.7399 37.4668 23.7559 37.5766C23.7719 37.6864 23.8095 37.7919 23.8666 37.8871C23.9428 38.0152 23.9837 38.1611 23.9852 38.3101C23.9867 38.4591 23.9487 38.6059 23.8751 38.7355C23.8016 38.8651 23.695 38.9729 23.5663 39.048C23.4376 39.1231 23.2913 39.1628 23.1423 39.1631V39.1631ZM21.1538 7.07692C19.7543 7.07692 18.6154 5.938 18.6154 4.53846C18.6154 3.13892 19.7543 2 21.1538 2C21.811 2.024 22.4333 2.30195 22.8898 2.77538C23.3462 3.24881 23.6013 3.88082 23.6013 4.53846C23.6013 5.1961 23.3462 5.82811 22.8898 6.30154C22.4333 6.77497 21.811 7.05292 21.1538 7.07692V7.07692ZM21.1538 3.69231C20.929 3.69276 20.7135 3.78251 20.5548 3.94183C20.3961 4.10115 20.3072 4.31698 20.3077 4.54185C20.3081 4.76671 20.3979 4.98218 20.5572 5.14087C20.7165 5.29955 20.9324 5.38845 21.1572 5.388C21.3821 5.38755 21.5976 5.29779 21.7563 5.13847C21.9149 4.97916 22.0038 4.76332 22.0034 4.53846C22.0029 4.3136 21.9132 4.09812 21.7539 3.93944C21.5945 3.78075 21.3787 3.69186 21.1538 3.69231V3.69231ZM34.6923 7.07692C33.2928 7.07692 32.1538 5.938 32.1538 4.53846C32.1538 3.13892 33.2928 2 34.6923 2C35.3495 2.024 35.9718 2.30195 36.4282 2.77538C36.8847 3.24881 37.1398 3.88082 37.1398 4.53846C37.1398 5.1961 36.8847 5.82811 36.4282 6.30154C35.9718 6.77497 35.3495 7.05292 34.6923 7.07692V7.07692ZM34.6923 3.69231C34.4674 3.69276 34.252 3.78251 34.0933 3.94183C33.9346 4.10115 33.8457 4.31698 33.8462 4.54185C33.8466 4.76671 33.9364 4.98218 34.0957 5.14087C34.255 5.29955 34.4708 5.38845 34.6957 5.388C34.9206 5.38755 35.136 5.29779 35.2947 5.13847C35.4534 4.97916 35.5423 4.76332 35.5418 4.53846C35.5414 4.3136 35.4516 4.09812 35.2923 3.93944C35.133 3.78075 34.9172 3.69186 34.6923 3.69231V3.69231ZM41.4615 24C40.062 24 38.9231 22.8611 38.9231 21.4615C38.9231 20.062 40.062 18.9231 41.4615 18.9231C42.8611 18.9231 44 20.062 44 21.4615C44 22.8611 42.8611 24 41.4615 24ZM41.4615 20.6154C41.2367 20.6158 41.0212 20.7056 40.8625 20.8649C40.7038 21.0242 40.6149 21.2401 40.6154 21.4649C40.6158 21.6898 40.7056 21.9053 40.8649 22.0639C41.0242 22.2226 41.2401 22.3115 41.4649 22.3111C41.5763 22.3109 41.6865 22.2887 41.7892 22.2459C41.892 22.2031 41.9854 22.1404 42.0639 22.0616C42.1425 21.9827 42.2048 21.8891 42.2472 21.7861C42.2896 21.6832 42.3113 21.5729 42.3111 21.4615C42.3109 21.3502 42.2887 21.24 42.2459 21.1372C42.2031 21.0344 42.1404 20.9411 42.0616 20.8625C41.9827 20.7839 41.8891 20.7217 41.7861 20.6793C41.6832 20.6369 41.5729 20.6152 41.4615 20.6154ZM2.53846 30.7692C1.13892 30.7692 0 29.6303 0 28.2308C0 26.8312 1.13892 25.6923 2.53846 25.6923C3.19566 25.7163 3.81794 25.9943 4.2744 26.4677C4.73085 26.9411 4.98591 27.5731 4.98591 28.2308C4.98591 28.8884 4.73085 29.5204 4.2744 29.9938C3.81794 30.4673 3.19566 30.7452 2.53846 30.7692V30.7692ZM2.53846 27.3846C2.42712 27.3848 2.31691 27.407 2.21413 27.4498C2.11135 27.4926 2.01801 27.5553 1.93944 27.6341C1.86087 27.713 1.7986 27.8066 1.7562 27.9096C1.7138 28.0125 1.69209 28.1228 1.69231 28.2342C1.69253 28.3455 1.71468 28.4557 1.75749 28.5585C1.80031 28.6613 1.86295 28.7546 1.94183 28.8332C2.02072 28.9117 2.11431 28.974 2.21726 29.0164C2.32021 29.0588 2.43051 29.0805 2.54185 29.0803C2.76671 29.0799 2.98218 28.9901 3.14087 28.8308C3.29955 28.6715 3.38845 28.4556 3.388 28.2308C3.38755 28.0059 3.29779 27.7904 3.13847 27.6317C2.97916 27.4731 2.76332 27.3842 2.53846 27.3846ZM36.3846 40.9231C34.9851 40.9231 33.8462 39.7842 33.8462 38.3846C33.8462 36.9851 34.9851 35.8462 36.3846 35.8462C37.7842 35.8462 38.9231 36.9851 38.9231 38.3846C38.9231 39.7842 37.7842 40.9231 36.3846 40.9231ZM36.3846 37.5385C36.2733 37.5387 36.1631 37.5608 36.0603 37.6036C35.9575 37.6465 35.8642 37.7091 35.7856 37.788C35.707 37.8669 35.6448 37.9605 35.6024 38.0634C35.56 38.1664 35.5382 38.2767 35.5385 38.388C35.5387 38.4993 35.5608 38.6095 35.6036 38.7123C35.6465 38.8151 35.7091 38.9084 35.788 38.987C35.8669 39.0656 35.9605 39.1279 36.0634 39.1703C36.1664 39.2127 36.2767 39.2344 36.388 39.2342C36.6129 39.2337 36.8283 39.1439 36.987 38.9846C37.1457 38.8253 37.2346 38.6095 37.2342 38.3846C37.2337 38.1598 37.1439 37.9443 36.9846 37.7856C36.8253 37.6269 36.6095 37.538 36.3846 37.5385Z" fill="#525252"/>
<path d="M38.0919 27.4541C37.9715 27.4542 37.8524 27.4285 37.7427 27.3789C37.633 27.3293 37.5351 27.2568 37.4556 27.1664C36.582 26.1715 35.5062 25.3743 34.3001 24.828C33.094 24.2817 31.7853 23.9989 30.4613 23.9984C28.4813 23.9984 26.5131 24.6482 24.9224 25.8278C24.8331 25.8939 24.7318 25.9418 24.624 25.9687C24.5163 25.9956 24.4043 26.0011 24.2945 25.9848C24.1846 25.9684 24.0791 25.9306 23.9838 25.8735C23.8886 25.8163 23.8056 25.741 23.7394 25.6518C23.6733 25.5625 23.6254 25.4612 23.5985 25.3534C23.5716 25.2457 23.5661 25.1337 23.5825 25.0238C23.5988 24.914 23.6366 24.8085 23.6937 24.7132C23.7509 24.618 23.8262 24.535 23.9154 24.4688C25.8126 23.0705 28.1062 22.3135 30.463 22.3078C33.6276 22.3078 36.6399 23.6718 38.7299 26.0495C38.8367 26.1721 38.9059 26.3228 38.9294 26.4837C38.9529 26.6446 38.9297 26.8088 38.8624 26.9569C38.7952 27.1049 38.6868 27.2305 38.5502 27.3186C38.4136 27.4068 38.2545 27.4538 38.0919 27.4541V27.4541ZM40.4814 32.5259C40.2804 32.5256 40.086 32.4538 39.9332 32.3232C39.7803 32.1927 39.6789 32.012 39.6471 31.8135C39.5593 31.2625 39.4205 30.7209 39.2325 30.1956C39.1956 30.0907 39.1798 29.9796 39.1858 29.8685C39.1919 29.7575 39.2197 29.6488 39.2678 29.5485C39.3159 29.4483 39.3833 29.3584 39.4661 29.2842C39.5489 29.21 39.6455 29.1528 39.7504 29.1159C39.8553 29.079 39.9664 29.0632 40.0774 29.0692C40.1885 29.0753 40.2972 29.1031 40.3975 29.1512C40.4977 29.1993 40.5875 29.2667 40.6618 29.3495C40.736 29.4323 40.7932 29.5289 40.8301 29.6338C41.0484 30.2558 41.212 30.8956 41.3191 31.5461C41.3382 31.6671 41.3308 31.7908 41.2975 31.9087C41.2642 32.0266 41.2057 32.1359 41.1261 32.229C41.0465 32.3221 40.9476 32.3969 40.8363 32.4482C40.725 32.4994 40.604 32.5259 40.4814 32.5259V32.5259ZM18.4408 19.9707C18.2975 19.9707 18.1565 19.9343 18.0311 19.8649C17.9057 19.7955 17.7999 19.6953 17.7238 19.5739C17.6477 19.4524 17.6037 19.3136 17.5959 19.1705C17.5881 19.0274 17.6168 18.8846 17.6793 18.7556C18.2935 17.489 18.6134 16.1 18.6151 14.6924C18.6151 13.061 18.1836 11.4499 17.3696 10.0385C17.3132 9.94226 17.2763 9.83578 17.2612 9.72522C17.2461 9.61466 17.253 9.5022 17.2815 9.39431C17.31 9.28643 17.3596 9.18525 17.4274 9.09661C17.4952 9.00797 17.5798 8.93361 17.6765 8.87781C17.7731 8.82201 17.8798 8.78588 17.9905 8.7715C18.1012 8.75712 18.2136 8.76476 18.3213 8.794C18.429 8.82324 18.5298 8.87349 18.618 8.94186C18.7062 9.01023 18.78 9.09537 18.8351 9.19238C19.732 10.7494 20.2346 12.5022 20.2989 14.298C20.3632 16.0937 19.9873 17.8779 19.2041 19.4951C19.1344 19.6381 19.0258 19.7586 18.8908 19.8427C18.7558 19.9268 18.5999 19.9712 18.4408 19.9707V19.9707ZM16.1037 7.99253C15.8958 7.99286 15.6951 7.91631 15.5402 7.77761C15.3086 7.57121 15.0675 7.37581 14.8176 7.19207C14.6464 7.05528 14.5348 6.85752 14.5063 6.64026C14.4777 6.423 14.5343 6.20312 14.6644 6.02672C14.7944 5.85032 14.9876 5.7311 15.2036 5.69407C15.4196 5.65703 15.6415 5.70506 15.8228 5.82807C16.1149 6.04377 16.3967 6.27305 16.6673 6.51515C16.7952 6.62932 16.8854 6.77964 16.9259 6.94622C16.9665 7.11279 16.9555 7.28776 16.8944 7.44794C16.8333 7.60813 16.725 7.74597 16.5838 7.84322C16.4426 7.94047 16.2752 7.99254 16.1037 7.99253ZM24.1896 20.6425C24.0238 20.6429 23.8616 20.5945 23.723 20.5035C23.5845 20.4124 23.4757 20.2827 23.4103 20.1304C23.3448 19.978 23.3256 19.8098 23.3549 19.6467C23.3843 19.4835 23.4609 19.3325 23.5753 19.2125C25.8284 16.857 27.083 13.7212 27.0767 10.4616C27.0767 8.54422 26.6316 6.62007 25.7922 4.89899C25.7379 4.79862 25.7045 4.68832 25.694 4.5747C25.6835 4.46109 25.696 4.34652 25.7309 4.23788C25.7658 4.12924 25.8223 4.02878 25.897 3.94254C25.9717 3.8563 26.063 3.78605 26.1656 3.73603C26.2681 3.68601 26.3798 3.65725 26.4937 3.65148C26.6077 3.6457 26.7216 3.66303 26.8287 3.70243C26.9358 3.74182 27.0338 3.80247 27.1168 3.88072C27.1999 3.95897 27.2662 4.05321 27.3119 4.15776C28.2683 6.12173 28.7665 8.27715 28.769 10.4616C28.7759 14.1558 27.3546 17.7096 24.8022 20.3802C24.7233 20.4633 24.6283 20.5294 24.5229 20.5745C24.4176 20.6196 24.3042 20.6427 24.1896 20.6425V20.6425Z" fill="#525252"/>
<path d="M9.30758 20.6152C9.7749 20.6152 10.1537 20.2363 10.1537 19.769C10.1537 19.3017 9.7749 18.9229 9.30758 18.9229C8.84026 18.9229 8.46143 19.3017 8.46143 19.769C8.46143 20.2363 8.84026 20.6152 9.30758 20.6152Z" fill="#525252"/>
</svg>
