<svg width="44" height="44" viewBox="0 0 44 44" fill="none" xmlns="http://www.w3.org/2000/svg">
<g clip-path="url(#clip0_3391_14187)">
<rect width="44" height="44" fill="white"/>
<path d="M19.1727 5.49999C19.1893 6.23242 19.059 6.96078 18.7893 7.6423C18.5197 8.32383 18.1162 8.94478 17.6026 9.46871C17.089 9.99264 16.4755 10.409 15.7982 10.6933C15.121 10.9776 14.3936 11.1241 13.6587 11.1243C12.9239 11.1245 12.1964 10.9783 11.519 10.6944C10.8416 10.4104 10.2279 9.99435 9.71404 9.47068C9.20013 8.94701 8.79634 8.32625 8.52638 7.64486C8.25642 6.96347 8.12573 6.23518 8.14197 5.50274C8.17385 4.06569 8.76874 2.69819 9.79931 1.69297C10.8299 0.687745 12.2142 0.124688 13.656 0.124329C15.0977 0.123969 16.4824 0.686336 17.5134 1.69104C18.5445 2.69575 19.1401 4.06296 19.1727 5.49999V5.49999Z" fill="#525252"/>
<path d="M26.8981 4.95C26.3465 3.575 22.2089 4.675 21.3814 6.325C20.8297 7.15 20.8297 9.625 18.0714 11.55C15.8647 12.925 13.658 12.925 13.658 12.925C12.8305 14.575 13.3822 15.95 14.2097 17.325C15.5888 19.8 15.8647 22.275 16.1405 25.025C16.4164 28.6 14.7613 31.625 9.79628 33.825C7.58958 34.65 6.2104 36.3 7.03791 39.05C7.03791 39.05 12.5546 38.225 15.5888 35.75C19.7264 32.45 20.5539 29.425 20.5539 29.425C20.5539 29.425 20.8297 31.35 20.5539 34.65C20.2781 37.4 20.0022 38.775 19.4506 40.7C18.8989 42.625 20.2781 44 21.9331 44C23.5881 44 24.6914 42.9 24.6914 41.25L25.519 36.025C26.3465 30.25 25.519 24.2 23.3123 18.7C23.3123 18.425 23.0364 18.425 23.0364 18.15C21.3814 13.75 23.5881 11 24.6914 9.9C25.519 8.8 28.0015 6.6 26.8981 4.95V4.95ZM32.9665 0V27.5H35.7249V11L44 5.5L32.9665 0ZM44 27.5C44 28.2293 43.7094 28.9288 43.1921 29.4445C42.6748 29.9603 41.9732 30.25 41.2416 30.25C40.5101 30.25 39.8085 29.9603 39.2912 29.4445C38.7739 28.9288 38.4833 28.2293 38.4833 27.5C38.4833 26.7707 38.7739 26.0712 39.2912 25.5555C39.8085 25.0397 40.5101 24.75 41.2416 24.75C41.9732 24.75 42.6748 25.0397 43.1921 25.5555C43.7094 26.0712 44 26.7707 44 27.5V27.5ZM2.62453 23.1L12.8305 12.925L10.8996 12.1L0.417835 22C0.417835 22 -0.685511 23.925 0.693672 26.675C2.07285 29.425 5.10706 27.5 5.10706 27.5C6.2104 26.95 5.65873 26.4 5.10706 25.85C4.55538 25.3 2.62453 23.1 2.62453 23.1Z" fill="#525252"/>
</g>
<defs>
<clipPath id="clip0_3391_14187">
<rect width="44" height="44" fill="white"/>
</clipPath>
</defs>
</svg>
