<svg width="44" height="44" viewBox="0 0 44 44" fill="none" xmlns="http://www.w3.org/2000/svg">
<g clip-path="url(#clip0_3391_14187)">
<rect width="44" height="44" fill="white"/>
<path d="M2.74967 0.00245513L0 2.75212L6.04927 11.2239C6.30394 11.5806 6.6402 11.8713 7.03002 12.0717C7.41984 12.2721 7.85193 12.3764 8.29025 12.376H8.48273C8.84425 12.3757 9.20229 12.4467 9.53634 12.5849C9.87039 12.7232 10.1739 12.9259 10.4295 13.1816L17.7849 20.537L10.589 27.8346C9.3582 27.4723 8.05994 27.4018 6.79717 27.6287C5.53441 27.8555 4.34187 28.3735 3.31417 29.1416C2.28647 29.9096 1.45188 30.9065 0.876604 32.0533C0.301326 33.2001 0.00118841 34.4652 0 35.7481C0.00164833 36.9303 0.257379 38.0984 0.749866 39.1731C1.24235 40.2478 1.96009 41.2041 2.85445 41.9772C3.74881 42.7503 4.79889 43.3222 5.93355 43.654C7.06822 43.9859 8.26095 44.0699 9.43094 43.9005C10.6009 43.7311 11.7209 43.3123 12.7148 42.6722C13.7088 42.0322 14.5536 41.1861 15.1919 40.191C15.8303 39.196 16.2474 38.0754 16.4148 36.9052C16.5823 35.7349 16.4963 34.5423 16.1626 33.4082L23.4602 26.2123L26.1219 28.874L25.2832 31.3872C25.1221 31.8716 25.0989 32.3913 25.2165 32.8881C25.334 33.3849 25.5875 33.8392 25.9486 34.2001L34.94 43.1915C35.1948 43.4477 35.4977 43.6511 35.8313 43.7898C36.165 43.9286 36.5227 44 36.8841 44C37.2454 44 37.6031 43.9286 37.9368 43.7898C38.2704 43.6511 38.5733 43.4477 38.8281 43.1915L43.189 38.8305C43.4453 38.5758 43.6486 38.2729 43.7874 37.9392C43.9261 37.6056 43.9975 37.2478 43.9975 36.8865C43.9975 36.5252 43.9261 36.1674 43.7874 35.8338C43.6486 35.5002 43.4453 35.1973 43.189 34.9425L34.1976 25.9511C33.8368 25.59 33.3825 25.3364 32.8857 25.2189C32.3889 25.1014 31.8691 25.1245 31.3847 25.2857L28.8715 26.1243L26.2318 23.4846L33.601 16.2173C34.8234 16.5436 36.1045 16.5848 37.3454 16.3377C38.5863 16.0907 39.7539 15.5619 40.7582 14.7922C41.7624 14.0226 42.5765 13.0326 43.1377 11.8985C43.6988 10.7645 43.992 9.51673 43.9947 8.25146C43.9947 7.5118 43.8985 6.79414 43.7142 6.11497L37.8299 12.002L32.996 11.0011L31.9951 6.16996L37.8822 0.282921C36.4818 -0.0936148 35.0068 -0.0943177 33.606 0.280884C32.2053 0.656085 30.9281 1.39393 29.9034 2.42004C28.8787 3.44616 28.1426 4.72428 27.7693 6.12557C27.396 7.52686 27.3987 9.00179 27.7772 10.4017L20.518 17.7653L13.1792 10.4319C12.6635 9.91641 12.3737 9.21713 12.3735 8.48793V8.29271C12.3736 7.85485 12.269 7.42331 12.0686 7.034C11.8682 6.64469 11.5778 6.30887 11.2214 6.05448L2.74967 0.00245513ZM29.273 29.2754C29.4007 29.1474 29.5524 29.0458 29.7194 28.9765C29.8865 28.9072 30.0655 28.8715 30.2464 28.8715C30.4272 28.8715 30.6063 28.9072 30.7733 28.9765C30.9403 29.0458 31.092 29.1474 31.2197 29.2754L39.2323 37.2907C39.4827 37.55 39.6213 37.8973 39.6182 38.2578C39.615 38.6182 39.4704 38.9631 39.2155 39.218C38.9606 39.4729 38.6158 39.6175 38.2553 39.6206C37.8948 39.6237 37.5476 39.4852 37.2883 39.2347L29.273 31.2222C29.1449 31.0945 29.0434 30.9428 28.974 30.7757C28.9047 30.6087 28.8691 30.4296 28.8691 30.2488C28.8691 30.068 28.9047 29.8889 28.974 29.7219C29.0434 29.5549 29.1449 29.4031 29.273 29.2754ZM8.24901 30.2488L9.5441 30.9142L10.9987 30.9857L11.7878 32.2093L13.0114 32.9985L13.0829 34.4531L13.7483 35.7481L13.0829 37.0432L13.0114 38.4978L11.7878 39.287L10.9987 40.5106L9.5441 40.5821L8.24901 41.2475L6.95391 40.5821L5.49934 40.5106L4.71018 39.287L3.48658 38.4978L3.41509 37.0432L2.74967 35.7481L3.41509 34.4531L3.48658 32.9985L4.71018 32.2093L5.49934 30.9857L6.95391 30.9142L8.24901 30.2488Z" fill="#525252"/>
</g>
<defs>
<clipPath id="clip0_3391_14187">
<rect width="44" height="44" fill="white"/>
</clipPath>
</defs>
</svg>
