<svg width="44" height="44" viewBox="0 0 44 44" fill="none" xmlns="http://www.w3.org/2000/svg">
<rect width="44" height="44" fill="white"/>
<path d="M43.304 19.6825L23.3042 2.48342C22.5538 1.83886 21.4462 1.83886 20.6957 2.48342L0.695977 19.6825C-0.142493 20.403 -0.235896 21.6657 0.484005 22.5031C1.20391 23.3409 2.46833 23.434 3.30386 22.7155L22 6.63748L40.6963 22.7155C41.0734 23.0402 41.5366 23.1986 41.9988 23.1986C42.5614 23.1986 43.1209 22.9627 43.5161 22.5029C44.2359 21.6657 44.1425 20.4028 43.304 19.6825Z" fill="#525252"/>
<path d="M16.3864 42.9998V38.1038L15.2969 42.9998H16.3864Z" fill="#525252"/>
<path d="M27.6094 42.9998H28.6989L27.6094 38.1038V42.9998Z" fill="#525252"/>
<path d="M22.6541 9.44144C22.2798 9.11815 21.7223 9.11815 21.3479 9.44144L6.27628 22.442C6.05659 22.6315 5.92969 22.9079 5.92969 23.1986V41.9994C5.92969 42.5518 6.37741 42.9997 6.93026 42.9997H11.191L13.6459 32.0211C13.7671 31.4931 14.0862 31.0142 14.5949 30.7244C14.7201 30.6533 17.536 29.1026 21.2323 28.8998L21.7308 29.9H21.7479L20.3967 40.4149L21.8768 42.9998H22.1249L23.605 40.4149L22.2538 29.9H22.2663L22.7676 28.8998C26.4621 29.1026 29.2816 30.6533 29.4068 30.7244C29.9157 31.0142 30.2346 31.4931 30.3558 32.0211L32.8107 42.9997H37.0715C37.6243 42.9997 38.072 42.5519 38.072 41.9994V23.1988C38.072 22.908 37.9451 22.6315 37.7254 22.4421L22.6541 9.44144ZM22.0011 28.4486C19.2015 28.4486 16.9297 25.2025 16.9297 22.4029C16.9297 19.6033 19.2015 17.3336 22.0011 17.3336C24.7989 17.3336 27.0696 19.6033 27.0696 22.4029C27.0696 25.2025 24.7989 28.4486 22.0011 28.4486Z" fill="#525252"/>
</svg>
