<svg width="64" height="64" viewBox="0 0 64 64" fill="none" xmlns="http://www.w3.org/2000/svg">
<rect width="64" height="64" fill="white"/>
<path d="M50.8718 27.6679C50.8942 29.0635 52.9765 29.0692 53.0001 27.6679C53.0001 25.3209 54.4321 23.4113 56.1925 23.4113C57.5889 23.3886 57.5933 21.3066 56.1925 21.283C54.4321 21.283 53.0001 19.3735 53.0001 17.0264C52.9777 15.6308 50.8953 15.6251 50.8718 17.0264C50.8718 19.3735 49.4397 21.283 47.6793 21.283C46.283 21.3057 46.2786 23.3877 47.6794 23.4113C49.4397 23.4113 50.8718 25.3209 50.8718 27.6679ZM51.9359 20.8533C52.3007 21.4363 52.7476 21.9424 53.2547 22.3472C52.7476 22.7519 52.3007 23.258 51.9359 23.841C51.5712 23.258 51.1243 22.7519 50.6172 22.3472C51.1243 21.9424 51.5711 21.4363 51.9359 20.8533ZM4.04889 47.8869C5.80932 47.8869 7.24136 49.7965 7.24136 52.1435C7.26377 53.5391 9.34609 53.5448 9.36967 52.1435C9.36967 49.7965 10.8017 47.8869 12.5621 47.8869C13.1503 47.8869 13.6263 47.4104 13.6263 46.8228C13.6263 46.2351 13.1503 45.7586 12.5621 45.7586C10.8017 45.7586 9.36967 43.849 9.36967 41.502C9.34726 40.1064 7.26494 40.1007 7.24136 41.502C7.24136 43.849 5.80932 45.7586 4.04889 45.7586C2.65258 45.7813 2.64816 47.8633 4.04889 47.8869ZM8.30551 45.3289C8.67028 45.9119 9.11715 46.418 9.62428 46.8228C9.11715 47.2275 8.67029 47.7336 8.30551 48.3166C7.94075 47.7336 7.49388 47.2275 6.98675 46.8228C7.49388 46.418 7.94074 45.9119 8.30551 45.3289Z" fill="#525252"/>
<path d="M13.8716 48.9511C13.8716 49.5388 14.3475 50.0153 14.9357 50.0153H20.0601L20.5641 52.3478C21.2282 55.4202 23.3399 58.0224 26.2133 59.3089C27.7378 59.9917 28.8706 61.431 29.2436 63.1582C29.3526 63.719 29.9538 64.1059 30.5084 63.974L44.3611 60.9805C44.9226 60.8705 45.3086 60.2724 45.1769 59.7153C44.6685 57.96 44.8297 55.9753 45.9242 54.606C46.9571 53.2579 47.6111 51.6809 47.8568 50.0153H49.8076C53.3285 50.0153 56.1926 47.1512 56.1926 43.6303V27.668C56.1706 26.2765 54.0888 26.263 54.0643 27.668C54.0643 27.668 54.0643 43.6303 54.0643 43.6303C54.0643 45.9774 52.1552 47.8869 49.8076 47.8869H48.4611L51.7686 35.9173C52.1137 34.6692 51.9141 33.3249 51.223 32.2296C49.1475 28.8249 43.8504 29.7192 42.847 33.6093C42.847 33.6092 41.497 38.495 41.497 38.495L38.4033 24.1798C37.8779 21.4598 34.5857 20.1724 32.4663 21.865L32.0859 20.1077C30.941 15.1972 23.8938 16.6336 24.7792 21.533C24.7792 21.533 25.0037 22.5711 25.0037 22.5711C22.3747 21.9064 19.9072 24.435 20.5528 27.1307C20.5527 27.1307 21.4932 31.4855 21.4932 31.4855C18.8637 30.8211 16.3974 33.3483 17.0413 36.0451C17.0412 36.0451 19.6002 47.887 19.6002 47.887H14.9357C14.3475 47.887 13.8716 48.3634 13.8716 48.9511V48.9511ZM19.1217 35.5956C18.6647 33.4285 21.6615 32.6726 22.2041 34.7747C22.204 34.7757 24.0756 43.4334 24.0756 43.4334C24.1976 44.0114 24.7805 44.3734 25.3404 44.2487C25.9151 44.1245 26.2798 43.5581 26.1561 42.9834L24.2845 34.3257C24.2845 34.3247 22.6332 26.6813 22.6332 26.6813C22.1714 24.522 25.1729 23.7543 25.714 25.8586C25.7145 25.8615 28.8955 40.5792 28.8955 40.5792C29.2174 41.943 31.2482 41.4982 30.976 40.1292C30.4295 37.6035 27.3318 23.2668 26.8597 21.083C26.481 18.9598 29.5267 18.3811 30.0054 20.5572C30.7231 23.8741 33.3278 35.9283 34.0906 39.4568C34.1986 39.9551 34.6393 40.296 35.1298 40.296C35.7977 40.303 36.3205 39.6603 36.1711 39.0069L33.1771 25.1546C33.0836 24.7234 33.1698 24.2848 33.4182 23.92C34.2045 22.7256 36.0544 23.1962 36.3228 24.6294C36.3228 24.6293 40.2198 42.6628 40.2198 42.6628C40.4389 43.817 42.2725 43.722 42.5529 42.6638L44.8984 34.1761C45.8749 30.898 50.4635 32.0943 49.7172 35.3504L46.0561 48.5983C45.922 48.764 45.8389 48.9683 45.8212 49.1855C45.7017 50.6856 45.153 52.1124 44.2343 53.3117C43.0029 54.9198 42.5165 57.0206 42.8792 59.1235L31.029 61.6841C30.3307 59.7574 28.909 58.1845 27.0831 57.3667C24.826 56.3555 23.1663 54.3114 22.6446 51.8978L19.1217 35.5956V35.5956Z" fill="#525252"/>
<path d="M55.1283 0H13.751C10.231 0.00253269 7.36914 2.86551 7.36914 6.38494V38.32C7.39142 39.7031 9.4705 39.7324 9.49745 38.32C9.49745 38.32 9.49745 6.38495 9.49745 6.38495C9.67516 0.762277 17.8292 0.759552 18.0076 6.38501C18.0076 8.73202 16.0985 10.6416 13.751 10.6416C12.3524 10.6662 12.3517 12.7457 13.751 12.7699C13.751 12.7699 54.0642 12.7699 54.0642 12.7699V17.0265C54.0642 17.6142 54.5402 18.0907 55.1283 18.0907C55.7165 18.0907 56.1925 17.6142 56.1925 17.0265V12.6738C63.8081 11.2303 62.9328 0.180119 55.1283 1.0656e-05V0ZM55.1283 10.6416H18.5064C20.6484 8.42466 20.6482 4.34509 18.5064 2.12831H55.1283C60.7511 2.3053 60.7547 10.4635 55.1283 10.6416Z" fill="#525252"/>
</svg>
