<svg width="44" height="44" viewBox="0 0 44 44" fill="none" xmlns="http://www.w3.org/2000/svg">
<rect width="44" height="44" fill="white"/>
<path d="M43.6833 20.6954L38.2386 16.636C38.1345 16.4658 37.968 16.34 37.7707 16.287L21.4969 4.15329C21.4817 4.14226 21.4653 4.13484 21.4497 4.12488C21.4256 4.10917 21.4013 4.09287 21.3757 4.08076C21.3532 4.06973 21.3301 4.06134 21.3065 4.05255C21.2824 4.04308 21.2586 4.03362 21.2335 4.02668C21.2089 4.01995 21.1838 4.01565 21.158 4.01204C21.1333 4.00794 21.1087 4.00316 21.0833 4.00101C21.0588 3.99945 21.0346 4.00004 21.0101 4.00053C20.9837 4.00101 20.9576 4.00101 20.932 4.00414C20.9082 4.00697 20.8851 4.01253 20.862 4.01722C20.8358 4.02307 20.81 4.02854 20.7843 4.03615C20.7608 4.04416 20.7376 4.0546 20.7146 4.06466C20.6916 4.07461 20.6683 4.08408 20.6457 4.09667C20.6211 4.11024 20.5981 4.12771 20.5745 4.14382C20.5591 4.15485 20.543 4.16227 20.5284 4.17427L14.0798 9.44527V7.43058C14.0798 6.99562 13.7275 6.64354 13.2928 6.64354H8.72318C8.28812 6.64354 7.93614 6.99562 7.93614 7.43058V14.4671L0.288991 20.7168C-0.0479622 20.9917 -0.0971582 21.4878 0.177812 21.8247C0.3336 22.015 0.559862 22.1134 0.788077 22.1134C0.962898 22.1134 1.13909 22.0556 1.28541 21.9363L5.25466 18.6922V38.4533C5.25466 38.8885 5.60684 39.2404 6.0417 39.2404H37.5692C38.0043 39.2404 38.3561 38.8885 38.3561 38.4533V18.6868L42.7429 21.9578C42.8838 22.0628 43.0487 22.1135 43.2127 22.1135C43.4524 22.1135 43.6897 22.0038 43.8446 21.7964C44.1034 21.4484 44.0317 20.9551 43.6833 20.6954ZM9.51021 8.21772H12.5057V10.7321L9.51021 13.1804V8.21772V8.21772ZM32.8218 33.1183C32.7675 33.2945 32.6255 33.4294 32.4474 33.4738C32.2689 33.5184 32.0789 33.4662 31.9488 33.3361L29.9386 31.3245L28.2655 32.9981L30.2767 35.0087C30.4074 35.1389 30.4596 35.3274 30.4151 35.5062C30.3705 35.6851 30.2356 35.8276 30.0594 35.8808C29.6632 36.0017 29.2527 36.0632 28.8378 36.0632C27.7257 36.0632 26.6801 35.6298 25.8936 34.8438C25.0251 33.9756 24.5942 32.7992 24.6889 31.5806L15.0885 21.9795C13.8653 22.0725 12.6848 21.6343 11.8243 20.7742C10.7323 19.6836 10.3353 18.0875 10.7877 16.6092C10.8415 16.433 10.9837 16.2982 11.1623 16.2536C11.3411 16.2085 11.5294 16.2616 11.6601 16.3914L13.4835 18.2143L15.1557 16.5421L13.3329 14.719C13.2022 14.5889 13.1504 14.3997 13.1949 14.2209C13.2395 14.0421 13.3742 13.8996 13.55 13.8464C13.9462 13.7248 14.3576 13.6631 14.7726 13.6631C15.885 13.6631 16.9301 14.0964 17.7162 14.8824C18.5852 15.7514 19.0164 16.9289 18.9206 18.1467L28.5211 27.7465C29.7417 27.6554 30.9242 28.0914 31.7841 28.9502C32.8763 30.0418 33.2737 31.6385 32.8218 33.1183Z" fill="#525252"/>
</svg>
