<svg width="44" height="44" viewBox="0 0 44 44" fill="none" xmlns="http://www.w3.org/2000/svg">
<g clip-path="url(#clip0_3391_14187)">
<rect width="44" height="44" fill="white"/>
<path d="M17.5733 31.8052L19.4438 29.228L22.4114 25.1393C23.6014 25.1393 24.7615 25.1393 25.5546 25.1393C25.8073 25.1393 26.0472 25.0268 26.2099 24.8335C26.3726 24.6401 26.442 24.3851 26.3993 24.1361L26.0201 21.9296L27.6796 21.1237L29.0253 28.0716C29.0803 28.3561 29.0054 28.6502 28.8211 28.8738C28.6368 29.0975 28.3621 29.228 28.0723 29.228C27.6959 29.228 27.2444 29.228 26.7389 29.228V41.9031C26.7389 43.0612 25.8001 44 24.642 44C23.484 44 22.5452 43.0613 22.5452 41.9031V29.228C22.2437 29.228 21.9412 29.228 21.6398 29.228V41.9031C21.6398 43.0612 20.701 44 19.5429 44C18.3849 44 17.4461 43.0613 17.4461 41.9031V36.2151C18.1944 34.8434 18.2328 33.1987 17.5733 31.8052Z" fill="#525252"/>
<path d="M22.0934 7.24288C20.0933 7.24288 18.472 5.6215 18.472 3.62144C18.472 1.62137 20.0933 0 22.0934 0C24.0935 0 25.7148 1.62137 25.7148 3.62144C25.7148 5.6215 24.0935 7.24288 22.0934 7.24288Z" fill="#525252"/>
<path d="M19.5564 12.8479C19.0588 16.915 19.2268 15.7423 18.8136 18.1473L17.3559 16.7265C17.6236 15.3446 17.5511 15.7899 17.6689 14.8265C17.3381 15.6481 16.9764 16.515 16.6378 17.3897L20.7613 21.4085C21.4524 22.0821 21.4666 23.1884 20.7931 23.8795C20.1196 24.5705 19.0133 24.5849 18.3221 23.9112L13.3822 19.0965C12.8917 18.6184 12.7257 17.8979 12.9577 17.2535C13.7011 15.1878 14.5396 13.3618 15.0239 11.9523C15.6764 10.0538 16.6845 8.90906 18.0279 8.53419C18.9499 11.1363 19.0302 11.363 19.5564 12.8479Z" fill="#525252"/>
<path d="M15.3947 26.8581L16.1177 23.1249L17.2812 24.2588L15.3947 26.8581Z" fill="#525252"/>
<path d="M10.2719 32.0981L10.3281 32.0208L10.272 32.0981H10.2719Z" fill="#525252"/>
<path d="M12.0289 30.6848C12.7759 30.4161 13.625 30.4085 14.4065 30.7099C14.407 30.71 14.4075 30.7101 14.4078 30.7103L18.444 25.1495C19.1151 25.4473 19.8904 25.465 20.5858 25.1793H20.5859L15.8249 31.7389C16.2164 32.2174 16.489 32.832 16.5657 33.5004C16.6856 34.5412 16.3827 35.2755 15.7865 36.097L10.2763 32.0976C10.6522 31.579 11.086 31.0297 12.0289 30.6848Z" fill="#525252"/>
<path d="M7.68001 35.666L9.47021 33.1995L14.9804 37.1989L14.9805 37.1988L13.1902 39.6654C13.19 39.6656 13.1898 39.6658 13.1896 39.6661C12.6716 40.3766 10.6429 39.2692 9.91258 38.7653C8.57399 37.8393 7.21605 36.3053 7.68001 35.666Z" fill="#525252"/>
<path d="M22.5009 20.4497C22.0793 19.5816 22.4413 18.536 23.3094 18.1145C23.3094 18.1145 27.5932 16.0139 27.602 16.0094C25.6626 12.837 25.8971 13.2327 25.6348 12.7524L24.7642 13.9518L24.6414 12.9485C25.3286 11.0093 25.4098 10.7803 26.2009 8.5479C26.9317 8.7685 27.4495 9.20776 27.8469 9.7045C28.1904 10.1337 28.4415 10.6004 28.6811 11.0391L33.42 4.51006C33.6969 4.12848 34.2448 4.02772 34.6419 4.31533C34.6422 4.31553 34.6425 4.31563 34.6427 4.31582C35.0339 4.59984 35.1209 5.14726 34.8369 5.53846L29.6505 12.6841C30.2219 13.607 30.9214 14.6937 31.5078 15.5854C32.2834 16.765 31.8776 17.839 30.9307 18.2988L24.836 21.2584C23.9675 21.6799 22.9223 21.3174 22.5009 20.4497Z" fill="#525252"/>
<path d="M19.4299 8.39723H24.8125C24.5125 9.24355 23.6314 11.73 23.2958 12.6771C22.3813 12.6771 21.7645 12.6771 20.9465 12.6771C20.6096 11.7263 19.7227 9.22361 19.4299 8.39723Z" fill="#525252"/>
</g>
<defs>
<clipPath id="clip0_3391_14187">
<rect width="44" height="44" fill="white"/>
</clipPath>
</defs>
</svg>
