<svg width="44" height="44" viewBox="0 0 44 44" fill="none" xmlns="http://www.w3.org/2000/svg">
<g clip-path="url(#clip0_3391_14187)">
<rect width="44" height="44" fill="white"/>
<path d="M2 2H42" stroke="#525252" stroke-width="4" stroke-linecap="round" stroke-linejoin="round"/>
<path d="M36 2H8C6.89543 2 6 2.89543 6 4V40C6 41.1046 6.89543 42 8 42H36C37.1046 42 38 41.1046 38 40V4C38 2.89543 37.1046 2 36 2Z" stroke="#525252" stroke-width="4" stroke-linejoin="round"/>
<path d="M18 30H26V42H18V30Z" stroke="#525252" stroke-width="4" stroke-linecap="round" stroke-linejoin="round"/>
<path d="M13 10H15M13 16H15M21 10H23M21 16H23M29 10H31M29 16H31" stroke="#525252" stroke-width="4" stroke-linecap="round"/>
<path d="M2 42H42M26 30H28C28.552 30 29.01 29.548 28.904 29.006C28.352 26.166 25.471 24 22 24C18.53 24 15.648 26.165 15.096 29.006C14.99 29.548 15.448 30 16 30H18" stroke="#525252" stroke-width="4" stroke-linecap="round" stroke-linejoin="round"/>
</g>
<defs>
<clipPath id="clip0_3391_14187">
<rect width="44" height="44" fill="white"/>
</clipPath>
</defs>
</svg>
