<svg width="44" height="44" viewBox="0 0 44 44" fill="none" xmlns="http://www.w3.org/2000/svg">
<path d="M18.7374 20.0264C19.7901 17.5062 21.4117 15.1875 23.6232 13.2436C23.2253 9.5052 21.5967 5.86858 18.7281 3.00925L18.7189 3C15.8688 5.85933 14.2402 9.4867 13.833 13.2251C15.9521 15.0666 17.6454 17.3984 18.7374 20.0264Z" fill="#525252"/>
<path d="M27.8243 21.1C28.9995 21.1 30.1562 21.2758 31.2481 21.6182C34.0519 18.5738 35.7638 14.5207 35.7638 10.0698V10.0605C27.0132 10.0605 19.7607 16.6649 18.8392 25.2178C21.1156 22.6083 24.3265 21.1 27.8243 21.1ZM18.6264 24.9679C17.59 16.5751 10.4093 10.0605 1.72949 10.0605C1.72949 14.5577 3.4784 18.6478 6.32848 21.7014C10.6967 20.2181 15.7846 21.6526 18.6264 24.9679Z" fill="#525252"/>
<path d="M17.525 36.0166C14.786 38.8019 10.1592 39.3571 6.51335 37.3491C1.23886 34.2214 2.58062 26.3189 8.79896 25.4306C13.8236 24.7088 17.8951 28.8636 15.4985 33.0925C14.2493 35.304 10.7144 36.0721 8.15122 34.4157C6.21724 33.0832 6.26351 30.0296 8.33629 28.9099C9.2894 28.3917 10.2425 28.8266 10.4553 29.6224C10.5849 30.1036 10.6126 30.7976 10.6867 31.325L10.2703 31.3713C10.1962 30.8531 10.1685 30.1498 10.0482 29.7057C9.90013 29.1505 9.25238 28.8544 8.55837 29.2245C6.73543 30.2146 6.69842 32.9444 8.40106 34.1196C10.7514 35.6372 13.9902 34.9246 15.1283 32.9259C17.3584 28.9747 13.5738 25.1345 8.87299 25.8007C3.05255 26.6335 1.7478 34.0826 6.73543 37.0344C10.2425 38.9592 14.749 38.4132 17.3399 35.6372C16.1 32.9351 16.0815 30.0203 17.3029 27.4201L17.3492 27.3275C17.5343 26.9944 17.7378 26.6705 17.9599 26.3652C15.9519 23.6261 12.0932 21.979 8.10495 22.6638C1.4702 23.987 -2.35149 30.5292 1.59975 36.47C3.39492 39.172 6.43007 40.9764 9.71506 41.3003C13.4442 41.726 16.248 40.1806 19.0796 38.3577C18.7742 38.0061 18.4874 37.6267 18.2283 37.238C17.9599 36.8401 17.7286 36.433 17.525 36.0166ZM31.8216 34.5545C30.1838 35.5446 27.7964 35.6187 25.9364 34.4157C24.0024 33.0832 24.0487 30.0296 26.1307 28.9099C27.0746 28.4009 28.0277 28.8173 28.2405 29.6224C28.3701 30.1128 28.3979 30.7698 28.4719 31.325L28.0555 31.3713C27.9814 30.8531 27.9537 30.1591 27.8333 29.7057C27.6852 29.1505 27.0375 28.8544 26.3435 29.2245C24.5205 30.2146 24.4928 32.9444 26.1954 34.1196C28.0461 35.3133 30.4428 35.1282 31.9326 34.0178C32.0992 33.4163 32.5803 32.7316 33.3391 31.9728C33.4317 31.6952 33.4964 31.4176 33.5335 31.1492V31.103C33.5427 30.8994 33.552 30.6958 33.5705 30.5015C33.5242 27.5589 30.3688 25.2733 26.6581 25.8007C20.8377 26.6335 19.5422 34.0826 24.5298 37.0344C26.8247 38.3022 29.0918 38.5058 31.0628 38.0061L30.8777 36.7846H32.46C31.9697 36.2016 31.7291 35.3966 31.8216 34.5545Z" fill="#525252"/>
<path d="M24.2986 37.349C18.9963 34.2121 20.3936 26.3189 26.5934 25.4305C29.8599 24.9587 32.7192 26.5502 33.6631 28.8821C33.7741 26.6427 33.3762 25.4028 33.0709 24.4774C32.9968 24.2368 32.9228 24.024 32.8673 23.8204C28.3331 21.2017 21.7446 22.3769 18.5614 28.0122C17.3029 30.6865 17.599 33.7772 19.385 36.4699C21.18 39.172 24.2153 40.9764 27.5095 41.3003C28.9716 41.4668 30.2948 41.328 31.5255 40.9856L31.1184 38.3762C29.0548 38.8851 26.686 38.6723 24.2986 37.349ZM39.3901 19.5684C40.6418 19.5684 41.6662 18.3572 41.6662 16.82C41.6662 15.2826 39.3901 12.3477 39.3901 12.3477C39.3901 12.3477 37.1517 15.2825 37.1517 16.82C37.1517 18.3571 38.1761 19.5684 39.3901 19.5684ZM39.3955 13.7703C39.3955 13.7703 41.0143 15.8577 41.0143 16.9511C41.0143 18.0443 40.2858 18.9058 39.3955 18.9058C38.5321 18.9058 37.8036 18.0443 37.8036 16.9511C37.8036 15.8577 39.3955 13.7703 39.3955 13.7703Z" fill="#525252"/>
<path d="M39.3922 18.2906C39.8079 18.2906 40.2532 17.7774 40.2532 17.0128C40.2532 16.6493 39.8863 15.8874 39.4006 15.0977C38.9238 15.8869 38.5647 16.6481 38.5647 17.0128C38.5648 17.7442 39.0018 18.2906 39.3922 18.2906ZM34.2091 23.4592C35.3831 27.8424 35.1093 26.5005 34.8661 32.4351C34.4497 32.8052 33.3856 33.7954 33.2375 34.4801C33.0432 35.3222 33.4503 36.118 34.1351 36.2938C34.3479 36.3401 34.5515 36.3123 34.7458 36.2475C34.7458 36.4326 34.7366 36.6177 34.7366 36.7842H41.7045C41.6304 35.3592 41.5564 33.1476 41.7045 30.9638C42.5348 31.1712 43.3306 30.2713 43.074 29.1594C42.9814 28.7337 42.5373 28.197 42.1209 27.7621C42.3522 26.6332 42.6946 25.6338 43.185 24.9398C43.185 24.9398 44.4065 22.6079 42.4077 22.4413C41.6132 22.3754 40.7312 22.3491 39.862 22.3041C39.8713 21.6441 39.9018 20.9931 39.9648 20.4333C39.7797 20.4796 39.5854 20.4981 39.3911 20.4981C39.1783 20.4981 38.9654 20.4703 38.7618 20.4241C38.7036 21.043 38.6802 21.6753 38.6726 22.2204C37.7858 22.1395 36.9638 22.008 36.3373 21.7472C34.8384 21.1273 33.9223 22.4321 34.2091 23.4592Z" fill="#525252"/>
<path d="M32.4941 38.1748L33.0466 41.7522H43.454L43.9999 38.1748H32.4941Z" fill="#525252"/>
</svg>
