<svg width="44" height="44" viewBox="0 0 44 44" fill="none" xmlns="http://www.w3.org/2000/svg">
<rect width="44" height="44" fill="white"/>
<path d="M22.1586 0C20.4819 0 18.7956 0.191894 17.4969 0.550485C16.1982 0.908106 15.3648 1.48476 15.1903 1.84432C12.3797 7.46256 12.1956 14.4987 12.1859 19.1894H32.1313C32.1216 14.4987 31.9374 7.46256 29.1269 1.84432C28.9524 1.48476 28.1189 0.908106 26.8203 0.550485C25.5216 0.191894 23.8352 0 22.1586 0ZM2 13.3744V15.1189H6.65198V13.3744H2ZM37.6652 13.3744V15.1189H42.3172V13.3744H37.6652ZM4.22907 16.9604V23.6282L7.25286 25.6441C7.40793 25.0626 7.65991 24.5198 7.96035 24.0256L5.97357 22.6978V16.9604H4.22907ZM38.3436 16.9604V22.6978L36.3568 24.0256C36.6573 24.5198 36.9093 25.0626 37.0643 25.6441L40.0881 23.6282V16.9604H38.3436ZM19.9295 20.9339V22.2907H24.3877V20.9339H19.9295ZM10.1507 24.0352C9.54978 24.704 8.99736 25.6247 8.87137 26.4097C8.72599 27.2529 8.85198 27.8731 9.97621 28.4934H34.341C35.4652 27.8731 35.5912 27.2529 35.4458 26.4097C35.3198 25.6247 34.7674 24.704 34.1665 24.0352H10.1507ZM21.2863 30.2379V33.3392L9.54009 36.2758L9.96652 37.9621L21.2863 35.1322V37.8943C21.5674 37.8361 21.8582 37.7974 22.1586 37.7974C22.459 37.7974 22.7498 37.8361 23.0308 37.8943V35.1322L34.3507 37.9621L34.7771 36.2758L23.0308 33.3392V30.2379H21.2863ZM9.7533 39.5419C8.51278 39.5419 7.52423 40.5304 7.52423 41.7709C7.52423 43.0115 8.51278 44 9.7533 44C10.9938 44 11.9824 43.0115 11.9824 41.7709C11.9824 40.5304 10.9938 39.5419 9.7533 39.5419ZM22.1586 39.5419C20.9181 39.5419 19.9295 40.5304 19.9295 41.7709C19.9295 43.0115 20.9181 44 22.1586 44C23.3991 44 24.3877 43.0115 24.3877 41.7709C24.3877 40.5304 23.3991 39.5419 22.1586 39.5419ZM34.5639 39.5419C33.3233 39.5419 32.3348 40.5304 32.3348 41.7709C32.3348 43.0115 33.3233 44 34.5639 44C35.8044 44 36.793 43.0115 36.793 41.7709C36.793 40.5304 35.8044 39.5419 34.5639 39.5419Z" fill="#525252"/>
</svg>
