<svg width="44" height="44" viewBox="0 0 44 44" fill="none" xmlns="http://www.w3.org/2000/svg">
<path fill-rule="evenodd" clip-rule="evenodd" d="M4.00131 20.1111V18.123C4.00131 17.1509 4.78927 16.363 5.76131 16.363H7.11273C8.08478 16.363 8.87273 17.1509 8.87273 18.123V20.1111H16.9189V18.123C16.9189 17.1509 17.7069 16.363 18.6789 16.363H20.0303C21.0024 16.363 21.7903 17.1509 21.7903 18.123V20.1111H21.8042C22.7763 20.1111 23.5642 20.899 23.5642 21.8711V24.6754C23.5642 25.6474 22.7763 26.4354 21.8042 26.4354H21.7903V29.9154H24.0316C25.0037 29.9154 25.7916 30.7034 25.7916 31.6754V35.3656C25.7916 36.3376 25.0037 37.1256 24.0316 37.1256H23.5719V39.2264C23.5719 40.1984 22.7839 40.9864 21.8119 40.9864H20.4604C19.4884 40.9864 18.7004 40.1984 18.7004 39.2264V37.1256H7.09118V39.2264C7.09118 40.1984 6.30322 40.9864 5.33118 40.9864H3.97976C3.00771 40.9864 2.21975 40.1984 2.21975 39.2264V37.1256H1.76C0.787959 37.1256 0 36.3376 0 35.3656V31.6754C0 30.7034 0.787959 29.9154 1.76 29.9154H4.00131V26.4354H3.98694C3.01535 26.4354 2.22694 25.6474 2.22694 24.6754V21.8711C2.22694 20.899 3.01535 20.1111 3.98694 20.1111H4.00131ZM36.6973 33.9316V39.0261C36.6973 39.9982 35.9094 40.7861 34.9373 40.7861H33.5868C32.6148 40.7861 31.8268 39.9982 31.8268 39.0261V33.9316C27.6895 32.6412 24.5242 28.1491 24.5242 22.672C24.5242 19.4367 25.6318 16.5215 27.3788 14.4346C27.1184 13.5497 26.9751 12.5951 26.9751 11.5998C26.9751 6.7611 30.3519 3 34.2621 3C38.1722 3 41.549 6.7611 41.549 11.5998C41.549 12.5951 41.4058 13.5497 41.1449 14.4346C42.8924 16.5215 44 19.4367 44 22.672C44 28.1491 40.8347 32.6412 36.6973 33.9316ZM5.33118 37.1256H3.97976V39.2264H5.33118V37.1256ZM21.8119 37.1256H20.4604V39.2264H21.8119V37.1256ZM34.9373 39.0261V25.6043L39.0361 23.3913L38.3945 22.2024L34.9373 24.0693V20.1331H33.5868V39.0261H34.9373ZM24.0316 31.6754H1.76V35.3656H24.0316V31.6754ZM36.6973 32.0755C39.9111 30.7999 42.24 27.0698 42.24 22.672C42.24 19.4879 41.0192 16.6539 39.1259 14.8486C39.5488 13.8815 39.789 12.7752 39.789 11.5998C39.789 7.82473 37.3124 4.76 34.2621 4.76C31.2117 4.76 28.7351 7.82473 28.7351 11.5998C28.7351 12.7752 28.9753 13.8815 29.3983 14.8486C27.5049 16.6539 26.2842 19.4879 26.2842 22.672C26.2842 27.0698 28.6126 30.7999 31.8268 32.0755V20.1331C31.8268 19.161 32.6148 18.3731 33.5868 18.3731H34.9373C35.9094 18.3731 36.6973 19.161 36.6973 20.1331V21.1186L37.558 20.6539C38.4133 20.1919 39.4815 20.5111 39.943 21.3664L40.5846 22.5549C41.0466 23.4102 40.7274 24.4778 39.8721 24.9398L36.6973 26.654V32.0755ZM5.76131 26.4354V29.9154H7.11273V26.4354H5.76131ZM8.87273 26.4354V29.9154H16.9189V26.4354H8.87273ZM18.6789 26.4354V29.9154H20.0303V26.4354H18.6789ZM21.8042 21.8711H3.98694V24.6754H21.8042V21.8711ZM7.11273 20.1111V18.123H5.76131V20.1111H7.11273ZM20.0303 20.1111V18.123H18.6789V20.1111H20.0303Z" fill="#525252"/>
</svg>
