<svg width="44" height="44" viewBox="0 0 44 44" fill="none" xmlns="http://www.w3.org/2000/svg">
<g clip-path="url(#clip0_3391_14187)">
<rect width="44" height="44" fill="white"/>
<path d="M0 43.9524H8.38095V20.9048H0V43.9524ZM39.8095 33.4762H25.1429L20.7638 31.9467L21.4552 29.9771L25.1429 31.381H31.0514C32.4133 31.381 33.5238 30.2705 33.5238 28.9086C33.5238 27.8819 32.8743 26.96 31.9105 26.5829L16.699 20.9048H12.5714V39.8038L27.2381 43.9524L44 37.6667C43.9791 35.3619 42.1352 33.4762 39.8095 33.4762ZM27.2381 1L12.5714 11.4762V16.7143H16.7619L33.8171 23.5448C36.1638 24.4876 37.7143 26.7505 37.7143 29.2857H41.9048V11.4762L27.2381 1ZM26.1905 18.8095H24.0952V16.7143H26.1905V18.8095ZM26.1905 14.619H24.0952V12.5238H26.1905V14.619ZM30.381 18.8095H28.2857V16.7143H30.381V18.8095ZM30.381 14.619H28.2857V12.5238H30.381V14.619Z" fill="#525252"/>
</g>
<defs>
<clipPath id="clip0_3391_14187">
<rect width="44" height="44" fill="white"/>
</clipPath>
</defs>
</svg>
