<svg width="44" height="44" viewBox="0 0 44 44" fill="none" xmlns="http://www.w3.org/2000/svg">
<g clip-path="url(#clip0_3391_14187)">
<rect width="44" height="44" fill="white"/>
<path d="M8.01268 26.2073H5.71094V28.8495H7.94428C8.78847 28.8495 9.6325 28.6318 9.6325 27.5288C9.6325 26.4799 8.9938 26.2073 8.01268 26.2073Z" fill="#525252"/>
<path d="M42.952 18.2442H38.1171L24.4889 6.39495C24.5653 6.14762 24.6192 5.89026 24.6192 5.61916C24.6192 4.17256 23.4466 3 22 3C20.5534 3 19.3808 4.17256 19.3808 5.61916C19.3808 5.89026 19.4349 6.14762 19.5111 6.39495L5.88288 18.2442H1.04797C0.469333 18.2442 0 18.7136 0 19.2922V40.2442C0 40.8229 0.469333 41.2922 1.04797 41.2922H42.952C43.5307 41.2922 44 40.8229 44 40.2442V19.2922C44 18.7136 43.5307 18.2442 42.952 18.2442ZM20.8824 7.97957C21.2228 8.13997 21.598 8.23832 22 8.23832C22.402 8.23832 22.7773 8.13997 23.1176 7.97957L34.9253 18.2442H9.0745L20.8824 7.97957ZM11.528 31.5866C11.528 32.7176 11.8264 33.1402 11.8264 33.6022C11.8264 34.1197 11.296 34.4745 10.7785 34.4745C9.55294 34.4745 9.45691 33.2901 9.45691 32.8942C9.45691 31.1778 9.14474 30.4836 7.91861 30.4836H5.71197V33.3577C5.71197 34.0251 5.2766 34.4744 4.5953 34.4744C3.91399 34.4744 3.47862 34.0251 3.47862 33.3577V25.7986C3.47862 24.8047 3.99566 24.491 4.78627 24.491H8.50404C11.159 24.491 11.867 25.9485 11.867 27.2153C11.867 28.277 11.2412 29.3259 10.1793 29.5718V29.5985C11.3233 29.7613 11.528 30.5925 11.528 31.5866ZM20.2842 34.2979H14.9317C14.1416 34.2979 13.6241 33.9842 13.6241 32.9902V25.7986C13.6241 24.8047 14.1416 24.491 14.9317 24.491H20.1753C20.8284 24.491 21.3059 24.682 21.3059 25.39C21.3059 26.0985 20.8285 26.289 20.1753 26.289H15.8574V28.4141H19.6435C20.2301 28.4141 20.6924 28.5768 20.6924 29.272C20.6924 29.9661 20.2301 30.1304 19.6435 30.1304H15.8574V32.4999H20.2842C20.9388 32.4999 21.4152 32.6904 21.4152 33.3989C21.4152 34.1069 20.9386 34.2979 20.2842 34.2979ZM31.4665 33.0847C31.4665 33.9698 31.0845 34.4745 30.1445 34.4745C29.4365 34.4745 29.2044 34.3246 28.919 33.8753L25.0369 27.7465H25.0098V33.3988C25.0098 34.1196 24.6016 34.4744 23.9341 34.4744C23.2667 34.4744 22.8585 34.1196 22.8585 33.3988V25.6219C22.8585 24.6957 23.3078 24.3142 24.2608 24.3142C24.7244 24.3142 25.1331 24.491 25.3775 24.8997L29.2867 31.206H29.3134V25.39C29.3134 24.6676 29.7221 24.3144 30.3906 24.3144C31.058 24.3144 31.4666 24.6678 31.4666 25.39V33.0847H31.4665V33.0847ZM40.2364 26.3711H38.1258V33.3578C38.1258 34.0252 37.6889 34.4745 37.0091 34.4745C36.3273 34.4745 35.892 34.0252 35.892 33.3578V26.3711H33.7803C33.141 26.3711 32.6221 26.043 32.6221 25.431C32.6221 24.8175 33.141 24.491 33.7803 24.491H40.2365C40.8768 24.491 41.3944 24.8175 41.3944 25.431C41.3943 26.043 40.8768 26.3711 40.2364 26.3711Z" fill="#525252"/>
</g>
<defs>
<clipPath id="clip0_3391_14187">
<rect width="44" height="44" fill="white"/>
</clipPath>
</defs>
</svg>
