<svg width="44" height="44" viewBox="0 0 44 44" fill="none" xmlns="http://www.w3.org/2000/svg">
<g clip-path="url(#clip0_3404_23381)">
<path d="M35.581 3.64469H43.5219C43.659 3.63294 43.786 3.56768 43.8753 3.46302C43.9647 3.35836 44.0092 3.22273 43.9993 3.08549C43.9993 2.33341 43.327 1.6069 42.27 1.26667C38.9992 0.2112 35.1472 -0.301445 31.9879 0.184595C30.3594 0.43529 29.2303 1.32705 29.2303 4.93398V39.0653C29.2303 42.6722 30.3594 43.5645 31.9879 43.8146C35.1472 44.3007 38.9992 43.7891 42.271 42.7331C43.327 42.3934 43.9993 41.6669 43.9993 40.9148C44.0092 40.7776 43.9647 40.6421 43.8755 40.5374C43.7863 40.4328 43.6594 40.3674 43.5224 40.3556H35.5805C35.333 40.33 35.1052 40.209 34.9454 40.0183C34.7856 39.8275 34.7064 39.582 34.7246 39.3339V39.3083C34.7079 39.0684 34.7852 38.8315 34.9401 38.6476C35.095 38.4637 35.3153 38.3473 35.5544 38.3229C38.0357 38.3008 40.5113 38.0807 42.9576 37.665C43.5357 37.5422 43.9988 37.3002 43.9988 37.1723C43.9988 37.0444 43.5357 36.8024 42.9576 36.6796C40.5197 36.2654 38.0527 36.0456 35.58 36.0221C35.3326 35.9965 35.1049 35.8754 34.9452 35.6847C34.7855 35.494 34.7064 35.2485 34.7246 35.0004V34.9749C34.7079 34.735 34.7852 34.4981 34.9401 34.3142C35.095 34.1303 35.3153 34.0139 35.5544 33.9895C38.0357 33.9673 40.5113 33.7473 42.9576 33.3315C43.5357 33.2087 43.9988 32.9667 43.9988 32.8388C43.9988 32.7109 43.5357 32.4689 42.9576 32.3461C40.5197 31.9319 38.0527 31.7121 35.58 31.6887C35.3326 31.663 35.1049 31.542 34.9452 31.3513C34.7855 31.1605 34.7064 30.9151 34.7246 30.667V30.6414C34.7079 30.4016 34.7852 30.1647 34.9401 29.9808C35.095 29.7969 35.3153 29.6804 35.5544 29.656C38.0357 29.6338 40.5113 29.4138 42.9576 28.9981C43.5357 28.8753 43.9988 28.6333 43.9988 28.5054C43.9988 28.3775 43.5357 28.1355 42.9576 28.0127C40.5197 27.5985 38.0527 27.3786 35.58 27.3553C35.3326 27.3296 35.1049 27.2086 34.9452 27.0178C34.7855 26.8271 34.7064 26.5817 34.7246 26.3336V26.308C34.7079 26.0681 34.7852 25.8312 34.9401 25.6473C35.095 25.4635 35.3153 25.347 35.5544 25.3226C38.0357 25.3004 40.5113 25.0804 42.9576 24.6647C43.5357 24.5419 43.9988 24.2999 43.9988 24.172C43.9988 24.0441 43.5357 23.8021 42.9576 23.6793C40.5197 23.265 38.0528 23.0452 35.58 23.0218C35.3399 22.9794 35.1224 22.8537 34.9657 22.6669C34.8091 22.48 34.7232 22.244 34.7232 22.0001C34.7232 21.7563 34.8091 21.5202 34.9657 21.3334C35.1224 21.1466 35.3399 21.0209 35.58 20.9784C38.0527 20.955 40.5197 20.7352 42.9576 20.321C43.5357 20.1982 43.9988 19.9562 43.9988 19.8283C43.9988 19.7004 43.5357 19.4584 42.9576 19.3356C40.5113 18.9199 38.0357 18.6999 35.5544 18.6777C35.3152 18.6533 35.0948 18.5367 34.9399 18.3527C34.785 18.1687 34.7078 17.9317 34.7246 17.6918V17.6662C34.7065 17.4181 34.7858 17.1727 34.9456 16.9821C35.1054 16.7914 35.3331 16.6705 35.5805 16.645C38.0531 16.6216 40.5199 16.4017 42.9576 15.9876C43.5357 15.8648 43.9988 15.6228 43.9988 15.4949C43.9988 15.367 43.5357 15.125 42.9576 15.0022C40.5113 14.5865 38.0357 14.3665 35.5544 14.3442C35.3152 14.3198 35.0948 14.2033 34.9399 14.0193C34.785 13.8353 34.7078 13.5983 34.7246 13.3583V13.3328C34.7065 13.0847 34.7858 12.8393 34.9456 12.6487C35.1054 12.458 35.3331 12.3371 35.5805 12.3116C38.0531 12.2881 40.5199 12.0683 42.9576 11.6541C43.5357 11.5313 43.9988 11.2893 43.9988 11.1614C43.9988 11.0335 43.5357 10.7915 42.9576 10.6687C40.5113 10.253 38.0357 10.033 35.5544 10.0108C35.3152 9.9864 35.0948 9.86987 34.9399 9.68587C34.785 9.50187 34.7078 9.26483 34.7246 9.0249V8.99932C34.7065 8.75123 34.7858 8.50586 34.9456 8.31522C35.1054 8.12458 35.3331 8.00367 35.5805 7.97812C38.0531 7.95468 40.5199 7.73485 42.9576 7.32069C43.5357 7.1979 43.9988 6.9559 43.9988 6.828C43.9988 6.70009 43.5357 6.4581 42.9576 6.33531C40.5113 5.91956 38.0357 5.69954 35.5544 5.67736C35.3152 5.65297 35.0948 5.53644 34.9399 5.35244C34.785 5.16843 34.7078 4.93139 34.7246 4.69147V4.66589C34.7065 4.4178 34.7858 4.17242 34.9456 3.98179C35.1054 3.79115 35.3331 3.67024 35.5805 3.64469H35.581ZM17.7817 30.1262C17.3541 30.236 16.9548 30.4356 16.6101 30.7115L14.3283 22.8356L14.3309 22.8305C14.6185 22.2919 14.809 21.7069 14.8936 21.1022C15.4447 17.1515 17.5116 1.72969 16.3973 0.000411644L12.0546 14.9899L7.71149 0.000411644C6.59821 1.72969 8.66516 17.1515 9.21668 21.1022C9.30124 21.7071 9.49175 22.2923 9.77947 22.831L9.78203 22.8356L7.5002 30.7115C7.15553 30.4357 6.75616 30.2364 6.32858 30.1267C3.6968 29.434 0.950418 31.9542 0.194241 35.7561C-0.561935 39.558 0.956557 43.2012 3.58783 43.8939C6.2191 44.5867 7.95963 41.8014 8.71632 38.0001C9.08579 36.3959 9.12893 34.7338 8.8432 33.1125L12.0552 27.0949L15.2666 33.1125C14.9809 34.7336 15.0241 36.3955 15.3935 37.9996C16.1502 41.8009 17.8902 44.5867 20.5215 43.8934C23.1527 43.2002 24.6723 39.5574 23.9156 35.7561C23.1589 31.9547 20.4125 29.434 17.7812 30.1267L17.7817 30.1262ZM6.47337 37.601C6.26481 38.9412 5.78314 40.2243 5.05823 41.3706C4.43712 42.2076 3.91219 42.2041 3.47987 42.09C1.89743 41.6735 1.01744 39.0254 1.55822 36.3071C2.09901 33.5889 3.89326 31.6442 5.47571 32.0607C5.90803 32.1747 6.3823 32.4341 6.62481 33.4983C6.84445 34.8627 6.79299 36.257 6.47337 37.6015V37.601ZM11.9938 21.7668C11.7876 21.7668 11.5862 21.7057 11.4148 21.5912C11.2434 21.4767 11.1098 21.3139 11.0309 21.1235C10.952 20.9331 10.9314 20.7235 10.9716 20.5213C11.0118 20.3192 11.1111 20.1335 11.2568 19.9877C11.4026 19.842 11.5883 19.7427 11.7904 19.7025C11.9926 19.6623 12.2022 19.6829 12.3926 19.7618C12.583 19.8407 12.7458 19.9743 12.8603 20.1457C12.9748 20.317 13.0359 20.5185 13.0359 20.7247C13.0359 21.0011 12.9261 21.2661 12.7307 21.4616C12.5352 21.657 12.2702 21.7668 11.9938 21.7668ZM20.6299 42.09C20.1981 42.2041 19.6732 42.2076 19.0521 41.3706C18.3272 40.2243 17.8455 38.9412 17.6369 37.601C17.3172 36.2567 17.2656 34.8626 17.485 33.4983C17.728 32.4341 18.2023 32.1747 18.6341 32.0607C20.2165 31.6442 22.0108 33.5889 22.5516 36.3071C23.0924 39.0254 22.2129 41.674 20.6304 42.09H20.6299Z" fill="#525252"/>
</g>
<defs>
<clipPath id="clip0_3404_23381">
<rect width="44" height="44" fill="white"/>
</clipPath>
</defs>
</svg>
