<svg width="44" height="44" viewBox="0 0 44 44" fill="none" xmlns="http://www.w3.org/2000/svg">
<g clip-path="url(#clip0_3391_14187)">
<rect width="44" height="44" fill="white"/>
<path d="M35.3785 30.8712H43.8141V33.4059H36.8014C39.3695 35.3933 41.2831 38.1014 42.2964 41.1822L39.8911 42C38.8853 38.8984 36.7925 36.2623 33.9963 34.5752C33.0259 35.4534 31.7949 35.9921 30.49 36.1095L25.2288 40.6583H18.7344L13.5342 36.0554C12.1793 35.9374 10.8903 35.4198 9.83133 34.5684C7.03008 36.2554 4.93332 38.8943 3.92643 42L1.52111 41.1822C2.53528 38.1019 4.44875 35.394 7.01608 33.4059H0V30.8712H8.44911L11.3728 28.5833L7.93756 22.9902C7.63489 23.041 7.32944 23.0737 7.02286 23.0882C6.09774 23.1032 5.17917 22.931 4.32268 22.5818C3.46619 22.2327 2.68957 21.7139 2.03978 21.0568C1.38998 20.3998 0.880496 19.6181 0.542129 18.759C0.203762 17.9 0.0435382 16.9814 0.0711434 16.0588C0.0711434 9.0294 6.77555 2 6.77555 2L4.27876 17.0287L10.1261 17.0253L13.5511 6.86313V16.9882C13.4146 18.8257 12.565 20.5376 11.183 21.7601L14.0762 26.4711L14.3608 26.2481C16.577 24.6781 19.2278 23.8346 21.946 23.8346C24.6642 23.8346 27.315 24.6781 29.5312 26.2481L29.7345 26.4069L32.6819 21.6249C31.4075 20.4001 30.6317 18.7488 30.5035 16.9882V6.86313L33.8337 17.0253L39.7793 17.0287L37.2825 2C37.2825 2 43.9971 9.0294 43.9971 16.0588C44.0242 16.9824 43.8633 17.9019 43.5239 18.7617C43.1845 19.6214 42.6738 20.4036 42.0227 21.0607C41.3715 21.7179 40.5934 22.2364 39.7356 22.5849C38.8777 22.9334 37.9579 23.1046 37.0318 23.0882C36.6407 23.0756 36.2512 23.0338 35.8664 22.9632L32.4447 28.5259L35.2905 30.753C35.3345 30.7867 35.3379 30.8341 35.3752 30.8712H35.3785Z" fill="#525252"/>
</g>
<defs>
<clipPath id="clip0_3391_14187">
<rect width="44" height="44" fill="white"/>
</clipPath>
</defs>
</svg>
