<svg width="44" height="44" viewBox="0 0 44 44" fill="none" xmlns="http://www.w3.org/2000/svg">
<path d="M42.4286 19.7236H40.8571C36.824 19.7236 32.8812 20.9174 29.5254 23.1546C26.1697 25.3918 23.5512 28.5722 22 32.2951C20.4488 28.5722 17.8303 25.3918 14.4746 23.1546C11.1188 20.9174 7.17597 19.7236 3.14286 19.7236H1.57143C1.15466 19.7236 0.754961 19.8892 0.460261 20.1839C0.165561 20.4786 0 20.8783 0 21.2951C0 26.7131 2.15229 31.9091 5.98339 35.7402C9.81449 39.5713 15.0106 41.7236 20.4286 41.7236H23.5714C26.2541 41.7236 28.9106 41.1952 31.3891 40.1686C33.8676 39.142 36.1196 37.6372 38.0166 35.7402C39.9136 33.8433 41.4183 31.5912 42.445 29.1127C43.4716 26.6342 44 23.9778 44 21.2951C44 20.8783 43.8344 20.4786 43.5397 20.1839C43.245 19.8892 42.8453 19.7236 42.4286 19.7236Z" fill="#525252"/>
<path d="M30.6271 20.682C29.3588 21.3345 28.1631 22.1193 27.06 23.0234C25.0404 24.6384 23.3266 26.6023 22 28.822C20.6733 26.6023 18.9596 24.6384 16.94 23.0234C15.8368 22.1193 14.6411 21.3345 13.3728 20.682C13.0271 15.2448 15.5257 9.8234 20.8842 4.46483C21.0303 4.31754 21.2041 4.20063 21.3956 4.12085C21.5871 4.04107 21.7925 4 22 4C22.2074 4 22.4128 4.04107 22.6043 4.12085C22.7958 4.20063 22.9696 4.31754 23.1157 4.46483C28.4742 9.8234 30.9728 15.2448 30.6271 20.682Z" fill="#525252"/>
</svg>
