<svg width="44" height="44" viewBox="0 0 44 44" fill="none" xmlns="http://www.w3.org/2000/svg">
<rect width="44" height="44" fill="white"/>
<path d="M22.1852 0C13.6052 0 6.78518 7.48 7.00518 16.06C7.22518 21.78 10.5252 26.62 15.1452 29.04C18.2252 30.58 20.2052 33.66 20.2052 36.96V37.4C20.2052 41.14 23.0652 44 26.8052 44C35.6052 44 37.8052 33 37.8052 15.4C37.8052 15.4 37.8052 0 22.1852 0ZM26.8052 39.6C25.4852 39.6 24.6052 38.72 24.6052 37.4V36.96C24.6052 32.12 21.7452 27.5 17.3452 25.08C13.8252 23.32 11.6252 19.8 11.4052 15.84C11.4052 12.98 12.5052 9.9 14.4852 7.7C16.4652 5.5 19.3252 4.4 21.9652 4.4C32.7452 4.4 33.4052 13.64 33.4052 15.4C33.4052 37.18 29.6652 39.6 26.8052 39.6ZM30.7652 12.32L14.2652 18.26C13.8252 17.6 13.6052 16.72 13.6052 15.62C13.6052 14.08 14.0452 12.76 14.7052 11.22L26.1452 7.04C28.7852 8.36 30.1052 10.34 30.7652 12.32M24.3852 28.82L30.5452 26.62C30.3252 29.92 29.6652 32.34 29.2252 33.88L26.3652 34.98C26.3652 32.78 25.7052 30.8 24.3852 28.82M31.2052 15.84C31.2052 18.48 31.2052 20.9 30.9852 22.88L22.1852 26.18C21.0852 25.08 19.7652 23.98 18.2252 23.32C17.3452 22.88 16.4652 22.22 15.8052 21.56L31.2052 15.84V15.84Z" fill="#525252"/>
</svg>
