<svg width="44" height="44" viewBox="0 0 44 44" fill="none" xmlns="http://www.w3.org/2000/svg">
<g clip-path="url(#clip0_3391_14187)">
<rect width="44" height="44" fill="white"/>
<path d="M38.9156 7.35778C38.4267 5.91556 37.0578 4.88889 35.4444 4.88889H29.3333V2.44444C29.3333 1.1 28.2333 0 26.8889 0H17.1111C15.7667 0 14.6667 1.1 14.6667 2.44444V4.88889H8.55556C6.94222 4.88889 5.59778 5.91556 5.08444 7.35778L0.268889 21.2178C0.0977775 21.7311 0 22.2689 0 22.8311V40.3333C0 42.3622 1.63778 44 3.66667 44C5.69556 44 7.33333 42.3622 7.33333 40.3333V39.1111H36.6667V40.3333C36.6667 42.3378 38.3044 44 40.3333 44C42.3378 44 44 42.3622 44 40.3333V22.8311C44 22.2933 43.9022 21.7311 43.7311 21.2178L38.9156 7.35778ZM8.55556 31.7778C6.52667 31.7778 4.88889 30.14 4.88889 28.1111C4.88889 26.0822 6.52667 24.4444 8.55556 24.4444C10.5844 24.4444 12.2222 26.0822 12.2222 28.1111C12.2222 30.14 10.5844 31.7778 8.55556 31.7778ZM35.4444 31.7778C33.4156 31.7778 31.7778 30.14 31.7778 28.1111C31.7778 26.0822 33.4156 24.4444 35.4444 24.4444C37.4733 24.4444 39.1111 26.0822 39.1111 28.1111C39.1111 30.14 37.4733 31.7778 35.4444 31.7778ZM4.88889 19.5556L8.55556 8.55556H35.4444L39.1111 19.5556H4.88889Z" fill="#525252"/>
</g>
<defs>
<clipPath id="clip0_3391_14187">
<rect width="44" height="44" fill="white"/>
</clipPath>
</defs>
</svg>
