<svg width="44" height="44" viewBox="0 0 44 44" fill="none" xmlns="http://www.w3.org/2000/svg">
<g clip-path="url(#clip0_3404_23381)">
<path d="M42.7517 13.4615C37.6498 9.71192 31.9934 7.81426 25.9015 7.7821L26.1491 4.12882C26.2591 2.53825 25.1818 1.08513 23.6463 0.745972C15.8262 -0.963864 8.38204 0.269188 1.52924 4.40839C0.18616 5.21976 -0.363923 6.94779 0.250318 8.41928L1.8271 12.1872C2.98219 14.9466 3.35817 17.8574 2.90889 20.6077C2.46884 23.3534 2.81257 25.6087 3.93567 27.3138C3.95396 27.3367 3.96775 27.3596 3.9906 27.3779L11.3981 35.1384C12.8924 36.7061 14.946 37.5724 17.0775 37.5724C17.3708 37.5724 17.6642 37.5494 17.9576 37.5174L18.4756 38.9659C19.319 41.3311 21.2763 43.1235 23.7103 43.756C26.1581 44.3932 28.7342 43.7651 30.609 42.1241L38.3969 35.3218C38.4151 35.3034 38.4381 35.285 38.4519 35.2621C39.6849 33.7174 40.2121 31.5767 40.0242 28.8998C39.8363 26.2228 40.4504 23.4679 41.7935 20.9239L43.6362 17.4402C44.356 16.0743 43.9801 14.3645 42.7517 13.4615ZM18.2098 36.564C15.9454 36.9354 13.6443 36.1698 12.0629 34.5059L4.67832 26.7775C3.70198 25.274 3.41319 23.248 3.81659 20.7544C4.28871 17.8344 3.89445 14.7495 2.6752 11.8342L1.09834 8.06633C0.653631 7.00747 1.04332 5.77441 2.00137 5.19234C8.6479 1.17688 15.8674 -0.0149516 23.4537 1.63987C24.5447 1.88279 25.3102 2.92794 25.2369 4.06923L24.9572 8.14428C24.7418 11.2979 25.3606 14.3462 26.7495 16.959C27.9321 19.1867 28.3126 21.199 27.8726 22.9409L23.3759 32.631C22.4086 34.7168 20.4833 36.1882 18.2098 36.564ZM42.825 17.014L40.9869 20.4931C39.5613 23.1884 38.9104 26.1175 39.1121 28.964C39.2817 31.3888 38.8279 33.3002 37.7599 34.6571L30.0086 41.432C28.3447 42.8851 26.0802 43.426 23.9396 42.8668C21.799 42.3121 20.08 40.7398 19.3374 38.6587L18.8744 37.3615C21.2168 36.8161 23.1879 35.2209 24.2054 33.0206L24.6867 31.9847C25.356 31.8976 26.0482 31.925 26.7357 32.1039C29.2293 32.7548 30.9161 35.088 30.7374 37.6595C30.7236 37.8475 30.829 38.0262 30.9986 38.1042C31.1683 38.1867 31.3699 38.1546 31.5074 38.0262C32.5067 37.0911 33.2172 35.8948 33.561 34.57C34.5649 30.715 32.2409 26.7638 28.3859 25.7599C28.1384 25.6957 27.8909 25.6545 27.6387 25.6178L28.7205 23.2847C28.7342 23.2618 28.7434 23.2343 28.748 23.2113C29.2615 21.2311 28.8626 18.985 27.5609 16.5282C26.3232 14.2041 25.7457 11.5042 25.8557 8.7035C31.7689 8.72644 37.2603 10.56 42.2108 14.1995C43.0725 14.8367 43.3384 16.0468 42.825 17.014Z" fill="#525252"/>
<path d="M37.6725 19.9564C37.4892 19.9426 37.3104 20.0481 37.2279 20.2177C36.7786 21.1757 35.706 21.6754 34.6838 21.4094C33.6569 21.1436 32.9694 20.1856 33.0382 19.1313C33.0519 18.9434 32.9511 18.7646 32.7815 18.6821C32.6073 18.6042 32.4056 18.6363 32.2682 18.7646C31.7777 19.223 31.4294 19.8097 31.2597 20.4606C30.7692 22.3584 31.906 24.2973 33.8037 24.7923C35.7015 25.2827 37.6404 24.146 38.1355 22.2483C38.3005 21.5974 38.2822 20.9144 38.0805 20.2726C38.0209 20.0939 37.8605 19.9702 37.6725 19.9564ZM11.8747 16.184C11.9388 16.3627 12.1039 16.4819 12.2964 16.4865C12.4889 16.4956 12.6539 16.3811 12.7272 16.2069C12.9977 15.5651 13.0802 14.8638 12.9656 14.1808C12.6677 12.384 11.1183 11.1097 9.35353 11.1097C9.15183 11.1097 8.95013 11.1281 8.74852 11.1602C6.74989 11.4903 5.40232 13.3787 5.73233 15.3773C5.84694 16.0649 6.14944 16.6974 6.61243 17.2201C6.73617 17.3622 6.93796 17.408 7.11207 17.3438C7.29083 17.2796 7.40543 17.1101 7.41 16.922C7.43751 15.8174 8.24422 14.8823 9.33516 14.7035C10.4262 14.5246 11.4988 15.1479 11.8747 16.184ZM16.8482 15.5238C16.9719 15.6659 17.169 15.7118 17.3478 15.6476C17.5219 15.5834 17.6411 15.4184 17.6457 15.2305C17.6732 14.1258 18.48 13.1907 19.5709 13.0119C20.6619 12.8286 21.7299 13.452 22.1104 14.4879C22.1745 14.6667 22.3396 14.7859 22.5275 14.7904C22.7201 14.8042 22.8896 14.685 22.963 14.5108C23.2333 13.8737 23.3158 13.1723 23.2013 12.4847C22.8713 10.4907 20.9919 9.13852 18.9842 9.46853C16.9857 9.79863 15.638 11.6826 15.9681 13.6811C16.0827 14.3687 16.3852 15.0058 16.8482 15.5238ZM23.3755 21.9595C23.1463 20.5615 22.5229 19.2643 21.5832 18.2054C21.4595 18.0632 21.2577 18.0175 21.0836 18.0816C20.9048 18.1458 20.7857 18.3108 20.7811 18.5034C20.726 21.1803 18.7642 23.4447 16.1147 23.8802C13.4699 24.3202 10.8799 22.8122 9.95863 20.2911C9.89447 20.1169 9.72942 19.9977 9.54152 19.9931C9.34896 19.9793 9.17934 20.0985 9.10604 20.2727C8.55604 21.5746 8.38642 23.0047 8.6202 24.4028C9.23444 28.1019 12.434 30.6597 15.9818 30.6597C16.3943 30.6597 16.8069 30.6276 17.2195 30.5588C21.2944 29.885 24.0493 26.0346 23.3755 21.9595Z" fill="#525252"/>
</g>
<defs>
<clipPath id="clip0_3404_23381">
<rect width="44" height="44" fill="white"/>
</clipPath>
</defs>
</svg>
