<svg width="44" height="44" viewBox="0 0 44 44" fill="none" xmlns="http://www.w3.org/2000/svg">
<path d="M35.1867 15.8517C34.9988 15.3109 34.6471 14.842 34.1806 14.5102C33.7141 14.1784 33.1558 14.0001 32.5833 14H12.4167C11.2158 14 10.1892 14.77 9.81333 15.8517L6 26.8333V41.5C6 42.5083 6.825 43.3333 7.83333 43.3333H9.66667C10.1529 43.3333 10.6192 43.1402 10.963 42.7964C11.3068 42.4525 11.5 41.9862 11.5 41.5V39.6667H33.5V41.5C33.5 42.5083 34.325 43.3333 35.3333 43.3333H37.1667C37.6529 43.3333 38.1192 43.1402 38.463 42.7964C38.8068 42.4525 39 41.9862 39 41.5V26.8333L35.1867 15.8517ZM12.4167 34.1667C10.895 34.1667 9.66667 32.9383 9.66667 31.4167C9.66667 29.895 10.895 28.6667 12.4167 28.6667C13.9383 28.6667 15.1667 29.895 15.1667 31.4167C15.1667 32.9383 13.9383 34.1667 12.4167 34.1667ZM32.5833 34.1667C31.0617 34.1667 29.8333 32.9383 29.8333 31.4167C29.8333 29.895 31.0617 28.6667 32.5833 28.6667C34.105 28.6667 35.3333 29.895 35.3333 31.4167C35.3333 32.9383 34.105 34.1667 32.5833 34.1667ZM9.66667 25L12.4167 16.75H32.5833L35.3333 25H9.66667Z" fill="#525252"/>
<path d="M27.2435 2.26574L23.4478 10.638C23.1152 11.4993 22.5283 12 21.8826 12C21.3543 12 20.9043 11.7196 20.65 11.2789C20.3761 10.7582 20.3957 10.1172 20.7283 9.57645L25.6978 1.42451C25.9522 1.02392 26.4609 0.883714 26.8717 1.10404C27.2826 1.32436 27.4391 1.82509 27.2435 2.26574V2.26574ZM28.5739 4.68929C28.2804 4.36882 27.7913 4.34879 27.4587 4.64923C27.1457 4.94967 27.1261 5.4504 27.4196 5.7909C28.7109 7.23302 29.4348 9.11577 29.4348 11.0987C29.4348 11.5393 29.787 11.8999 30.2174 11.8999C30.6478 11.8999 31 11.5393 31 11.0987C31 8.71519 30.1391 6.43184 28.5739 4.68929ZM22.6261 3.36735C23.0565 3.40741 23.4283 3.08694 23.4674 2.6463C23.5065 2.20565 23.1935 1.82509 22.763 1.78503C22.5087 1.76501 22.2543 1.74498 22 1.74498C17.0304 1.74498 13 5.95114 13 11.1187C13 11.5594 13.3522 11.9199 13.7826 11.9199C14.213 11.9199 14.5652 11.5594 14.5652 11.1187C14.5652 6.83243 17.8913 3.34732 22 3.34732C22.2152 3.32729 22.4304 3.34732 22.6261 3.36735Z" fill="#525252"/>
</svg>
