<svg width="44" height="44" viewBox="0 0 44 44" fill="none" xmlns="http://www.w3.org/2000/svg">
<g clip-path="url(#clip0_3404_23381)">
<path d="M34.7745 17.0322C33.8337 17.0334 32.9318 17.4076 32.2666 18.0728C31.6014 18.738 31.2272 19.6399 31.2261 20.5806V25.5484C31.2261 25.7366 31.3008 25.9171 31.4339 26.0502C31.567 26.1833 31.7475 26.2581 31.9358 26.2581H37.6132C37.8014 26.2581 37.9819 26.1833 38.115 26.0502C38.2481 25.9171 38.3229 25.7366 38.3229 25.5484V20.5806C38.3217 19.6399 37.9475 18.738 37.2823 18.0728C36.6171 17.4076 35.7152 17.0334 34.7745 17.0322V17.0322ZM36.9035 24.8387H32.6454V20.5806C32.6454 20.016 32.8697 19.4744 33.269 19.0752C33.6683 18.6759 34.2098 18.4516 34.7745 18.4516C35.3391 18.4516 35.8807 18.6759 36.2799 19.0752C36.6792 19.4744 36.9035 20.016 36.9035 20.5806V24.8387Z" fill="#525252"/>
<path d="M35.2001 0.141811C35.0809 0.0524959 34.9367 0.00292776 34.7878 0.000125703C34.6389 -0.00267635 34.4929 0.0414296 34.3705 0.126198L25.1447 6.51331C25.0503 6.57859 24.9732 6.66576 24.9199 6.76736C24.8667 6.86895 24.8388 6.98195 24.8388 7.09667V9.93539C24.8388 10.1236 24.9135 10.3041 25.0466 10.4372C25.1797 10.5703 25.3602 10.6451 25.5485 10.6451H27.6775V13.0033L25.591 13.8386C25.0043 14.0738 24.378 14.1943 23.7459 14.1935H9.0179C8.50839 14.1935 8.01975 14.3959 7.65947 14.7561C7.2992 15.1164 7.09679 15.6051 7.09679 16.1146V17.9853C7.09548 18.4514 7.18663 18.9131 7.36497 19.3437C7.54331 19.7743 7.8053 20.1653 8.13576 20.494L17.4113 29.7695L7.54176 38.3226H3.5484C2.60765 38.3237 1.70576 38.6979 1.04055 39.3631C0.375337 40.0283 0.00112687 40.9302 0 41.871V43.2903C0 43.4785 0.0747696 43.659 0.20786 43.7921C0.340951 43.9252 0.521461 44 0.709679 44H9.93551C10.1095 44 10.2775 43.9361 10.4074 43.8205L19.1613 36.0189V43.2903C19.1613 43.4785 19.2361 43.659 19.3692 43.7921C19.5023 43.9252 19.6828 44 19.871 44H22.7097C22.898 44 23.0785 43.9252 23.2116 43.7921C23.3447 43.659 23.4194 43.4785 23.4194 43.2903V32.2243L23.4641 32.1845C24.3443 31.3044 24.8387 30.1108 24.8388 28.8661V26.5518C24.84 26.1403 24.7595 25.7326 24.602 25.3524C24.4445 24.9722 24.2131 24.627 23.9212 24.3369L23.9162 24.3419C23.9063 24.3319 23.902 24.3177 23.8914 24.3078L18.8988 19.8709H23.7452C24.5579 19.8714 25.3632 19.7162 26.1176 19.4139L27.4192 18.8937L26.2581 43.257C26.2536 43.3529 26.2686 43.4488 26.3023 43.5388C26.3359 43.6288 26.3875 43.711 26.4538 43.7805C26.5202 43.85 26.6 43.9052 26.6883 43.943C26.7767 43.9807 26.8717 44.0001 26.9678 44H42.5808C42.6768 44.0001 42.7719 43.9807 42.8603 43.943C42.9486 43.9052 43.0284 43.85 43.0948 43.7805C43.1611 43.711 43.2127 43.6288 43.2463 43.5388C43.2799 43.4488 43.295 43.3529 43.2904 43.257L41.8711 13.4646V10.6451H43.2904C43.4787 10.6451 43.6592 10.5703 43.7923 10.4372C43.9254 10.3041 44.0001 10.1236 44.0001 9.93539V7.09667C44.0001 6.9865 43.9745 6.87783 43.9252 6.77929C43.8759 6.68075 43.8044 6.59503 43.7163 6.52893L35.2001 0.141811ZM34.758 1.58388L41.1614 6.38699H27.8194L34.758 1.58388ZM30.5162 10.6451V12.7741H29.0969V10.6451H30.5162ZM31.9356 12.7741V10.6451H37.613V12.7741H31.9356ZM11.7707 19.8709L19.5772 27.6774L18.4517 28.8029L9.51964 19.8709H11.7707ZM22.0001 42.5806H20.5807V34.7543L22.0001 33.4896V42.5806ZM23.4194 28.8661C23.4193 29.7208 23.0861 30.5418 22.4905 31.1548L9.66512 42.5806H1.41936V41.871C1.41936 41.3063 1.64367 40.7648 2.04294 40.3655C2.44221 39.9662 2.98374 39.7419 3.5484 39.7419H7.80647C7.97721 39.742 8.14224 39.6805 8.27131 39.5688L18.9165 30.3429L18.9108 30.3365C18.9243 30.3252 18.9406 30.3209 18.9534 30.3082L23.3059 25.9557C23.379 26.146 23.4174 26.3479 23.4194 26.5518V28.8661ZM22.3854 24.8692L20.5807 26.6739L13.7777 19.8709H16.7584L22.3854 24.8692ZM25.591 18.0967C25.0043 18.3319 24.378 18.4523 23.7459 18.4515H8.57293C8.53659 18.2987 8.51755 18.1423 8.51615 17.9853V16.1146C8.51615 16.0487 8.52913 15.9834 8.55435 15.9226C8.57956 15.8617 8.61652 15.8064 8.66311 15.7598C8.7097 15.7132 8.76501 15.6762 8.82589 15.651C8.88676 15.6258 8.95201 15.6128 9.0179 15.6128H23.7452C24.5579 15.6133 25.3632 15.4582 26.1176 15.1558L27.6257 14.5533L27.493 17.3352L25.591 18.0967ZM30.5588 42.5806L30.9562 36.2297C31.0155 35.2581 31.4433 34.3457 32.1523 33.6786C32.8612 33.0116 33.798 32.6402 34.7715 32.6402C35.7449 32.6402 36.6817 33.0116 37.3906 33.6786C38.0996 34.3457 38.5274 35.2581 38.5867 36.2297L38.9869 42.5806H30.5588ZM40.4056 42.5806L40.0039 36.141C39.9218 34.809 39.3348 33.5585 38.3625 32.6443C37.3903 31.7302 36.106 31.2212 34.7715 31.2212C33.4369 31.2212 32.1526 31.7302 31.1804 32.6443C30.2081 33.5585 29.6211 34.809 29.539 36.141L29.1401 42.5806H27.7123L29.0642 14.1935H40.4844L41.8363 42.5806H40.4056ZM40.4517 12.7741H39.0324V10.6451H40.4517V12.7741ZM26.2581 9.22571V7.80635H42.5808V9.22571H26.2581Z" fill="#525252"/>
</g>
<defs>
<clipPath id="clip0_3404_23381">
<rect width="44" height="44" fill="white"/>
</clipPath>
</defs>
</svg>
