<svg width="44" height="44" viewBox="0 0 44 44" fill="none" xmlns="http://www.w3.org/2000/svg">
<g clip-path="url(#clip0_3391_14187)">
<rect width="44" height="44" fill="white"/>
<path d="M0 44V22C0 18.9444 0.580148 16.082 1.74044 13.4127C2.90237 10.745 4.4717 8.42274 6.44844 6.446C8.42356 4.47089 10.7458 2.90237 13.4151 1.74044C16.0828 0.580148 18.9444 0 22 0C25.0556 0 27.918 0.580148 30.5873 1.74044C33.255 2.90237 35.5773 4.47089 37.554 6.446C39.5291 8.42274 41.0976 10.745 42.2596 13.4127C43.4199 16.082 44 18.9444 44 22V44H29.3333V24.4444H39.1111V22C39.1111 17.2333 37.4505 13.1894 34.1293 9.86822C30.8098 6.54867 26.7667 4.88889 22 4.88889C17.2333 4.88889 13.1902 6.54867 9.87067 9.86822C6.54948 13.1894 4.88889 17.2333 4.88889 22V24.4444H14.6667V44H0Z" fill="#525252"/>
</g>
<defs>
<clipPath id="clip0_3391_14187">
<rect width="44" height="44" fill="white"/>
</clipPath>
</defs>
</svg>
