<svg width="44" height="44" viewBox="0 0 44 44" fill="none" xmlns="http://www.w3.org/2000/svg">
<rect width="44" height="44" fill="white"/>
<path d="M39.7143 6.28571C39.7143 5.45218 39.3832 4.65278 38.7938 4.06338C38.2044 3.47398 37.405 3.14286 36.5714 3.14286H30.2857V0H27.1429V3.14286H14.5714V0H11.4286V3.14286H5.14286C4.30932 3.14286 3.50992 3.47398 2.92052 4.06338C2.33112 4.65278 2 5.45218 2 6.28571V37.7143C2 38.5478 2.33112 39.3472 2.92052 39.9366C3.50992 40.526 4.30932 40.8571 5.14286 40.8571H11.4286V37.7143H5.14286V6.28571H11.4286V9.42857H14.5714V6.28571H27.1429V9.42857H30.2857V6.28571H36.5714V15.7143H39.7143V6.28571Z" fill="#525252"/>
<path d="M28.716 20.4286L32.7215 28.1883L41.2874 29.4313L35.0017 35.4719L36.5731 44L28.716 39.974L20.8588 44L22.4302 35.4719L16.1445 29.4313L24.9445 28.1883L28.716 20.4286Z" fill="#525252"/>
</svg>
