<svg width="44" height="44" viewBox="0 0 44 44" fill="none" xmlns="http://www.w3.org/2000/svg">
<g clip-path="url(#clip0_3391_14187)">
<rect width="44" height="44" fill="white"/>
<path d="M39.957 0.605801C39.1493 -0.201934 37.8432 -0.201934 37.044 0.605801L32.9108 4.7304C32.7046 4.93663 32.5413 5.18582 32.4382 5.4608L31.1149 8.98389L24.4554 15.652C20.58 13.1257 15.9226 13.0569 13.1987 15.7895C12.2535 16.7347 11.652 17.9033 11.3598 19.1923C11.0419 20.6187 9.71856 21.8303 8.25777 21.9076C6.05798 22.0193 4.02146 22.8271 2.47473 24.3652C-1.37489 28.2234 -0.653089 35.1837 4.08161 39.9184C8.8163 44.6531 15.7766 45.3749 19.6262 41.5253C21.1643 39.9871 21.9807 37.942 22.0838 35.7422C22.1611 34.2814 23.3727 32.9667 24.7991 32.6402C26.0881 32.348 27.2567 31.7379 28.2019 30.8013C30.9345 28.0688 30.8657 23.42 28.3394 19.5446L35.0075 12.8765L38.5306 11.5532C38.8056 11.4501 39.0548 11.2868 39.261 11.0806L43.3856 6.95597C44.1933 6.14823 44.1933 4.84211 43.3856 4.04297L39.957 0.605801ZM17.8732 30.2514C15.5961 30.2514 13.7486 28.4039 13.7486 26.1268C13.7486 23.8496 15.5961 22.0022 17.8732 22.0022C20.1504 22.0022 21.9978 23.8496 21.9978 26.1268C21.9978 28.4039 20.1504 30.2514 17.8732 30.2514Z" fill="#525252"/>
</g>
<defs>
<clipPath id="clip0_3391_14187">
<rect width="44" height="44" fill="white"/>
</clipPath>
</defs>
</svg>
