<svg width="64" height="64" viewBox="0 0 64 64" fill="none" xmlns="http://www.w3.org/2000/svg">
<rect width="64" height="64" fill="white"/>
<path d="M35.1284 46.616C34.7025 46.6157 34.2861 46.49 33.9312 46.2546C33.5762 46.0193 33.2983 45.6846 33.1322 45.2925L31.8955 43.3613C31.0493 42.0378 29.8776 40.2369 28.5974 38.1973C21.8928 27.37 18.7466 20.1447 18.7466 15.9136C18.9015 11.6407 20.7079 7.59461 23.7855 4.62656C26.8632 1.65852 30.9721 0 35.2478 0C39.5234 0 43.6324 1.65852 46.71 4.62656C49.7877 7.59461 51.594 11.6407 51.749 15.9136C51.749 21.2079 46.4981 30.8851 42.0934 38.0671C36.6907 46.616 36.3869 46.616 35.1284 46.616ZM35.1284 3.7845C31.9284 3.81307 28.8689 5.10286 26.6142 7.3738C24.3595 9.64474 23.0917 12.7135 23.0861 15.9136C23.0861 17.8013 24.3012 22.9003 32.3945 35.8973C33.5011 37.6982 34.5643 39.3038 35.3454 40.5406C36.1482 39.3255 37.2114 37.6982 38.3831 35.7888C44.1113 26.4587 47.4094 19.2117 47.4094 15.9136C47.4038 14.3096 47.0811 12.7225 46.4601 11.2435C45.839 9.76461 44.9318 8.42301 43.7905 7.29586C42.6493 6.16872 41.2965 5.27825 39.8099 4.67565C38.3234 4.07305 36.7324 3.77019 35.1284 3.7845V3.7845Z" fill="#525252"/>
<path d="M35.454 63.9962C35.0018 63.9933 34.5618 63.8492 34.1955 63.584C30.4852 60.9586 26.2975 58.0727 24.9305 57.2482L4.40439 58.702C3.96654 58.75 3.52445 58.6636 3.13687 58.4543C2.7493 58.245 2.4346 57.9227 2.23461 57.5303C2.04121 57.1489 1.96481 56.7189 2.015 56.2943C2.06518 55.8697 2.23971 55.4693 2.51668 55.1435L17.7052 37.3513C18.0434 36.9543 18.5132 36.6924 19.0287 36.6136L30.0295 34.8995C30.4492 34.8353 30.8784 34.8957 31.2641 35.0731C31.6498 35.2505 31.9749 35.5372 32.1993 35.8976C33.3059 37.6985 34.3691 39.3041 35.1502 40.5409C35.953 39.3258 37.0162 37.6985 38.1879 35.7891C38.4094 35.4247 38.7333 35.1336 39.1192 34.9523C39.5051 34.7709 39.9358 34.7073 40.3577 34.7693L52.4217 36.4834C52.8233 36.5405 53.2008 36.709 53.5115 36.9698C53.8221 37.2306 54.0535 37.5732 54.1792 37.9589C61.3612 59.6567 61.3612 60.0906 61.3612 60.5246C61.3591 60.953 61.2302 61.3711 60.9908 61.7264C60.7514 62.0816 60.4122 62.358 60.0159 62.5208C59.6815 62.6595 59.3177 62.7122 58.9577 62.6744C58.5977 62.6365 58.2528 62.5091 57.9546 62.3038C57.1518 61.8482 52.1396 59.4831 47.3878 57.2699L36.5389 63.7793C36.2021 63.9441 35.8283 64.0189 35.454 63.9962V63.9962ZM25.4079 52.8653C26.189 52.8653 26.5362 52.8653 35.5625 59.2444L46.2595 52.9521C46.5679 52.7923 46.9102 52.7089 47.2576 52.7089C47.605 52.7089 47.9473 52.7923 48.2557 52.9521L55.633 56.3369C54.2443 51.9973 52.1396 45.488 50.4906 40.5843L41.1388 39.2607C36.5606 46.6163 36.2351 46.6163 35.0417 46.6163C34.6158 46.6159 34.1994 46.4903 33.8445 46.2549C33.4895 46.0195 33.2116 45.6849 33.0455 45.2927L31.8087 43.3616C31.1361 42.2984 30.2465 40.9532 29.2701 39.4126L20.4825 40.7796L9.2647 53.9936C17.2712 53.4077 25.039 52.8653 25.4079 52.8653V52.8653ZM34.9332 21.4034C33.6758 21.4034 32.4467 21.0305 31.4012 20.332C30.3557 19.6334 29.5409 18.6405 29.0597 17.4788C28.5785 16.3172 28.4526 15.0389 28.6979 13.8057C28.9432 12.5724 29.5487 11.4396 30.4378 10.5505C31.3269 9.66143 32.4597 9.05594 33.693 8.81064C34.9262 8.56533 36.2045 8.69123 37.3661 9.17241C38.5278 9.65359 39.5207 10.4684 40.2193 11.5139C40.9178 12.5594 41.2907 13.7886 41.2907 15.0459C41.2907 16.732 40.6209 18.3491 39.4286 19.5414C38.2364 20.7336 36.6193 21.4034 34.9332 21.4034V21.4034ZM34.9332 13.028C34.5341 13.028 34.144 13.1464 33.8122 13.3681C33.4803 13.5899 33.2217 13.905 33.0689 14.2737C32.9162 14.6424 32.8763 15.0482 32.9541 15.4396C33.032 15.8311 33.2242 16.1906 33.5064 16.4728C33.7886 16.755 34.1481 16.9472 34.5396 17.0251C34.931 17.1029 35.3367 17.063 35.7055 16.9102C36.0742 16.7575 36.3893 16.4989 36.6111 16.167C36.8328 15.8352 36.9511 15.445 36.9511 15.0459C36.9511 14.5108 36.7385 13.9975 36.3601 13.6191C35.9817 13.2406 35.4684 13.028 34.9332 13.028V13.028Z" fill="#525252"/>
</svg>
