<svg xmlns="http://www.w3.org/2000/svg" viewBox="0 0 100.22 100"><defs><style>.cls-1{fill:#1e3454;}.cls-2{fill:none;}</style></defs><g id="Layer_2" data-name="Layer 2"><g id="Layer_1-2" data-name="Layer 1"><path class="cls-1" d="M94.77,57.94a.75.75,0,0,1-.75-.75V47.37a.75.75,0,1,1,1.5,0v9.82A.76.76,0,0,1,94.77,57.94Z"/><path class="cls-1" d="M55.54,87.68H7.91a5,5,0,0,1-5-5V47.37a.75.75,0,0,1,1.5,0V82.64a3.55,3.55,0,0,0,3.54,3.54H55.54a.75.75,0,0,1,0,1.5Z"/><path class="cls-1" d="M55.83,52.37H42.56V44.94H55.83Zm-11.77-1.5H54.33V46.44H44.06Z"/><path class="cls-1" d="M63.15,11.64a.76.76,0,0,1-.75-.75c0-3.67-6-6.78-13.21-6.78S36,7.22,36,10.89a.75.75,0,0,1-1.5,0c0-4.64,6.46-8.28,14.7-8.28S63.9,6.25,63.9,10.89A.76.76,0,0,1,63.15,11.64Z"/><path class="cls-1" d="M82.43,49.4H58.85a.75.75,0,0,1,0-1.5H82.43A14.47,14.47,0,0,0,96.89,33.44v-15a3.17,3.17,0,0,0-3.16-3.16H4.66A3.17,3.17,0,0,0,1.5,18.46v15A14.47,14.47,0,0,0,16,47.9H40a.75.75,0,0,1,0,1.5H16a16,16,0,0,1-16-16v-15A4.66,4.66,0,0,1,4.66,13.8H93.73a4.66,4.66,0,0,1,4.66,4.66v15A16,16,0,0,1,82.43,49.4Z"/><path class="cls-1" d="M76.66,89.31a16.74,16.74,0,0,1-6.34-1.37.75.75,0,1,1,.58-1.38,15.21,15.21,0,0,0,5.76,1.25c5.27,0,7.15-3,7.15-5.79,0-3.63-2.58-5.33-6.46-6.76-4.73-1.69-7.14-4.16-7.14-7.34,0-4.53,3.67-7.57,9.13-7.57a14.43,14.43,0,0,1,5.17.94.75.75,0,0,1,.43,1,.75.75,0,0,1-1,.43,13,13,0,0,0-4.63-.84c-4.56,0-7.63,2.44-7.63,6.07,0,2.48,2.07,4.47,6.16,5.93,3.68,1.36,7.44,3.39,7.44,8.17C85.31,85.65,82.64,89.31,76.66,89.31Z"/><path class="cls-1" d="M77.61,93.53a.74.74,0,0,1-.75-.75V56.88a.75.75,0,0,1,1.5,0v35.9A.75.75,0,0,1,77.61,93.53Z"/><path class="cls-1" d="M77.67,97.39a22.56,22.56,0,1,1,22.55-22.56A22.59,22.59,0,0,1,77.67,97.39Zm0-43.62a21.06,21.06,0,1,0,21,21.06A21.08,21.08,0,0,0,77.67,53.77Z"/><rect class="cls-2" x="0.11" width="100" height="100"/></g></g></svg>