<svg xmlns="http://www.w3.org/2000/svg" viewBox="0 0 100 100.28"><defs><style>.cls-1{fill:#1e3454;}.cls-2{fill:none;}</style></defs><g id="Layer_2" data-name="Layer 2"><g id="Layer_1-2" data-name="Layer 1"><path class="cls-1" d="M76.93,23.41H55.38V4a.75.75,0,1,1,1.5,0V21.91H76.93a.75.75,0,0,1,0,1.5Z"/><path class="cls-1" d="M81.52,100.28H8.36a.75.75,0,1,1,0-1.5H80V80a.75.75,0,0,1,1.5,0Z"/><path class="cls-1" d="M8.36,100.28a.76.76,0,0,1-.75-.75L7.46,0H57.67L81.52,21.71v5.55a.75.75,0,1,1-1.5,0V22.37L57.09,1.5H9l.15,98a.76.76,0,0,1-.75.76Z"/><path class="cls-1" d="M14.36,23.59H3.94a.75.75,0,0,1,0-1.5H14.36a.75.75,0,1,1,0,1.5Z"/><path class="cls-1" d="M14.36,25.52A2.68,2.68,0,1,1,17,22.84,2.68,2.68,0,0,1,14.36,25.52Zm0-3.86a1.18,1.18,0,1,0,1.18,1.18A1.17,1.17,0,0,0,14.36,21.66Z"/><path class="cls-1" d="M14.36,41.79H3.94a.75.75,0,1,1,0-1.5H14.36a.75.75,0,0,1,0,1.5Z"/><path class="cls-1" d="M14.36,43.72A2.68,2.68,0,1,1,17,41,2.68,2.68,0,0,1,14.36,43.72Zm0-3.86A1.18,1.18,0,1,0,15.54,41,1.17,1.17,0,0,0,14.36,39.86Z"/><path class="cls-1" d="M14.36,60H3.94a.75.75,0,1,1,0-1.5H14.36a.75.75,0,0,1,0,1.5Z"/><path class="cls-1" d="M14.36,61.91A2.68,2.68,0,1,1,17,59.24,2.68,2.68,0,0,1,14.36,61.91Zm0-3.85a1.18,1.18,0,1,0,1.18,1.18A1.17,1.17,0,0,0,14.36,58.06Z"/><path class="cls-1" d="M14.36,78.19H3.94a.75.75,0,1,1,0-1.5H14.36a.75.75,0,0,1,0,1.5Z"/><path class="cls-1" d="M14.36,80.11A2.68,2.68,0,1,1,17,77.44,2.68,2.68,0,0,1,14.36,80.11Zm0-3.85a1.18,1.18,0,1,0,1.18,1.18A1.17,1.17,0,0,0,14.36,76.26Z"/><path class="cls-1" d="M59.94,92.8,54,77.11H28.09a5,5,0,0,1-5-5V34.28a5,5,0,0,1,5-5H91.78a5,5,0,0,1,5,5v37.8a5,5,0,0,1-5,5H65.92Zm-31.85-62a3.54,3.54,0,0,0-3.53,3.53v37.8a3.53,3.53,0,0,0,3.53,3.53H55l5,13,5-13H91.78a3.53,3.53,0,0,0,3.53-3.53V34.28a3.54,3.54,0,0,0-3.53-3.53Z"/><path class="cls-1" d="M75,70.65A17.23,17.23,0,1,1,92.18,53.43,17.24,17.24,0,0,1,75,70.65ZM75,37.7A15.73,15.73,0,1,0,90.68,53.43,15.74,15.74,0,0,0,75,37.7Z"/><path class="cls-1" d="M67.94,61.62l-4.8-9.3a.76.76,0,0,1,.32-1,.74.74,0,0,1,1,.32l4,7.77L85.67,47.19a.73.73,0,0,1,1,.17.76.76,0,0,1-.17,1Z"/><path class="cls-1" d="M54.4,41.32H30.89a.75.75,0,0,1,0-1.5H54.4a.75.75,0,0,1,0,1.5Z"/><path class="cls-1" d="M51.09,49.82H30.84a.75.75,0,1,1,0-1.5H51.09a.75.75,0,0,1,0,1.5Z"/><path class="cls-1" d="M51.09,58.32H30.84a.75.75,0,1,1,0-1.5H51.09a.75.75,0,0,1,0,1.5Z"/><path class="cls-1" d="M54.4,66.83H30.89a.75.75,0,0,1,0-1.5H54.4a.75.75,0,0,1,0,1.5Z"/><rect class="cls-2" y="0.14" width="100" height="100"/></g></g></svg>