<svg xmlns="http://www.w3.org/2000/svg" viewBox="0 0 100 100"><defs><style>.cls-1{fill:none;}.cls-2{fill:#1e3454;}</style></defs><g id="Layer_2" data-name="Layer 2"><g id="Layer_1-2" data-name="Layer 1"><rect class="cls-1" width="100" height="100"/><path class="cls-2" d="M52.59,81.59H47.41L45.9,77a.75.75,0,0,1,1.43-.47l1.17,3.59h3l1.17-3.59A.75.75,0,1,1,54.1,77Z"/><path class="cls-2" d="M52.17,97.47a.75.75,0,0,1-.72-1L52.79,92l-1.52-8.49H48.73L47.21,92l1.34,4.5a.76.76,0,0,1-.51.93.75.75,0,0,1-.93-.51l-1.44-4.84L47.47,82h5.06l1.8,10.07-1.44,4.84A.75.75,0,0,1,52.17,97.47Z"/><path class="cls-2" d="M50,72A13.82,13.82,0,0,1,36.19,58.2V50.09a.75.75,0,0,1,1.5,0V58.2a12.31,12.31,0,0,0,24.62,0V50.09a.75.75,0,0,1,1.5,0V58.2A13.82,13.82,0,0,1,50,72Z"/><path class="cls-2" d="M64.47,58.62a.75.75,0,0,1,0-1.5.94.94,0,0,0,.94-.94V53.72a.94.94,0,0,0-.94-.93.75.75,0,0,1,0-1.5,2.44,2.44,0,0,1,2.44,2.43v2.46A2.44,2.44,0,0,1,64.47,58.62Z"/><path class="cls-2" d="M35.53,58.62a2.44,2.44,0,0,1-2.44-2.44V53.72a2.44,2.44,0,0,1,2.44-2.43.75.75,0,0,1,0,1.5.94.94,0,0,0-.94.93v2.46a.94.94,0,0,0,.94.94.75.75,0,0,1,0,1.5Z"/><path class="cls-2" d="M36.94,51.17a.75.75,0,0,1-.75-.74c0-.59,0-5.86,2.81-7.49,1.33-.78,3-.59,5,.57a11.8,11.8,0,0,0,12.08,0,.75.75,0,1,1,.82,1.25,13.29,13.29,0,0,1-13.67,0c-1.44-.86-2.6-1-3.43-.57-1.75,1-2.08,4.8-2.06,6.18a.76.76,0,0,1-.74.76Z"/><path class="cls-2" d="M63.06,51.17h0a.76.76,0,0,1-.74-.76c0-1.38-.31-5.16-2.06-6.18-.83-.48-2-.29-3.43.57a13.29,13.29,0,0,1-13.67,0A.75.75,0,1,1,44,43.53a11.8,11.8,0,0,0,12.08,0c2-1.16,3.61-1.35,5-.57,2.82,1.63,2.82,6.9,2.81,7.49A.75.75,0,0,1,63.06,51.17Z"/><path class="cls-2" d="M16.28,93.25h-.1a.75.75,0,0,1-.65-.84c.05-.38,1.29-9.2,6.11-11.71,4.52-2.36,18.3-7.17,18.89-7.37A.75.75,0,0,1,41,74.73c-.14,0-14.27,5-18.69,7.29C18.2,84.17,17,92.51,17,92.6A.75.75,0,0,1,16.28,93.25Z"/><path class="cls-2" d="M83.72,93.25A.75.75,0,0,1,83,92.6c0-.09-1.18-8.43-5.31-10.58C73.24,79.71,59.12,74.78,59,74.73a.75.75,0,0,1,.49-1.41c.59.2,14.37,5,18.89,7.37C83.18,83.2,84.42,92,84.47,92.4a.75.75,0,0,1-.65.84Z"/><path class="cls-2" d="M34.57,50.17a.75.75,0,0,1-.72-.55c-.54-2-2.1-8.82.24-12.65a5.26,5.26,0,0,1,3.14-2.39c.82-1.49,4.67-7.08,15.6-5.36,6.12,1,10.17,3.06,12.38,6.42s2.54,7.94,1,14a.75.75,0,0,1-1.46-.38c1.44-5.59,1.18-9.76-.78-12.75S58.27,31.59,52.6,30.7C41.49,29,38.55,35.26,38.43,35.53l-.15.35L37.9,36a3.77,3.77,0,0,0-2.53,1.79c-2.08,3.41-.43,10.16-.07,11.48a.76.76,0,0,1-.53.92A.68.68,0,0,1,34.57,50.17Z"/><path class="cls-2" d="M21.4,24l-5.76-3L9.88,24,11,17.53,6.32,13l6.44-.94,2.88-5.84,2.88,5.84L25,13,20.3,17.53ZM9.54,14l3.05,3-.72,4.19,3.77-2,3.77,2L18.69,17l3-3-4.21-.61L15.64,9.6l-1.88,3.82Z"/><path class="cls-2" d="M38.58,24l-5.76-3-5.76,3,1.1-6.42L23.5,13l6.44-.94,2.88-5.84,2.88,5.84,6.45.94-4.67,4.54ZM26.72,14l3.05,3-.72,4.19,3.77-2,3.77,2L35.87,17l3.05-3-4.21-.61L32.82,9.6l-1.88,3.82Z"/><path class="cls-2" d="M55.76,24l-5.76-3-5.76,3,1.1-6.42L40.68,13l6.44-.94L50,6.21l2.88,5.84,6.44.94-4.66,4.54ZM50,19.22l3.77,2L53.05,17l3.05-3-4.21-.61L50,9.6l-1.89,3.82L43.9,14,47,17l-.72,4.19Z"/><path class="cls-2" d="M72.94,24l-5.76-3-5.76,3,1.1-6.42L57.85,13l6.45-.94,2.88-5.84,2.88,5.84L76.5,13l-4.66,4.54Zm-5.76-4.73,3.77,2L70.23,17l3-3-4.22-.61L67.18,9.6l-1.89,3.82L61.08,14l3,3-.72,4.19Z"/><path class="cls-2" d="M78.6,24l1.1-6.42L75,13l6.45-.94,2.88-5.84,2.88,5.84,6.44.94L89,17.53,90.12,24l-5.76-3Zm5.76-4.73,3.77,2L87.41,17l3-3-4.22-.61L84.36,9.6l-1.89,3.82L78.26,14l3,3-.72,4.19Z"/><path class="cls-2" d="M75.9,44.35V28H5.31A4.73,4.73,0,0,1,.58,23.26V7.16A4.73,4.73,0,0,1,5.31,2.43H94.69a4.73,4.73,0,0,1,4.73,4.73v16.1A4.73,4.73,0,0,1,94.69,28h-4.5ZM5.31,3.93A3.23,3.23,0,0,0,2.08,7.16v16.1a3.23,3.23,0,0,0,3.23,3.23H77.4V40.35L89.51,26.49h5.18a3.23,3.23,0,0,0,3.23-3.23V7.16a3.23,3.23,0,0,0-3.23-3.23Z"/></g></g></svg>