<svg width="44" height="44" viewBox="0 0 44 44" fill="none" xmlns="http://www.w3.org/2000/svg">
<g clip-path="url(#clip0_3391_14187)">
<rect width="44" height="44" fill="white"/>
<path d="M43.3486 18.1631L23.499 0.496863C22.6167 -0.165621 21.514 -0.165621 20.6318 0.496863L0.782163 18.1631C-0.100042 19.0464 -0.320594 20.3714 0.561611 21.2547C1.44382 22.138 2.76713 22.3588 3.64933 21.4755L4.31099 20.5922V41.7917C4.31099 43.1167 5.19319 44 6.5165 44H37.3937C38.717 44 39.5992 43.1167 39.5992 41.7917V20.5922L40.2609 21.2547C41.1431 22.138 42.4664 21.9172 43.3486 21.0339C44.2308 20.3714 44.2308 18.8256 43.3486 18.1631ZM26.3661 28.542H24.1606V30.7503C24.1606 32.0753 23.2784 32.9586 21.9551 32.9586C20.6318 32.9586 19.7496 32.0753 19.7496 30.7503V28.542H17.5441C16.2208 28.542 15.3386 27.6587 15.3386 26.3338C15.3386 25.0088 16.2208 24.1255 17.5441 24.1255H19.7496V21.9172C19.7496 20.5922 20.6318 19.7089 21.9551 19.7089C23.2784 19.7089 24.1606 20.5922 24.1606 21.9172V24.1255H26.3661C27.6894 24.1255 28.5716 25.0088 28.5716 26.3338C28.5716 27.6587 27.6894 28.542 26.3661 28.542Z" fill="#525252"/>
</g>
<defs>
<clipPath id="clip0_3391_14187">
<rect width="44" height="44" fill="white"/>
</clipPath>
</defs>
</svg>
