<svg width="44" height="44" viewBox="0 0 44 44" fill="none" xmlns="http://www.w3.org/2000/svg">
<rect width="44" height="44" fill="white"/>
<path d="M18.9064 4.46024C16.2688 2.0084 13.0918 1.6515 10.317 2.25879C7.58988 2.85476 5.13916 4.39453 3.66851 5.95243C1.85568 7.87062 0.152762 10.3293 0.008869 13.8813V13.8903C-0.0523138 15.6386 0.175422 18.2207 1.5679 20.1389L1.72425 20.3565C3.12353 22.2939 3.95063 23.4405 4.36078 24.5894L4.36418 24.5985C4.83325 25.8833 4.84571 27.1625 4.86271 28.9776L4.86724 29.4648C4.89217 31.9801 5.60936 36.0181 7.53436 38.9662C8.46343 40.3916 9.73807 41.6549 11.4433 42.2882L11.509 42.3132L11.577 42.3302C12.9332 42.6882 14.2169 42.6134 15.2559 41.8452C16.2257 41.128 16.6971 40.0075 16.9701 38.9651C17.2477 37.8989 17.3814 36.6504 17.4868 35.4142C17.5174 35.0517 17.5457 34.6914 17.574 34.3299C17.6465 33.4122 17.7179 32.4922 17.8301 31.5631C17.908 30.8866 18.0149 30.2137 18.1507 29.5463C18.5473 27.6508 19.0027 26.5529 19.4412 25.9014C19.8287 25.3236 20.2196 25.0709 20.6535 24.9146C21.9395 24.5894 22.7542 24.7571 23.3071 25.0709C23.9008 25.4074 24.4163 26.0363 24.8446 27.0141C25.7249 29.0263 25.9753 31.869 26.1849 34.4364V34.4398C26.4002 36.9937 26.9373 39.3243 27.9434 40.8255C28.4612 41.5982 29.1942 42.286 30.1947 42.5273C31.2167 42.7743 32.2194 42.4854 33.1077 41.9155L33.1088 41.9143C36.3605 39.8239 38.2379 35.3576 38.7512 29.6664C38.9665 27.2554 39.2486 25.9785 39.6916 24.8579C40.0508 23.9515 40.5153 23.1335 41.2246 21.8872L41.2268 21.8849C41.4433 21.5031 41.6846 21.0805 41.952 20.6035C42.6816 19.3073 43.8566 16.9687 43.988 14.2393C44.124 11.409 43.128 8.2887 39.7698 5.59552C36.5634 2.99752 33.5835 2.05259 30.9243 2.19421C28.2867 2.33471 26.1747 3.5323 24.6667 4.83187L24.6316 4.86246L24.5987 4.89419C23.1179 6.34671 22.4222 6.62204 21.9554 6.60164C21.4342 6.57898 20.6105 6.17336 18.9472 4.4999L18.928 4.4795L18.9064 4.46024V4.46024ZM20.6535 24.9146L20.6003 24.9282L20.7 24.8987C20.6845 24.9039 20.669 24.9092 20.6535 24.9146V24.9146ZM30.6773 9.01043C33.724 9.01043 36.4806 11.6685 36.7786 14.9316C36.7955 15.1168 36.7757 15.3036 36.7205 15.4812C36.6652 15.6588 36.5754 15.8238 36.4564 15.9667C36.3374 16.1096 36.1913 16.2277 36.0266 16.3142C35.862 16.4007 35.6819 16.4539 35.4966 16.4708C35.3114 16.4877 35.1246 16.4679 34.947 16.4126C34.7694 16.3573 34.6044 16.2676 34.4615 16.1486C34.3186 16.0295 34.2005 15.8835 34.114 15.7188C34.0275 15.5541 33.9743 15.374 33.9574 15.1888C33.7795 13.24 32.1185 11.843 30.6773 11.843C30.3017 11.843 29.9415 11.6938 29.6759 11.4282C29.4103 11.1626 29.2611 10.8023 29.2611 10.4267C29.2611 10.0511 29.4103 9.69085 29.6759 9.42525C29.9415 9.15965 30.3017 9.01043 30.6773 9.01043V9.01043Z" fill="#525252"/>
</svg>
