<svg width="44" height="44" viewBox="0 0 44 44" fill="none" xmlns="http://www.w3.org/2000/svg">
<rect width="44" height="44" fill="white"/>
<path d="M21.5556 22C27.7278 22 32.7302 17.0758 32.7302 11C32.7302 4.92422 27.7278 0 21.5556 0C15.3833 0 10.381 4.92422 10.381 11C10.381 17.0758 15.3833 22 21.5556 22ZM13.1746 26.7438C6.71429 28.6086 2 34.4867 2 41.4477C2 42.857 3.16111 44 4.59286 44H38.5183C39.95 44 41.1111 42.857 41.1111 41.4477C41.1111 34.4867 36.3968 28.6086 29.9365 26.7438V31.1094C32.346 31.7195 34.127 33.8766 34.127 36.4375V39.875C34.127 40.6313 33.4984 41.25 32.7302 41.25H31.3333C30.5651 41.25 29.9365 40.6313 29.9365 39.875C29.9365 39.1187 30.5651 38.5 31.3333 38.5V36.4375C31.3333 34.9164 30.0849 33.6875 28.5397 33.6875C26.9944 33.6875 25.746 34.9164 25.746 36.4375V38.5C26.5143 38.5 27.1429 39.1187 27.1429 39.875C27.1429 40.6313 26.5143 41.25 25.746 41.25H24.3492C23.581 41.25 22.9524 40.6313 22.9524 39.875V36.4375C22.9524 33.8766 24.7333 31.7195 27.1429 31.1094V26.2023C26.619 26.1508 26.0865 26.125 25.5452 26.125H17.5659C17.0246 26.125 16.4921 26.1508 15.9683 26.2023V31.8227C17.9849 32.4156 19.4603 34.2547 19.4603 36.4375C19.4603 39.093 17.269 41.25 14.5714 41.25C11.8738 41.25 9.68254 39.093 9.68254 36.4375C9.68254 34.2547 11.1579 32.4156 13.1746 31.8227V26.7438V26.7438ZM14.5714 38.5C15.7325 38.5 16.6667 37.5805 16.6667 36.4375C16.6667 35.2945 15.7325 34.375 14.5714 34.375C13.4103 34.375 12.4762 35.2945 12.4762 36.4375C12.4762 37.5805 13.4103 38.5 14.5714 38.5Z" fill="#525252"/>
</svg>
