<svg width="44" height="44" viewBox="0 0 44 44" fill="none" xmlns="http://www.w3.org/2000/svg">
<rect width="44" height="44" fill="white"/>
<path d="M0.497115 5.49364C1.15994 4.84246 2.23173 4.84246 2.89455 5.49364L7.33686 9.90489V7.24414C7.33686 6.31287 8.09135 5.56366 9.02917 5.56366C9.96699 5.56366 10.7215 6.31287 10.7215 7.24414V13.966C10.7215 14.8973 9.96699 15.6465 9.02917 15.6465H2.25994C1.32212 15.6465 0.567628 14.8973 0.567628 13.966C0.567628 13.0348 1.32212 12.2856 2.25994 12.2856H4.94647L0.497115 7.87431C-0.158654 7.21613 -0.158654 6.15183 0.497115 5.49364ZM8.85289 21.5212C10.6228 17.9992 15.1426 12.2856 22.0035 12.2856C28.8644 12.2856 33.3843 17.9992 35.1542 21.5212C35.4221 22.0533 35.4221 22.6765 35.1542 23.2157C33.3843 26.7377 28.8644 32.4513 22.0035 32.4513C15.1426 32.4513 10.6228 26.7377 8.85289 23.2157C8.58494 22.6835 8.58494 22.0603 8.85289 21.5212V21.5212ZM22.0035 26.8497C24.4926 26.8497 26.5163 24.8401 26.5163 22.3684C26.5163 19.8967 24.4926 17.8872 22.0035 17.8872C19.5144 17.8872 17.4907 19.8967 17.4907 22.3684C17.4907 24.8401 19.5144 26.8497 22.0035 26.8497ZM41.1125 5.49364C41.7753 4.83545 42.8471 4.83545 43.5029 5.49364C44.1587 6.15183 44.1657 7.21613 43.5029 7.86731L39.0606 12.2786H41.7471C42.6849 12.2786 43.4394 13.0278 43.4394 13.959C43.4394 14.8903 42.6849 15.6395 41.7471 15.6395H34.9779C34.0401 15.6395 33.2856 14.8903 33.2856 13.959V7.24414C33.2856 6.31287 34.0401 5.56366 34.9779 5.56366C35.9157 5.56366 36.6702 6.31287 36.6702 7.24414V9.91189L41.1125 5.50064V5.49364ZM0.497115 39.2432C-0.165705 38.585 -0.165705 37.5207 0.497115 36.8695L4.93942 32.4583H2.25994C1.32212 32.4583 0.567628 31.7091 0.567628 30.7778C0.567628 29.8465 1.32212 29.0973 2.25994 29.0973H9.02917C9.96699 29.0973 10.7215 29.8465 10.7215 30.7778V37.4997C10.7215 38.431 9.96699 39.1802 9.02917 39.1802C8.09135 39.1802 7.33686 38.431 7.33686 37.4997V34.825L2.89455 39.2432C2.23173 39.9014 1.15994 39.9014 0.504167 39.2432H0.497115ZM41.1125 39.2432L36.6702 34.832V37.4927C36.6702 38.424 35.9157 39.1732 34.9779 39.1732C34.0401 39.1732 33.2856 38.424 33.2856 37.4927V30.7708C33.2856 29.8395 34.0401 29.0903 34.9779 29.0903H41.7471C42.6849 29.0903 43.4394 29.8395 43.4394 30.7708C43.4394 31.7021 42.6849 32.4513 41.7471 32.4513H39.0606L43.5029 36.8625C44.1657 37.5207 44.1657 38.585 43.5029 39.2362C42.8401 39.8874 41.7683 39.8944 41.1125 39.2362V39.2432Z" fill="#525252"/>
</svg>
