<svg width="44" height="44" viewBox="0 0 44 44" fill="none" xmlns="http://www.w3.org/2000/svg">
<rect width="44" height="44" fill="white"/>
<path d="M42 42.2812V44H3V42.2812C3 41.7117 3.46774 41.25 4.04464 41.25H5.78571V10.3125C5.78571 9.1734 6.72111 8.25 7.875 8.25H15.5357V2.0625C15.5357 0.923398 16.4711 0 17.625 0H27.375C28.5289 0 29.4643 0.923398 29.4643 2.0625V8.25H37.125C38.2789 8.25 39.2143 9.1734 39.2143 10.3125V41.25H40.9554C41.5323 41.25 42 41.7117 42 42.2812ZM29.8125 16.5H26.3304C25.7535 16.5 25.2857 16.9617 25.2857 17.5312V20.9688C25.2857 21.5383 25.7535 22 26.3304 22H29.8125C30.3894 22 30.8571 21.5383 30.8571 20.9688V17.5312C30.8571 16.9617 30.3894 16.5 29.8125 16.5ZM15.1875 22H18.6696C19.2465 22 19.7143 21.5383 19.7143 20.9688V17.5312C19.7143 16.9617 19.2465 16.5 18.6696 16.5H15.1875C14.6106 16.5 14.1429 16.9617 14.1429 17.5312V20.9688C14.1429 21.5383 14.6106 22 15.1875 22ZM24.2411 33H20.7589C20.182 33 19.7143 33.4617 19.7143 34.0312V41.25H25.2857V34.0312C25.2857 33.4617 24.818 33 24.2411 33ZM29.8125 24.75H26.3304C25.7535 24.75 25.2857 25.2117 25.2857 25.7812V29.2188C25.2857 29.7883 25.7535 30.25 26.3304 30.25H29.8125C30.3894 30.25 30.8571 29.7883 30.8571 29.2188V25.7812C30.8571 25.2117 30.3894 24.75 29.8125 24.75ZM19.7143 25.7812C19.7143 25.2117 19.2465 24.75 18.6696 24.75H15.1875C14.6106 24.75 14.1429 25.2117 14.1429 25.7812V29.2188C14.1429 29.7883 14.6106 30.25 15.1875 30.25H18.6696C19.2465 30.25 19.7143 29.7883 19.7143 29.2188V25.7812ZM18.8438 8.25H21.1071V10.4844C21.1071 10.6211 21.1622 10.7523 21.2601 10.849C21.3581 10.9457 21.4909 11 21.6295 11H23.3705C23.5091 11 23.6419 10.9457 23.7399 10.849C23.8378 10.7523 23.8929 10.6211 23.8929 10.4844V8.25H26.1563C26.2948 8.25 26.4276 8.19568 26.5256 8.09898C26.6235 8.00228 26.6786 7.87113 26.6786 7.73438V6.01562C26.6786 5.87887 26.6235 5.74772 26.5256 5.65102C26.4276 5.55432 26.2948 5.5 26.1563 5.5H23.8929V3.26562C23.8929 3.12887 23.8378 2.99772 23.7399 2.90102C23.6419 2.80432 23.5091 2.75 23.3705 2.75H21.6295C21.4909 2.75 21.3581 2.80432 21.2601 2.90102C21.1622 2.99772 21.1071 3.12887 21.1071 3.26562V5.5H18.8438C18.7052 5.5 18.5724 5.55432 18.4744 5.65102C18.3765 5.74772 18.3214 5.87887 18.3214 6.01562V7.73438C18.3214 7.87113 18.3765 8.00228 18.4744 8.09898C18.5724 8.19568 18.7052 8.25 18.8438 8.25Z" fill="#525252"/>
</svg>
