<svg width="44" height="44" viewBox="0 0 44 44" fill="none" xmlns="http://www.w3.org/2000/svg">
<g clip-path="url(#clip0_3391_14187)">
<rect width="44" height="44" fill="white"/>
<path fill-rule="evenodd" clip-rule="evenodd" d="M8.46247 7.31175C8.53118 6.44436 8.75419 5.62095 9.10258 4.86839H0V7.89938L4.82192 11.6011V44H38.5753V11.6438L44 7.94214V4.86717H22.2399C22.5895 5.61973 22.8113 6.44314 22.8812 7.31053H40.609L36.1644 10.3452V41.5554H7.23288V10.3879L3.22586 7.31175H8.46126H8.46247Z" fill="#525252"/>
<path fill-rule="evenodd" clip-rule="evenodd" d="M4.82229 9.46802L1.80859 5.49756H8.7401L12.6579 13.4385H18.0826L22.3017 5.49756H42.1922L38.5757 10.3843V42.7588H33.7538V21.9902H24.11V42.7588H4.82229V9.46802ZM9.64421 21.9902H18.0826V30.542H9.64421V21.9902Z" fill="#525252"/>
<path d="M0 42.7588C0 43.0828 0.127006 43.3935 0.353077 43.6226C0.579148 43.8517 0.885766 43.9805 1.20548 43.9805H42.1918C42.5115 43.9805 42.8181 43.8517 43.0442 43.6226C43.2703 43.3935 43.3973 43.0828 43.3973 42.7588C43.3973 42.4348 43.2703 42.124 43.0442 41.8949C42.8181 41.6658 42.5115 41.5371 42.1918 41.5371H1.20548C0.885766 41.5371 0.579148 41.6658 0.353077 41.8949C0.127006 42.124 0 42.4348 0 42.7588Z" fill="#525252"/>
<path fill-rule="evenodd" clip-rule="evenodd" d="M22.9033 7.33008C22.9033 8.29268 22.7162 9.24585 22.3527 10.1352C21.9892 11.0245 21.4564 11.8326 20.7848 12.5132C20.1132 13.1939 19.3158 13.7338 18.4383 14.1022C17.5607 14.4706 16.6202 14.6602 15.6704 14.6602C14.7205 14.6602 13.78 14.4706 12.9025 14.1022C12.0249 13.7338 11.2276 13.1939 10.556 12.5132C9.88433 11.8326 9.35156 11.0245 8.98807 10.1352C8.62458 9.24585 8.4375 8.29268 8.4375 7.33008C8.4375 5.38602 9.19953 3.52159 10.556 2.14693C11.9124 0.772274 13.7521 0 15.6704 0C17.5887 0 19.4284 0.772274 20.7848 2.14693C22.1412 3.52159 22.9033 5.38602 22.9033 7.33008V7.33008ZM16.8759 3.66504V6.1084H19.2868V8.55176H16.8759V10.9951H14.4649V8.55176H12.0539V6.1084H14.4649V3.66504H16.8759Z" fill="#525252"/>
</g>
<defs>
<clipPath id="clip0_3391_14187">
<rect width="44" height="44" fill="white"/>
</clipPath>
</defs>
</svg>
