<svg width="64" height="64" viewBox="0 0 64 64" fill="none" xmlns="http://www.w3.org/2000/svg">
<path d="M30.174 31.7689C30.0179 31.5855 29.9374 31.3494 29.949 31.1088C29.9606 30.8681 30.0634 30.6409 30.2365 30.4733L30.7698 29.9472H17.8918C17.3492 29.9472 16.8421 29.4958 16.8421 28.9531V23.0095C16.8421 22.4669 17.3492 22.0875 17.8918 22.0875H32.8095C33.3521 22.0875 33.8246 22.4665 33.8246 23.0095V26.9192L34.1474 26.5796C34.317 26.4066 34.5457 26.3041 34.7877 26.2924C35.0297 26.2807 35.2672 26.3608 35.4526 26.5167L38.0553 28.671C39.3139 27.9165 40.6726 27.3432 42.0912 26.9679L42.4192 23.5667C42.4415 23.3206 42.5533 23.0912 42.7335 22.9221C42.9136 22.7529 43.1495 22.6557 43.3965 22.6489H48.9123C49.1599 22.6553 49.3967 22.7522 49.5777 22.9213C49.7588 23.0904 49.8715 23.32 49.8947 23.5667L50.2268 26.9832C50.3714 27.0215 50.5266 27.0634 50.6669 27.1062V21.5062C50.6645 20.8812 50.5348 20.2632 50.2858 19.6899C50.0367 19.1166 49.6736 18.6001 49.2184 18.1717C49.2044 18.1577 49.1816 18.1522 49.1677 18.1375L47.9879 16.8945H3.35944L1.69375 18.4144C1.68295 18.4245 1.65923 18.4171 1.64772 18.4267C1.13544 18.8566 0.722745 19.3927 0.43823 19.9979C0.153716 20.6031 0.00418536 21.2629 0 21.9316V33.877H31.9439L30.174 31.7689ZM8.47088 29.9472H7.56014C6.49927 29.9472 5.48186 29.5257 4.73171 28.7756C3.98157 28.0254 3.56014 27.008 3.56014 25.9472C3.56014 24.8863 3.98157 23.8689 4.73171 23.1187C5.48186 22.3686 6.49927 21.9472 7.56014 21.9472H8.47088C9.53174 21.9472 10.5492 22.3686 11.2993 23.1187C12.0495 23.8689 12.4709 24.8863 12.4709 25.9472C12.4709 27.008 12.0495 28.0254 11.2993 28.7756C10.5492 29.5257 9.53174 29.9472 8.47088 29.9472Z" fill="#626262"/>
<path d="M8.5614 35.8418H0V41.1751H8.5614V35.8418Z" fill="#626262"/>
<path d="M8.4708 23.9123H7.56006C7.02032 23.9123 6.50269 24.1267 6.12104 24.5083C5.73939 24.89 5.52498 25.4076 5.52498 25.9474C5.52498 26.4871 5.73939 27.0047 6.12104 27.3864C6.50269 27.768 7.02032 27.9825 7.56006 27.9825H8.4708C9.01054 27.9825 9.52817 27.768 9.90982 27.3864C10.2915 27.0047 10.5059 26.4871 10.5059 25.9474C10.5059 25.4076 10.2915 24.89 9.90982 24.5083C9.52817 24.1267 9.01054 23.9123 8.4708 23.9123V23.9123ZM43.3052 4.7906C43.1099 4.26683 42.7597 3.81496 42.3013 3.49509C41.8428 3.17523 41.2979 3.00254 40.7389 3H10.7063C10.1474 3.00259 9.60246 3.17531 9.14408 3.49517C8.6857 3.81503 8.33557 4.26688 8.14027 4.7906L4.38477 14.9298H47.0603L43.3052 4.7906Z" fill="#626262"/>
<path d="M31.8598 24.0527H18.8071V27.9826H31.8598V24.0527Z" fill="#626262"/>
<path d="M46.1345 38.6074C45.3687 38.6089 44.6205 38.8374 43.9845 39.264C43.3485 39.6906 42.8532 40.2961 42.5612 41.0041C42.2692 41.712 42.1936 42.4906 42.3439 43.2415C42.4943 43.9925 42.8638 44.682 43.4059 45.2229C43.9479 45.7639 44.6381 46.1321 45.3894 46.2809C46.1406 46.4298 46.919 46.3526 47.6264 46.0592C48.3338 45.7658 48.9383 45.2693 49.3636 44.6324C49.7889 43.9955 50.0159 43.2469 50.0159 42.4811C50.0137 41.4531 49.6037 40.468 48.8761 39.7418C48.1485 39.0156 47.1625 38.6076 46.1345 38.6074Z" fill="#E72931"/>
<path d="M46.1347 32.7871C44.218 32.7904 42.3452 33.3617 40.7531 34.429C39.161 35.4962 37.921 37.0115 37.1897 38.7832C36.4585 40.555 36.2689 42.5038 36.6449 44.3833C37.0208 46.2628 37.9455 47.9887 39.302 49.3428C40.6585 50.697 42.386 51.6186 44.2662 51.9913C46.1464 52.364 48.0948 52.1709 49.8653 51.4366C51.6358 50.7023 53.1488 49.4596 54.2133 47.8656C55.2778 46.2716 55.8458 44.3979 55.8457 42.4811C55.8405 39.9088 54.8152 37.4435 52.9947 35.6262C51.1741 33.8088 48.7071 32.7878 46.1347 32.7871V32.7871ZM46.1347 48.3209C44.9803 48.3193 43.8522 47.9756 42.8931 47.3331C41.9339 46.6907 41.1868 45.7783 40.7461 44.7113C40.3053 43.6443 40.1908 42.4706 40.417 41.3385C40.6431 40.2064 41.1998 39.1668 42.0167 38.351C42.8335 37.5353 43.8739 36.98 45.0062 36.7553C46.1386 36.5306 47.3121 36.6467 48.3786 37.0889C49.445 37.531 50.3564 38.2793 50.9976 39.2393C51.6388 40.1993 51.981 41.3278 51.981 42.4823C51.9782 44.0312 51.3611 45.5158 50.2651 46.6103C49.1691 47.7049 47.6837 48.32 46.1347 48.3209Z" fill="#E72931"/>
<path d="M59.8803 39.5404C59.5192 37.8694 58.8479 36.2809 57.9014 34.8572C57.7844 34.6813 57.7272 34.4723 57.7383 34.2614C57.7494 34.0504 57.8283 33.8486 57.9631 33.686L60.0068 31.2207L57.4191 28.6058L54.9616 30.6409C54.8006 30.7735 54.6016 30.8514 54.3934 30.8634C54.1852 30.8753 53.9785 30.8207 53.8034 30.7075C52.3698 29.7667 50.7775 29.0937 49.1038 28.7211C48.8986 28.6743 48.7133 28.5639 48.5745 28.4057C48.4357 28.2475 48.3503 28.0495 48.3306 27.8399L48.021 24.6143H44.2876L43.9779 27.8406C43.9585 28.0517 43.8737 28.2515 43.7354 28.4121C43.597 28.5727 43.4119 28.6861 43.206 28.7364C41.533 29.0945 39.942 29.7635 38.5158 30.7086C38.34 30.8249 38.1314 30.8815 37.9209 30.8701C37.7104 30.8588 37.5092 30.78 37.3469 30.6454L34.8852 28.6042L32.2589 31.2259L34.302 33.6864C34.4361 33.8475 34.5152 34.0473 34.5277 34.2566C34.5402 34.4659 34.4854 34.6737 34.3713 34.8496C33.4341 36.2827 32.7632 37.8732 32.3908 39.5445C32.348 39.7462 32.2421 39.929 32.0885 40.0665C31.9348 40.204 31.7414 40.2891 31.5362 40.3093L28.3511 40.6192V44.3438L31.5355 44.6537C31.7402 44.6743 31.933 44.7601 32.0852 44.8985C32.2375 45.0369 32.3413 45.2205 32.3812 45.4224C32.7424 47.0934 33.4136 48.6818 34.3602 50.1053C34.4771 50.2812 34.5343 50.4901 34.5232 50.701C34.512 50.912 34.4332 51.1137 34.2984 51.2763L32.2587 53.7371L34.8858 56.3584L37.3477 54.3163C37.5081 54.1829 37.7068 54.1041 37.9151 54.0912C38.1233 54.0783 38.3302 54.132 38.5059 54.2446C39.9399 55.1821 41.5321 55.8515 43.2052 56.2203C43.409 56.2624 43.5939 56.3686 43.733 56.5233C43.8721 56.6779 43.9581 56.8731 43.9784 57.0801L44.2882 60.2634H48.0215L48.3311 57.0797C48.3517 56.8736 48.4378 56.6796 48.5767 56.5261C48.7156 56.3726 48.9001 56.2676 49.1031 56.2266C50.7761 55.8683 52.367 55.1993 53.7933 54.2544C53.9692 54.138 54.1779 54.0813 54.3885 54.0927C54.5991 54.1041 54.8004 54.1829 54.9627 54.3176L57.4249 56.3588L60.0527 53.7371L58.0142 51.2766C57.8809 51.1148 57.8028 50.9147 57.7914 50.7054C57.7799 50.4961 57.8357 50.2887 57.9505 50.1133C58.8911 48.6807 59.5657 47.0903 59.9421 45.4183C59.9897 45.2152 60.0998 45.0322 60.257 44.895C60.4141 44.7578 60.6104 44.6734 60.818 44.6537L64.0002 44.3448V40.6192L60.771 40.3093C60.5609 40.2899 60.3622 40.2054 60.2025 40.0676C60.0428 39.9297 59.9302 39.7454 59.8803 39.5404V39.5404ZM46.1348 54.1409C43.8295 54.1376 41.5769 53.451 39.6616 52.1679C37.7464 50.8848 36.2545 49.0627 35.3746 46.932C34.4946 44.8012 34.266 42.4574 34.7177 40.1968C35.1694 37.9362 36.2811 35.8602 37.9124 34.2312C39.5436 32.6022 41.6211 31.4933 43.8823 31.0447C46.1436 30.5961 48.4871 30.8279 50.6166 31.7108C52.7462 32.5937 54.5662 34.0881 55.8467 36.0051C57.1272 37.9221 57.8106 40.1756 57.8107 42.4809C57.8053 45.5744 56.5729 48.5394 54.3839 50.7254C52.195 52.9113 49.2283 54.1396 46.1348 54.1409V54.1409Z" fill="#E72931"/>
</svg>
