<svg width="44" height="44" viewBox="0 0 44 44" fill="none" xmlns="http://www.w3.org/2000/svg">
<path d="M19.362 5.97929L17.1748 8.95456H12.0672C12.6971 10.7518 14.7594 12.4465 17.6394 11.884C18.4931 11.8265 21.3731 11.3691 22.5664 11.6504C24.1552 12.0314 23.4929 12.0332 26.3414 14.3192L40.5384 26.028C41.4083 26.7963 42.5208 26.4818 43.2909 25.6137C44.061 24.7439 44.1041 23.2019 43.2342 22.4336L25.2622 8.05596C24.1372 7.15286 23.8532 5.90201 23.465 4.46155C22.7102 1.98591 19.9344 0 17.2099 0C15.0146 0 12.6522 1.89874 11.7832 3.56295H17.1748L19.362 5.97929ZM31.6908 27.8252L26.1357 18.1832C25.9164 17.7833 25.362 17.042 24.9064 17.042H9.44325C8.98766 17.042 8.43323 17.7833 8.21307 18.1832L2.7972 27.8252H2.65882C1.74674 27.8252 1 28.1568 1 29.0697V37.3638C1 38.2768 1.74674 38.6084 2.65882 38.6084H4.5944V41.5109C4.5944 42.8803 5.43729 44 6.80586 44H7.63527C9.00474 44 9.98601 42.8803 9.98601 41.5109V38.6084H24.3636V41.5109C24.3636 42.8794 25.3449 44 26.7135 44H27.5429C28.9123 44 29.7552 42.8803 29.7552 41.5109V38.6084H31.6908C32.6029 38.6084 33.3496 38.2768 33.3496 37.3638V29.0697C33.3496 28.1568 32.6029 27.8252 31.6908 27.8252ZM5.5622 34.0462C5.28627 34.0519 5.01196 34.0026 4.75536 33.9009C4.49876 33.7993 4.26503 33.6475 4.06785 33.4544C3.87068 33.2613 3.71403 33.0307 3.60709 32.7763C3.50014 32.5219 3.44506 32.2487 3.44506 31.9727C3.44506 31.6967 3.50014 31.4235 3.60709 31.169C3.71403 30.9146 3.87068 30.6841 4.06785 30.491C4.26503 30.2979 4.49876 30.146 4.75536 30.0444C5.01196 29.9428 5.28627 29.8934 5.5622 29.8992C6.10466 29.9104 6.62109 30.1339 7.00073 30.5215C7.38038 30.9091 7.593 31.4301 7.593 31.9727C7.593 32.5153 7.38038 33.0362 7.00073 33.4239C6.62109 33.8115 6.10466 34.0349 5.5622 34.0462ZM7.22101 27.8252L10.5827 20.7909C10.7867 20.383 11.3276 19.7378 11.7832 19.7378H22.5664C23.022 19.7378 23.5621 20.383 23.767 20.7909L27.1286 27.8252H7.22101ZM28.7874 34.0462C28.2374 34.0462 27.7099 33.8277 27.3209 33.4387C26.932 33.0498 26.7135 32.5223 26.7135 31.9722C26.7135 31.4222 26.932 30.8947 27.3209 30.5057C27.7099 30.1168 28.2374 29.8983 28.7874 29.8983C29.3375 29.8983 29.865 30.1168 30.254 30.5057C30.6429 30.8947 30.8614 31.4222 30.8614 31.9722C30.8614 32.5223 30.6429 33.0498 30.254 33.4387C29.865 33.8277 29.3375 34.0462 28.7874 34.0462V34.0462Z" fill="#525252"/>
</svg>
