<svg width="19" height="18" viewBox="0 0 19 18" fill="none" xmlns="http://www.w3.org/2000/svg">
<path d="M18.2399 6.33831L12.5893 5.51709L10.0634 0.396152C9.99437 0.255944 9.88087 0.142442 9.74066 0.0734507C9.38902 -0.100141 8.96172 0.0445188 8.7859 0.396152L6.25993 5.51709L0.609315 6.33831C0.453528 6.36057 0.311094 6.43401 0.202043 6.54529C0.0702067 6.68079 -0.0024412 6.86309 6.26395e-05 7.05213C0.00256648 7.24117 0.0800172 7.42149 0.215396 7.55345L4.30369 11.5394L3.33781 17.1677C3.31516 17.2987 3.32965 17.4333 3.37963 17.5564C3.42962 17.6795 3.5131 17.7862 3.62061 17.8643C3.72812 17.9424 3.85535 17.9887 3.98789 17.9982C4.12042 18.0077 4.25296 17.9798 4.37046 17.9177L9.42463 15.2605L14.4788 17.9177C14.6168 17.9912 14.777 18.0157 14.9306 17.989C15.3178 17.9222 15.5782 17.555 15.5115 17.1677L14.5456 11.5394L18.6339 7.55345C18.7451 7.4444 18.8186 7.30197 18.8408 7.14618C18.9009 6.75671 18.6294 6.39618 18.2399 6.33831ZM12.8252 10.9785L13.6287 15.6588L9.42463 13.4511L5.22061 15.661L6.02402 10.9808L2.62342 7.66473L7.32373 6.98149L9.42463 2.72405L11.5255 6.98149L16.2258 7.66473L12.8252 10.9785Z" fill="#4C4C4C"/>
</svg>
