<svg width="21" height="18" viewBox="0 0 21 18" fill="none" xmlns="http://www.w3.org/2000/svg">
<path d="M6.10653 3.80465e-09H14.5611C15.0139 -2.96437e-05 15.4495 0.173211 15.7787 0.484184C16.1078 0.795158 16.3054 1.22029 16.3311 1.67236L16.3338 1.77273V3.27218L17.2884 3.27273C18.8702 3.27273 20.152 4.55455 20.152 6.13636V13.5C20.152 13.9702 19.9652 14.4211 19.6328 14.7535C19.3003 15.086 18.8494 15.2727 18.3793 15.2727L16.3338 15.2722V16.2273C16.3338 16.6974 16.147 17.1483 15.8146 17.4808C15.4821 17.8132 15.0312 18 14.5611 18H6.10653C5.63638 18 5.18548 17.8132 4.85303 17.4808C4.52058 17.1483 4.33381 16.6974 4.33381 16.2273V15.2722L2.28835 15.2727C1.8182 15.2727 1.3673 15.086 1.03484 14.7535C0.702394 14.4211 0.515625 13.9702 0.515625 13.5V6.13636C0.515625 4.55455 1.79744 3.27273 3.37926 3.27273L4.33381 3.27218V1.77273C4.33378 1.31992 4.50702 0.884275 4.81799 0.555147C5.12896 0.226018 5.55409 0.0283629 6.00617 0.00272734L6.10653 3.80465e-09ZM14.5611 11.1818H6.10653C5.99804 11.1818 5.89398 11.2249 5.81726 11.3016C5.74054 11.3784 5.69744 11.4824 5.69744 11.5909V16.2273C5.69744 16.4531 5.88072 16.6364 6.10653 16.6364H14.5611C14.6696 16.6364 14.7736 16.5933 14.8504 16.5165C14.9271 16.4398 14.9702 16.3358 14.9702 16.2273V11.5909C14.9702 11.4824 14.9271 11.3784 14.8504 11.3016C14.7736 11.2249 14.6696 11.1818 14.5611 11.1818ZM17.2884 4.63636H3.37926C2.98144 4.63636 2.59991 4.7944 2.3186 5.0757C2.0373 5.35701 1.87926 5.73854 1.87926 6.13636V13.5C1.87926 13.7258 2.06253 13.9091 2.28835 13.9091L4.33381 13.9085V11.5909C4.33381 11.1208 4.52058 10.6699 4.85303 10.3374C5.18548 10.005 5.63638 9.81818 6.10653 9.81818H14.5611C15.0312 9.81818 15.4821 10.005 15.8146 10.3374C16.147 10.6699 16.3338 11.1208 16.3338 11.5909V13.9085L18.3793 13.9091C18.4878 13.9091 18.5918 13.866 18.6685 13.7893C18.7453 13.7126 18.7884 13.6085 18.7884 13.5V6.13636C18.7884 5.73854 18.6303 5.35701 18.349 5.0757C18.0677 4.7944 17.6862 4.63636 17.2884 4.63636ZM14.5611 1.36364H6.10653C6.00768 1.36364 5.91217 1.39944 5.83766 1.46442C5.76316 1.5294 5.71471 1.61915 5.70126 1.71709L5.69744 1.77273V3.27218H14.9702V1.77273C14.9702 1.67387 14.9344 1.57836 14.8694 1.50386C14.8044 1.42935 14.7147 1.3809 14.6167 1.36745L14.5611 1.36364Z" fill="#4C4C4C"/>
</svg>
