<svg width="19" height="18" viewBox="0 0 19 18" fill="none" xmlns="http://www.w3.org/2000/svg">
<path d="M11.4442 10.2857C11.9557 10.2857 12.4462 10.4889 12.8079 10.8506C13.1696 11.2123 13.3728 11.7028 13.3728 12.2143V12.8571C13.3728 15.3913 10.9813 18 6.9442 18C2.90705 18 0.515625 15.3913 0.515625 12.8571V12.2143C0.515625 11.7028 0.718813 11.2123 1.08049 10.8506C1.44217 10.4889 1.93271 10.2857 2.4442 10.2857H11.4442ZM11.4442 11.5714H2.4442C2.2737 11.5714 2.11019 11.6392 1.98963 11.7597C1.86907 11.8803 1.80134 12.0438 1.80134 12.2143V12.8571C1.80134 14.706 3.64248 16.7143 6.9442 16.7143C10.2459 16.7143 12.0871 14.706 12.0871 12.8571V12.2143C12.0871 12.0438 12.0193 11.8803 11.8988 11.7597C11.7782 11.6392 11.6147 11.5714 11.4442 11.5714ZM15.9442 7.71429C16.1999 7.71429 16.4452 7.81588 16.626 7.99672C16.8069 8.17756 16.9085 8.42283 16.9085 8.67857C16.9085 8.93432 16.8069 9.17959 16.626 9.36042C16.4452 9.54126 16.1999 9.64286 15.9442 9.64286C15.6885 9.64286 15.4432 9.54126 15.2623 9.36042C15.0815 9.17959 14.9799 8.93432 14.9799 8.67857C14.9799 8.42283 15.0815 8.17756 15.2623 7.99672C15.4432 7.81588 15.6885 7.71429 15.9442 7.71429ZM6.9442 1.92857C7.88193 1.92857 8.78125 2.30108 9.44432 2.96416C10.1074 3.62723 10.4799 4.52656 10.4799 5.46429C10.4799 6.40202 10.1074 7.30134 9.44432 7.96441C8.78125 8.62749 7.88193 9 6.9442 9C6.00647 9 5.10714 8.62749 4.44407 7.96441C3.78099 7.30134 3.40848 6.40202 3.40848 5.46429C3.40848 4.52656 3.78099 3.62723 4.44407 2.96416C5.10714 2.30108 6.00647 1.92857 6.9442 1.92857ZM6.9442 3.21429C6.34746 3.21429 5.77516 3.45134 5.35321 3.8733C4.93125 4.29525 4.6942 4.86755 4.6942 5.46429C4.6942 6.06102 4.93125 6.63332 5.35321 7.05528C5.77516 7.47723 6.34746 7.71429 6.9442 7.71429C7.54093 7.71429 8.11323 7.47723 8.53519 7.05528C8.95714 6.63332 9.1942 6.06102 9.1942 5.46429C9.1942 4.86755 8.95714 4.29525 8.53519 3.8733C8.11323 3.45134 7.54093 3.21429 6.9442 3.21429ZM15.9442 0C16.6262 0 17.2802 0.270918 17.7625 0.753154C18.2447 1.23539 18.5156 1.88944 18.5156 2.57143C18.5156 3.51 18.2431 4.03714 17.5462 4.76743L17.2068 5.11457C16.7221 5.61986 16.5871 5.89243 16.5871 6.42857C16.5871 6.59907 16.5193 6.76258 16.3988 6.88314C16.2782 7.0037 16.1147 7.07143 15.9442 7.07143C15.7737 7.07143 15.6102 7.0037 15.4896 6.88314C15.3691 6.76258 15.3013 6.59907 15.3013 6.42857C15.3013 5.49 15.5739 4.96286 16.2708 4.23257L16.6102 3.88543C17.0949 3.38143 17.2299 3.10886 17.2299 2.57143C17.2299 2.23044 17.0945 1.90341 16.8533 1.66229C16.6122 1.42117 16.2852 1.28571 15.9442 1.28571C15.6032 1.28571 15.2762 1.42117 15.0351 1.66229C14.7939 1.90341 14.6585 2.23044 14.6585 2.57143C14.6585 2.74192 14.5908 2.90544 14.4702 3.026C14.3496 3.14656 14.1861 3.21429 14.0156 3.21429C13.8451 3.21429 13.6816 3.14656 13.5611 3.026C13.4405 2.90544 13.3728 2.74192 13.3728 2.57143C13.3728 1.88944 13.6437 1.23539 14.1259 0.753154C14.6082 0.270918 15.2622 0 15.9442 0Z" fill="#4C4C4C"/>
</svg>
