<svg width="28" height="16" viewBox="0 0 28 16" fill="none" xmlns="http://www.w3.org/2000/svg">
<path d="M7.95877 0C5.02543 0 2.62543 2.4 2.62543 5.33333C2.62543 7.09689 3.49388 8.66667 4.8201 9.63911C2.4761 10.8018 0.847656 13.2124 0.847656 16H2.62543C2.62543 13.0453 5.0041 10.6667 7.95877 10.6667C10.9134 10.6667 13.2921 13.0453 13.2921 16H15.0699C15.0699 13.0453 17.4485 10.6667 20.4032 10.6667C23.3579 10.6667 25.7365 13.0453 25.7365 16H27.5143C27.5143 13.2116 25.8859 10.8018 23.5419 9.63911C24.2206 9.14458 24.773 8.49693 25.1543 7.74878C25.5357 7.00063 25.7351 6.17307 25.7365 5.33333C25.7365 2.4 23.3365 0 20.4032 0C17.4699 0 15.0699 2.4 15.0699 5.33333C15.0699 7.09689 15.9383 8.66667 17.2645 9.63911C15.9658 10.2776 14.8908 11.2944 14.181 12.5556C13.4712 11.2944 12.3962 10.2776 11.0974 9.63911C11.7761 9.14458 12.3286 8.49693 12.7099 7.74878C13.0912 7.00063 13.2907 6.17307 13.2921 5.33333C13.2921 2.4 10.8921 0 7.95877 0ZM7.95877 1.77778C9.93477 1.77778 11.5143 3.35733 11.5143 5.33333C11.5143 7.30933 9.93477 8.88889 7.95877 8.88889C5.98277 8.88889 4.40321 7.30933 4.40321 5.33333C4.40321 3.35733 5.98277 1.77778 7.95877 1.77778ZM20.4032 1.77778C22.3792 1.77778 23.9588 3.35733 23.9588 5.33333C23.9588 7.30933 22.3792 8.88889 20.4032 8.88889C18.4272 8.88889 16.8477 7.30933 16.8477 5.33333C16.8477 3.35733 18.4272 1.77778 20.4032 1.77778Z" fill="#4C4C4C"/>
</svg>
