<svg width="64" height="64" viewBox="0 0 64 64" fill="none" xmlns="http://www.w3.org/2000/svg">
<path d="M40.0289 12.258C38.4486 10.6776 36.2738 9.50864 33.8183 8.73801C34.837 4.28101 30.9298 0 25.6354 0C20.1561 0 16.2075 4.54588 17.5505 9.14289C15.5718 9.89389 13.8346 10.9388 12.5154 12.258C6.984 17.7894 5.68437 24.9208 8.29663 35.3829C8.29663 35.3894 8.30313 35.3894 8.30313 35.3894C8.89738 37.9038 9.26313 39.9283 9.59626 41.7177C10.7456 48.0263 11.2746 50.8997 18.9481 58.632C24.4022 64.086 28.2467 63.975 33.5898 58.632C33.6552 58.5672 34.3979 57.8277 34.5889 57.6327C34.4257 57.1233 34.295 56.6335 34.197 56.1502C33.7182 56.658 33.2214 57.1557 32.6624 57.7111C27.7644 62.6091 24.7799 62.6091 19.8689 57.7111C12.4893 50.2662 12.0191 47.6932 10.8763 41.4826C10.5498 39.6932 10.184 37.6752 9.58976 35.1674C9.58976 33.3663 10.3024 30.7203 11.8755 29.5969C21.1098 22.9422 29.4168 22.6809 39.4152 28.8067C41.4184 30.0587 42.9613 31.0514 42.9613 35.1479C42.0732 38.6417 41.7662 40.5357 41.5181 42.0638C41.4527 42.4557 41.3939 42.8214 41.3287 43.1872H42.6544C42.7067 42.8802 42.7523 42.5798 42.8047 42.2729C43.0659 40.6796 43.3598 38.8706 44.2546 35.3634C44.2611 35.3569 44.2546 35.3504 44.2611 35.3373C46.8729 25.0905 45.5277 17.7568 40.0289 12.258Z" fill="#626262"/>
<path d="M54.5397 46.2169C54.5593 46.3605 54.5593 46.5107 54.5397 46.6544C54.2916 46.5565 54.0172 46.5107 53.7364 46.5107H38.2523C37.9714 46.5107 37.6972 46.5565 37.449 46.6544C37.4425 46.5891 37.436 46.5172 37.436 46.452C37.436 45.3744 38.3177 44.4929 39.3952 44.4929H45.7952C46.5919 44.4929 47.3494 44.1467 47.8654 43.5524C48.3683 42.9712 48.5838 42.2331 48.4728 41.4626C48.2846 40.1885 49.9349 39.5266 50.6737 40.5549C51.3986 41.5541 51.8492 42.7426 51.9798 43.9965C52.0124 44.2774 52.2476 44.4929 52.5349 44.4929C53.5601 44.4929 54.4221 45.2374 54.5397 46.2169ZM42.4267 58.7753H49.5626C50.4076 57.5559 50.9522 56.4609 51.2679 55.3378H40.7207C41.0363 56.4609 41.5817 57.5565 42.4267 58.7753Z" fill="#E72931"/>
<path d="M55.1473 50.1161H54.8273V48.908C54.8273 48.3071 54.3376 47.8174 53.7367 47.8174H38.2526C37.6517 47.8174 37.1619 48.3071 37.1619 48.908V50.1161H36.8419C35.8419 50.1161 35.0722 50.9404 35.0983 51.8924C35.1506 55.2035 35.4706 58.3055 38.8338 62.7202C39.4477 63.5234 40.4207 64.0002 41.4331 64.0002H50.5563C51.5686 64.0002 52.5417 63.5234 53.149 62.7202C54.8338 60.5128 55.7547 58.632 56.2641 56.8948C56.7735 55.151 56.865 53.5511 56.8911 51.8923C56.9175 50.9245 56.1395 50.1161 55.1473 50.1161ZM50.4315 59.8103C50.3083 59.9805 50.1113 60.0819 49.9008 60.0819H42.0889C41.8784 60.0819 41.6814 59.9805 41.5589 59.8103C40.2828 58.0354 39.5729 56.492 39.2573 54.8058C39.1812 54.405 39.4899 54.0321 39.8989 54.0321H52.0903C52.4995 54.0321 52.8075 54.405 52.7326 54.8051C52.4161 56.4914 51.707 58.0348 50.4315 59.8103Z" fill="#E72931"/>
</svg>
