<svg width="44" height="44" viewBox="0 0 44 44" fill="none" xmlns="http://www.w3.org/2000/svg">
<g clip-path="url(#clip0_3766_1798)">
<path d="M12.476 16.1422H19.5125C22.5198 19.0845 21.5164 19.0714 24.5165 16.1422H31.5531C31.9385 16.1423 32.3202 16.0664 32.6763 15.9189C33.0324 15.7715 33.356 15.5553 33.6286 15.2828C33.9011 15.0102 34.1173 14.6866 34.2648 14.3305C34.4122 13.9744 34.4881 13.5927 34.488 13.2072V2.93494C34.4881 2.54949 34.4123 2.16779 34.2648 1.81166C34.1173 1.45553 33.9012 1.13194 33.6286 0.859389C33.356 0.586834 33.0325 0.370652 32.6763 0.223195C32.3202 0.0757377 31.9385 -0.000104969 31.5531 1.09038e-07H12.476C12.0905 -0.000104969 11.7088 0.0757377 11.3527 0.223195C10.9965 0.370652 10.673 0.586834 10.4004 0.859389C10.1278 1.13194 9.91167 1.45553 9.76421 1.81166C9.61675 2.16779 9.54091 2.54949 9.54102 2.93494V13.2072C9.54092 13.5927 9.61677 13.9744 9.76423 14.3305C9.91169 14.6866 10.1279 15.0102 10.4004 15.2828C10.673 15.5553 10.9966 15.7715 11.3527 15.9189C11.7088 16.0664 12.0905 16.1423 12.476 16.1422V16.1422ZM30.0856 13.2072H27.8844C27.6917 13.2044 27.5078 13.1258 27.3725 12.9885C27.2373 12.8512 27.1615 12.6662 27.1615 12.4735C27.1615 12.2807 27.2373 12.0957 27.3726 11.9584C27.5078 11.8212 27.6917 11.7426 27.8844 11.7398H30.0856C30.2783 11.7426 30.4621 11.8212 30.5974 11.9585C30.7327 12.0958 30.8085 12.2808 30.8085 12.4735C30.8085 12.6662 30.7327 12.8512 30.5974 12.9885C30.4621 13.1258 30.2783 13.2044 30.0856 13.2072V13.2072ZM30.0856 6.60361H27.8844C27.6917 6.60075 27.5078 6.52218 27.3725 6.38489C27.2373 6.24759 27.1615 6.06259 27.1615 5.86986C27.1615 5.67712 27.2373 5.49213 27.3726 5.35484C27.5078 5.21755 27.6917 5.139 27.8844 5.13614H30.0856C30.2783 5.139 30.4621 5.21756 30.5974 5.35485C30.7327 5.49214 30.8085 5.67714 30.8085 5.86988C30.8085 6.06261 30.7327 6.24761 30.5974 6.3849C30.4621 6.52219 30.2783 6.60075 30.0856 6.60361V6.60361ZM25.6832 2.93494H30.0856C30.2783 2.9378 30.4621 3.01636 30.5974 3.15365C30.7327 3.29094 30.8085 3.47594 30.8085 3.66867C30.8085 3.86141 30.7327 4.04641 30.5974 4.1837C30.4621 4.32099 30.2783 4.39955 30.0856 4.40241H25.6832C25.4905 4.39955 25.3066 4.32099 25.1713 4.1837C25.0361 4.04641 24.9602 3.86141 24.9602 3.66867C24.9602 3.47594 25.0361 3.29094 25.1713 3.15365C25.3066 3.01636 25.4905 2.9378 25.6832 2.93494V2.93494ZM25.6832 9.53855H30.0856C30.2783 9.54141 30.4621 9.61997 30.5974 9.75726C30.7327 9.89455 30.8085 10.0795 30.8085 10.2723C30.8085 10.465 30.7327 10.65 30.5974 10.7873C30.4621 10.9246 30.2783 11.0032 30.0856 11.006H25.6832C25.4905 11.0032 25.3066 10.9246 25.1713 10.7873C25.0361 10.65 24.9602 10.465 24.9602 10.2723C24.9602 10.0795 25.0361 9.89455 25.1713 9.75726C25.3066 9.61997 25.4905 9.54141 25.6832 9.53855V9.53855ZM18.8668 10.0595L15.9318 12.9944C15.7925 13.1304 15.6056 13.2065 15.4109 13.2065C15.2163 13.2065 15.0293 13.1304 14.89 12.9944L13.4225 11.527C13.2889 11.3879 13.215 11.2019 13.2169 11.0091C13.2188 10.8162 13.2963 10.6317 13.4327 10.4953C13.5691 10.3589 13.7536 10.2814 13.9465 10.2795C14.1393 10.2776 14.3253 10.3514 14.4644 10.4851L15.4109 11.4389L17.8249 9.0176C17.9639 8.8837 18.1499 8.80971 18.343 8.81153C18.536 8.81335 18.7206 8.89084 18.8571 9.02732C18.9935 9.16381 19.071 9.34841 19.0728 9.54142C19.0747 9.73444 19.0007 9.92046 18.8668 10.0595ZM14.4644 4.61525L15.4109 5.56904L17.8249 3.14772C17.9639 3.01371 18.15 2.93962 18.343 2.94138C18.5361 2.94315 18.7208 3.02064 18.8573 3.15717C18.9939 3.29371 19.0714 3.47838 19.0731 3.67147C19.0749 3.86455 19.0008 4.05061 18.8668 4.18962L15.9318 7.12456C15.7928 7.26097 15.6057 7.33737 15.4109 7.33737C15.2161 7.33737 15.0291 7.26097 14.89 7.12456L13.4225 5.65709C13.2886 5.51807 13.2146 5.33205 13.2164 5.13902C13.2182 4.946 13.2957 4.7614 13.4322 4.6249C13.5687 4.4884 13.7533 4.41092 13.9463 4.4091C14.1393 4.40728 14.3253 4.48129 14.4644 4.61519V4.61525Z" fill="#525252"/>
<path d="M41.0914 19.0771H38.105C38.3701 19.5364 38.5701 20.0303 38.6994 20.5446H41.0914C41.4776 20.5492 41.8464 20.7058 42.1178 20.9805C42.3893 21.2552 42.5416 21.6259 42.5416 22.0121C42.5416 22.3983 42.3893 22.7689 42.1178 23.0436C41.8464 23.3183 41.4776 23.4749 41.0914 23.4795L38.6994 23.4796C38.3865 24.68 37.7021 25.7507 36.7441 26.5388C35.786 27.3268 34.6034 27.7918 33.3651 27.8673C33.1108 28.3184 32.7409 28.6935 32.2933 28.954C31.8458 29.2146 31.3369 29.351 30.8191 29.3494H13.2095C12.6916 29.351 12.1827 29.2146 11.7352 28.954C11.2877 28.6935 10.9177 28.3184 10.6634 27.8673C9.42481 27.793 8.24156 27.3284 7.28329 26.5402C6.32501 25.752 5.64094 24.6806 5.32914 23.4796H2.93717C2.55098 23.475 2.18216 23.3184 1.91068 23.0437C1.63921 22.769 1.48696 22.3983 1.48696 22.0121C1.48696 21.6259 1.63921 21.2552 1.91068 20.9805C2.18216 20.7058 2.55098 20.5492 2.93717 20.5446H5.32914C5.45678 20.0298 5.65691 19.5357 5.92351 19.0771H2.93717C2.20888 19.0764 1.50635 19.3466 0.966169 19.835C0.425993 20.3235 0.0867818 20.9954 0.0144956 21.7201C-0.0577907 22.4448 0.142014 23.1705 0.575058 23.756C1.0081 24.3416 1.64344 24.7452 2.35752 24.8883L6.62786 40.7663C6.88258 41.7005 7.43693 42.5251 8.20575 43.1137C8.97458 43.7022 9.91535 44.0221 10.8836 44.0241H33.1451C34.1133 44.022 35.054 43.7022 35.8228 43.1136C36.5916 42.5251 37.146 41.7004 37.4007 40.7663L41.6711 24.8883C42.379 24.7384 43.0067 24.3325 43.4338 23.7483C43.8609 23.1642 44.0573 22.443 43.9855 21.7229C43.9137 21.0029 43.5786 20.3347 43.0445 19.8465C42.5104 19.3582 41.8149 19.0843 41.0914 19.0771V19.0771ZM16.8781 38.1542C16.8714 38.7336 16.6366 39.287 16.2245 39.6944C15.8124 40.1017 15.2563 40.3302 14.6769 40.3301C14.0975 40.3301 13.5414 40.1017 13.1293 39.6943C12.7173 39.287 12.4824 38.7336 12.4757 38.1542V33.7518C12.4824 33.1724 12.7173 32.6191 13.1294 32.2117C13.5414 31.8044 14.0975 31.5759 14.6769 31.5759C15.2564 31.5759 15.8124 31.8044 16.2245 32.2117C16.6366 32.6191 16.8714 33.1725 16.8781 33.7519V38.1542ZM24.2155 38.1542C24.2088 38.7336 23.9739 39.287 23.5618 39.6944C23.1497 40.1017 22.5937 40.3302 22.0142 40.3301C21.4348 40.3301 20.8787 40.1017 20.4667 39.6943C20.0546 39.287 19.8197 38.7336 19.8131 38.1542V33.7518C19.8198 33.1724 20.0546 32.6191 20.4667 32.2117C20.8788 31.8044 21.4349 31.5759 22.0143 31.5759C22.5937 31.5759 23.1498 31.8044 23.5619 32.2117C23.9739 32.6191 24.2088 33.1725 24.2155 33.7519V38.1542ZM31.5528 38.1542C31.5461 38.7336 31.3113 39.287 30.8992 39.6944C30.4871 40.1017 29.931 40.3302 29.3516 40.3301C28.7722 40.3301 28.2161 40.1017 27.804 39.6943C27.3919 39.287 27.1571 38.7336 27.1504 38.1542V33.7518C27.1571 33.1724 27.392 32.6191 27.8041 32.2117C28.2161 31.8044 28.7722 31.5759 29.3516 31.5759C29.9311 31.5759 30.4871 31.8044 30.8992 32.2117C31.3113 32.6191 31.5461 33.1725 31.5528 33.7519V38.1542Z" fill="#525252"/>
<path d="M27.3413 20.545C27.469 20.0302 27.6691 19.5361 27.9357 19.0776H16.0931C16.3582 19.5368 16.5583 20.0307 16.6875 20.545H27.3413ZM15.1539 23.4798C15.384 22.8162 15.4527 22.1073 15.3543 21.4119C15.2558 20.7165 14.9932 20.0545 14.588 19.4808C14.1828 18.9071 13.6468 18.4382 13.0243 18.1128C12.4018 17.7875 11.7108 17.6152 11.0084 17.6101C7.26289 17.5361 5.18779 22.2587 7.73595 24.9474C8.24854 25.5088 8.89722 25.9285 9.61935 26.1659C10.3415 26.4034 11.1126 26.4507 11.8583 26.3031C12.6041 26.1556 13.2991 25.8183 13.8764 25.3237C14.4537 24.8291 14.8937 24.1941 15.1539 23.4798ZM29.748 19.0776C25.9902 23.5293 32.2754 29.1624 36.2928 24.9474C40.0517 20.4951 33.7615 14.859 29.748 19.0776Z" fill="#525252"/>
<path d="M12.4902 27.6911C12.7084 27.8182 12.9568 27.8841 13.2093 27.8819H30.8189C31.0679 27.8821 31.3128 27.819 31.5306 27.6985C30.522 27.4277 29.603 26.8947 28.8672 26.1537C28.1313 25.4127 27.6047 24.49 27.341 23.4795H16.6872C16.4243 24.4908 15.897 25.4139 15.1595 26.1541C14.4219 26.8942 13.5006 27.4247 12.4902 27.6911V27.6911Z" fill="#525252"/>
</g>
<defs>
<clipPath id="clip0_3766_1798">
<rect width="44" height="44" fill="white"/>
</clipPath>
</defs>
</svg>
