<svg width="36" height="36" viewBox="0 0 36 36" fill="none" xmlns="http://www.w3.org/2000/svg">
<path d="M30.4839 22.6416C26.9406 9.76182 15.4669 4.19373 8.49275 5.09362C5.39937 5.48732 3.43085 7.17463 3.26212 9.64933C1.23735 10.1555 0 11.1679 0 12.4053C0 14.5988 3.59958 15.3862 5.79307 15.3862C20.8663 16.0048 26.7719 23.3727 27.4468 24.3851C27.728 27.6472 28.3467 31.4155 29.8652 31.4155C31.2713 31.4155 31.3276 28.6596 31.3276 27.2535C33.1274 27.5347 35.0959 27.7035 35.7146 27.1973C37.2331 25.9599 32.2837 23.5415 30.4839 22.6416ZM8.66148 9.64933C8.26778 10.043 7.70534 10.043 7.31164 9.64933C6.91794 9.25563 6.97418 8.63695 7.31164 8.29949C7.6491 7.96203 8.32402 7.96203 8.66148 8.29949C9.05519 8.6932 9.05519 9.25563 8.66148 9.64933Z" fill="#E51C24"/>
<path d="M17.1542 18.7044C16.0856 20.5042 16.0856 22.3603 16.0856 22.4165C16.0856 22.6415 15.9731 22.8664 15.7482 22.9227C15.6919 22.9789 15.5794 22.9789 15.5232 22.9789C15.4107 22.9789 15.242 22.9227 15.1295 22.8664C12.936 20.9542 12.0923 18.7044 11.7549 17.1859C13.8359 17.5796 15.6357 18.142 17.1542 18.7044ZM28.7966 6.78083C28.7966 7.00581 28.6841 7.23078 28.4592 7.28702C28.4029 7.28702 25.8157 8.41189 24.6909 10.4367C22.8911 8.69311 20.9788 7.28702 18.954 6.2184C20.7538 5.37475 24.0722 4.5311 28.5154 6.27464C28.6279 6.33089 28.7404 6.55586 28.7966 6.78083Z" fill="#E51C24"/>
</svg>
