<svg width="36" height="42" viewBox="0 0 36 42" fill="none" xmlns="http://www.w3.org/2000/svg">
<path d="M12.8203 14.9593C12.8203 12.0995 15.1387 9.78125 17.9983 9.78125C20.858 9.78125 23.1764 12.0995 23.1764 14.9593C23.1764 17.8189 20.858 20.1373 17.9983 20.1373C15.1387 20.1373 12.8203 17.8189 12.8203 14.9593Z" fill="#626262"/>
<path fill-rule="evenodd" clip-rule="evenodd" d="M17.6255 0C10.2558 0 4.1181 5.65264 3.51266 12.9975C3.1872 16.946 4.40684 20.8666 6.91474 23.9338L15.1877 34.0512C16.6403 35.8278 19.3564 35.8278 20.8092 34.0512L29.0819 23.9338C31.5899 20.8666 32.8096 16.946 32.484 12.9975C31.8787 5.65264 25.7408 0 18.3712 0H17.6255ZM17.9984 6.32871C13.2321 6.32871 9.3683 10.1925 9.3683 14.9588C9.3683 19.7251 13.2321 23.5888 17.9984 23.5888C22.7647 23.5888 26.6284 19.7251 26.6284 14.9588C26.6284 10.1925 22.7647 6.32871 17.9984 6.32871Z" fill="#626262"/>
<path d="M7.26467 29.5247C8.11727 29.9509 8.46286 30.9877 8.03656 31.8403L4.68283 38.5478H31.3163L27.9625 31.8403C27.5361 30.9877 27.8817 29.9509 28.7344 29.5247C29.587 29.0983 30.6238 29.4439 31.05 30.2966L35.6527 39.502C35.9203 40.037 35.8916 40.6724 35.5772 41.1813C35.2626 41.6901 34.7071 41.9999 34.1089 41.9999H1.89008C1.29189 41.9999 0.736342 41.6901 0.42184 41.1813C0.107361 40.6724 0.0787547 40.037 0.346286 39.502L4.94898 30.2966C5.37528 29.4439 6.41206 29.0983 7.26467 29.5247Z" fill="#E72931"/>
</svg>
