<svg width="44" height="42" viewBox="0 0 44 42" fill="none" xmlns="http://www.w3.org/2000/svg">
<rect x="20.4219" y="13.6499" width="22.7498" height="24.4998" rx="4" fill="#626262"/>
<rect x="23.9688" y="18.375" width="15.7499" height="9.18744" fill="white"/>
<circle cx="26.1984" cy="32.3752" r="1.92499" fill="white"/>
<circle cx="37.3976" cy="32.3752" r="1.92499" fill="white"/>
<path d="M24.2734 40.0749L26.1984 38.1499H29.8734H33.7234H37.3983L39.3233 40.0749V41.9999H37.5733L33.7234 38.1499H29.8734L26.0234 41.9999H24.2734V40.0749Z" fill="black"/>
<path d="M3.4492 4.25258L20.9491 8.10256C23.3407 5.71092 28.159 0.927626 28.299 0.927608C29.979 -0.75238 31.6823 0.227613 32.324 0.927608C33.444 2.3276 33.024 3.84425 32.674 4.42758L25.849 11.4275C19.4091 11.4275 17.7991 16.6775 17.7991 19.3025L11.4991 25.7774L12.1991 30.3274L10.2742 32.2524L6.77418 26.3024L0.824219 22.9775L2.9242 20.8775L7.47417 21.7525L14.8241 14.2275L0.824219 6.87757L3.4492 4.25258Z" fill="#E72931"/>
</svg>
