<svg width="44" height="48" viewBox="0 0 44 48" fill="none" xmlns="http://www.w3.org/2000/svg">
<path d="M5.15289 19.4641C5.23736 18.4116 5.71517 17.4295 6.49116 16.7134C7.26716 15.9974 8.28439 15.5999 9.34029 15.6001H34.6621C35.718 15.5999 36.7352 15.9974 37.5112 16.7134C38.2872 17.4295 38.765 18.4116 38.8495 19.4641L40.5358 40.4641C40.5822 41.042 40.5084 41.6233 40.3191 42.1712C40.1299 42.7192 39.8292 43.2221 39.436 43.6482C39.0429 44.0743 38.5658 44.4144 38.0347 44.6471C37.5037 44.8797 36.9303 44.9999 36.3505 45.0001H7.65189C7.07212 44.9999 6.49867 44.8797 5.96764 44.6471C5.43661 44.4144 4.9595 44.0743 4.56635 43.6482C4.1732 43.2221 3.87252 42.7192 3.68325 42.1712C3.49397 41.6233 3.42021 41.042 3.46659 40.4641L5.15289 19.4641V19.4641Z" stroke="#626262" stroke-width="5" stroke-linecap="round" stroke-linejoin="round"/>
<path d="M30.4016 21.9V11.4C30.4016 9.17218 29.5166 7.03561 27.9413 5.4603C26.366 3.885 24.2294 3 22.0016 3C19.7737 3 17.6372 3.885 16.0619 5.4603C14.4866 7.03561 13.6016 9.17218 13.6016 11.4V21.9" stroke="#E51C24" stroke-width="5" stroke-linecap="round" stroke-linejoin="round"/>
</svg>
