<svg width="42" height="42" viewBox="0 0 42 42" fill="none" xmlns="http://www.w3.org/2000/svg">
<path d="M26.0001 41.9998L12 38.0998V40.9998H0V18.9998H15.9001L28.3001 23.5998C29.4001 23.9998 30.2921 24.6998 30.9761 25.6998C31.6588 26.6998 32.0001 27.7998 32.0001 28.9998H36.0001C37.6668 28.9998 39.0835 29.5498 40.2501 30.6498C41.4168 31.7498 42.0002 33.1998 42.0002 34.9998V36.9998L26.0001 41.9998ZM4.00001 36.9998H8.00003V22.9998H4.00001V36.9998ZM25.9001 37.7998L37.8001 34.0998C37.7001 33.7331 37.4748 33.4578 37.1241 33.2738C36.7748 33.0911 36.4001 32.9998 36.0001 32.9998H26.4001C25.3668 32.9998 24.4334 32.9331 23.6001 32.7998C22.7668 32.6665 21.8667 32.4331 20.9001 32.0998L17.4501 30.8998L18.6001 27.0998L22.6001 28.3998C23.2001 28.5998 23.9001 28.7498 24.7001 28.8498C25.5001 28.9498 26.6001 28.9998 28.0001 28.9998C28.0001 28.6331 27.8921 28.2831 27.6761 27.9498C27.4588 27.6165 27.2001 27.3998 26.9001 27.2998L15.2001 22.9998H12V33.9998L25.9001 37.7998Z" fill="#626262"/>
<path d="M26.0001 41.9998L12 38.0998V40.9998H0V18.9998H15.9001L28.3001 23.5998C29.4001 23.9998 30.2921 24.6998 30.9761 25.6998C31.6588 26.6998 32.0001 27.7998 32.0001 28.9998H36.0001C37.6668 28.9998 39.0835 29.5498 40.2501 30.6498C41.4168 31.7498 42.0002 33.1998 42.0002 34.9998V36.9998L26.0001 41.9998ZM4.00001 36.9998H8.00003V22.9998H4.00001V36.9998ZM25.9001 37.7998L37.8001 34.0998C37.7001 33.7331 37.4748 33.4578 37.1241 33.2738C36.7748 33.0911 36.4001 32.9998 36.0001 32.9998H26.4001C25.3668 32.9998 24.4334 32.9331 23.6001 32.7998C22.7668 32.6665 21.8667 32.4331 20.9001 32.0998L17.4501 30.8998L18.6001 27.0998L22.6001 28.3998C23.2001 28.5998 23.9001 28.7498 24.7001 28.8498C25.5001 28.9498 26.6001 28.9998 28.0001 28.9998C28.0001 28.6331 27.8921 28.2831 27.6761 27.9498C27.4588 27.6165 27.2001 27.3998 26.9001 27.2998L15.2001 22.9998H12V33.9998L25.9001 37.7998Z" stroke="white"/>
<path d="M11.8125 9.84379V15.0938H15.75V11.8125L25.5938 5.25002L36.0938 11.8125V24.9376H40.0314V9.84379L25.5938 0L11.8125 9.84379Z" fill="#E51C24"/>
<rect x="22.3125" y="11.8125" width="2.62501" height="2.62501" fill="#E51C24"/>
<rect x="22.3125" y="15.75" width="2.62501" height="2.62501" fill="#E51C24"/>
<rect x="26.25" y="11.8125" width="2.62501" height="2.62501" fill="#E51C24"/>
<rect x="26.25" y="15.75" width="2.62501" height="2.62501" fill="#E51C24"/>
</svg>
