<svg width="46" height="42" viewBox="0 0 46 42" fill="none" xmlns="http://www.w3.org/2000/svg">
<path d="M23.0016 17.5848C28.0686 12.4904 40.7391 21.4033 23.0016 32.8649C5.26408 21.4033 17.9346 12.4904 23.0016 17.5848Z" fill="#E51C24"/>
<path d="M25.1519 0.891555C24.5809 0.320693 23.8065 0 22.999 0C22.1916 0 21.4172 0.320693 20.8462 0.891555L0.605584 21.1291C0.320096 21.415 0.159871 21.8026 0.160157 22.2066C0.160442 22.6106 0.321215 22.998 0.607106 23.2835C0.892997 23.569 1.28059 23.7292 1.68461 23.7289C2.08864 23.7286 2.47601 23.5678 2.76149 23.282L4.72861 21.3148V37.4324C4.72861 38.6438 5.20984 39.8056 6.06643 40.6622C6.92302 41.5188 8.08481 42 9.29621 42H36.7018C37.9132 42 39.075 41.5188 39.9316 40.6622C40.7882 39.8056 41.2694 38.6438 41.2694 37.4324V21.3148L43.2366 23.282C43.522 23.5678 43.9094 23.7286 44.3134 23.7289C44.7175 23.7292 45.1051 23.569 45.3909 23.2835C45.6768 22.998 45.8376 22.6106 45.8379 22.2066C45.8382 21.8026 45.678 21.415 45.3925 21.1291L38.2244 13.964V3.93663C38.2244 3.53282 38.064 3.14556 37.7784 2.86003C37.4929 2.5745 37.1056 2.41409 36.7018 2.41409H33.6568C33.253 2.41409 32.8657 2.5745 32.5802 2.86003C32.2946 3.14556 32.1342 3.53282 32.1342 3.93663V7.8739L25.1519 0.891555ZM38.2244 18.2698V37.4324C38.2244 37.8362 38.064 38.2235 37.7784 38.509C37.4929 38.7945 37.1056 38.9549 36.7018 38.9549H9.29621C8.89241 38.9549 8.50515 38.7945 8.21962 38.509C7.93409 38.2235 7.77368 37.8362 7.77368 37.4324V18.2698L22.999 3.04442L38.2244 18.2698Z" fill="#626262"/>
</svg>
