<svg width="36" height="36" viewBox="0 0 36 36" fill="none" xmlns="http://www.w3.org/2000/svg">
<g clip-path="url(#clip0_3772_289)">
<path d="M2.28903 1.87345C2.23599 1.92487 2.1936 1.98624 2.16429 2.05405C2.13497 2.12186 2.11931 2.19478 2.11818 2.26865C2.11706 2.34251 2.1305 2.41588 2.15774 2.48455C2.18498 2.55322 2.22548 2.61585 2.27693 2.66886L3.15226 3.57167C3.2037 3.62469 3.26507 3.66706 3.33288 3.69636C3.40069 3.72566 3.4736 3.74132 3.54747 3.74244C3.62133 3.74357 3.69468 3.73013 3.76335 3.7029C3.83202 3.67567 3.89465 3.63519 3.94767 3.58375C4.00069 3.53232 4.04306 3.47094 4.07236 3.40314C4.10167 3.33533 4.11733 3.26241 4.11845 3.18855C4.11957 3.11469 4.10613 3.04133 4.0789 2.97266C4.05168 2.904 4.01119 2.84136 3.95976 2.78834L3.08442 1.88553C3.033 1.8325 2.97163 1.79011 2.90382 1.7608C2.83601 1.73149 2.76309 1.71582 2.68923 1.7147C2.61536 1.71358 2.542 1.72702 2.47333 1.75426C2.40467 1.7815 2.34204 1.822 2.28903 1.87345V1.87345ZM0.597688 5.98562C0.44925 5.98572 0.306867 6.04448 0.201569 6.1491C0.0962713 6.25373 0.036594 6.39573 0.0355431 6.54417C0.0344922 6.6926 0.0921528 6.83543 0.195959 6.94154C0.299765 7.04764 0.441301 7.10842 0.589723 7.11062L1.89572 7.12984H1.90423C2.05267 7.12974 2.19505 7.07098 2.30035 6.96636C2.40565 6.86173 2.46532 6.71973 2.46637 6.5713C2.46743 6.42286 2.40977 6.28003 2.30596 6.17392C2.20215 6.06782 2.06062 6.00704 1.9122 6.00485L0.606204 5.98562H0.597688ZM7.17382 2.38267C7.31758 2.38253 7.45584 2.32734 7.56019 2.22846C7.66454 2.12957 7.72707 1.99448 7.73494 1.85093L7.80361 0.593277C7.80765 0.519517 7.79712 0.445684 7.77262 0.375992C7.74813 0.306301 7.71015 0.242117 7.66085 0.187104C7.61155 0.132091 7.5519 0.0873275 7.4853 0.0553686C7.4187 0.0234097 7.34646 0.00488144 7.2727 0.000841771C7.19893 -0.0031979 7.1251 0.00733011 7.05541 0.0318247C6.98572 0.0563193 6.92153 0.0943007 6.86652 0.143601C6.75542 0.243166 6.68842 0.382789 6.68026 0.531754L6.6116 1.78941C6.60755 1.86317 6.61808 1.93701 6.64257 2.0067C6.66707 2.07639 6.70505 2.14058 6.75435 2.19559C6.80365 2.2506 6.8633 2.29537 6.9299 2.32732C6.9965 2.35928 7.06875 2.37781 7.14251 2.38185C7.15294 2.38239 7.16337 2.38267 7.17382 2.38267ZM0.687502 4.00781C0.658709 4.07584 0.643599 4.14887 0.643035 4.22274C0.642471 4.2966 0.656464 4.36985 0.684215 4.43831C0.711965 4.50677 0.75293 4.56909 0.80477 4.62171C0.856609 4.67433 0.918307 4.71623 0.98634 4.745L2.16682 5.2446C2.30415 5.30245 2.45882 5.30343 2.59688 5.24734C2.73494 5.19125 2.84509 5.08266 2.90316 4.94542C2.96123 4.80818 2.96246 4.65351 2.90659 4.51537C2.85072 4.37722 2.74231 4.26689 2.60517 4.2086L1.42468 3.70899C1.28728 3.65099 1.13249 3.64989 0.994278 3.70591C0.856066 3.76194 0.745734 3.87052 0.687502 4.00781V4.00781ZM5.24709 2.71776C5.33776 2.71759 5.42706 2.69553 5.50739 2.65345C5.58771 2.61137 5.65669 2.55053 5.70846 2.47608C5.76023 2.40163 5.79326 2.31578 5.80475 2.22584C5.81623 2.13589 5.80583 2.0445 5.77443 1.95943L5.34074 0.789117C5.28888 0.649257 5.18358 0.535729 5.04801 0.473507C4.91244 0.411285 4.7577 0.405467 4.61784 0.457331C4.47798 0.509196 4.36445 0.614496 4.30223 0.750066C4.24001 0.885635 4.23419 1.04037 4.28606 1.18023L4.71974 2.35054C4.75963 2.45828 4.83154 2.55122 4.92582 2.61686C5.02009 2.68251 5.13221 2.71772 5.24709 2.71776V2.71776ZM9.04147 2.76636C9.14748 2.76637 9.25133 2.73645 9.34108 2.68003C9.43082 2.62362 9.50282 2.54301 9.54877 2.44748L10.1049 1.29007C10.1696 1.15561 10.1781 1.00098 10.1287 0.860204C10.0793 0.719432 9.97602 0.604049 9.84155 0.539436C9.70708 0.474824 9.55245 0.466276 9.41168 0.515673C9.27091 0.565069 9.15552 0.668364 9.09091 0.802833L8.53473 1.96024C8.49354 2.04597 8.47476 2.14074 8.48014 2.2357C8.48553 2.33066 8.5149 2.4227 8.56552 2.50323C8.61614 2.58375 8.68634 2.65012 8.76958 2.69614C8.85282 2.74216 8.94637 2.76632 9.04148 2.76636L9.04147 2.76636ZM2.01245 7.98925L0.78885 8.47759C0.720248 8.50496 0.657709 8.54558 0.604806 8.59713C0.551902 8.64867 0.509668 8.71013 0.480517 8.778C0.451366 8.84587 0.435867 8.91881 0.434906 8.99267C0.433945 9.06652 0.447541 9.13985 0.474917 9.20845C0.502293 9.27705 0.542913 9.33959 0.594458 9.39249C0.646003 9.4454 0.707464 9.48763 0.77533 9.51678C0.843197 9.54593 0.916141 9.56143 0.989998 9.56239C1.06385 9.56335 1.13718 9.54976 1.20578 9.52238L2.42938 9.03405C2.56793 8.97876 2.67884 8.8707 2.73771 8.73363C2.79659 8.59657 2.7986 8.44173 2.74332 8.30318C2.68803 8.16463 2.57996 8.05372 2.4429 7.99485C2.30584 7.93597 2.151 7.93396 2.01245 7.98925ZM3.15393 6.68298C3.13696 7.17913 3.22107 7.67355 3.40115 8.13617C3.58123 8.5988 3.85352 9.01997 4.20147 9.37408C4.25954 9.43353 4.3302 9.47922 4.40825 9.50779C4.6085 9.20776 4.82127 8.91677 5.0409 8.63109C5.03011 8.6177 5.02116 8.60334 5.00896 8.59076C4.7659 8.34384 4.57577 8.04993 4.4502 7.72702C4.32463 7.4041 4.26626 7.05896 4.27865 6.71271C4.29104 6.36646 4.37394 6.02637 4.52227 5.71326C4.67061 5.40015 4.88126 5.12058 5.14134 4.89167C5.67357 4.41915 6.36413 4.16421 7.07573 4.17756C7.78733 4.19091 8.46784 4.47156 8.98198 4.96372C9.29501 4.75683 9.61444 4.55879 9.94244 4.37307C9.9177 4.32184 9.88526 4.27471 9.84623 4.23332C9.13205 3.51082 8.16801 3.08968 7.15265 3.05662C6.13729 3.02356 5.1479 3.3811 4.38824 4.05561C4.01515 4.38701 3.71333 4.79082 3.50115 5.24248C3.28896 5.69415 3.17083 6.18424 3.15393 6.68298ZM13.3774 35.7395C13.4586 35.8641 13.5854 35.9519 13.7306 35.9841C13.8758 36.0164 14.0278 35.9905 14.1542 35.912C14.28 35.8318 14.3689 35.705 14.4012 35.5593C14.4335 35.4137 14.4067 35.2611 14.3266 35.1353L12.9081 32.9061H13.0278C13.2109 32.9062 13.3913 32.8616 13.5533 32.7761C13.7152 32.6906 13.8538 32.5668 13.9571 32.4155C14.0603 32.2643 14.1251 32.0901 14.1457 31.9081C14.1663 31.7261 14.1421 31.5419 14.0753 31.3714L13.3906 29.6215C13.309 29.4103 13.1651 29.2288 12.978 29.1011C12.791 28.9735 12.5695 28.9056 12.3431 28.9066H8.71511L3.42192 22.3395C3.32446 22.2188 3.20308 22.1194 3.06539 22.0478C2.92771 21.9762 2.7767 21.9339 2.62186 21.9234C2.46702 21.913 2.31169 21.9347 2.16563 21.9871C2.01958 22.0396 1.88595 22.1217 1.77315 22.2283L0.351803 23.5725C0.143141 23.77 0.017914 24.0399 0.00177788 24.3267C-0.0143583 24.6136 0.079818 24.8958 0.265013 25.1155L6.40539 32.3905L4.6587 35.1353C4.57861 35.2612 4.55179 35.4137 4.58414 35.5593C4.61648 35.705 4.70535 35.8318 4.83119 35.912C4.95761 35.9901 5.10953 36.0158 5.2546 35.9836C5.39967 35.9513 5.52644 35.8638 5.60792 35.7395L7.41098 32.9062H11.5744L13.3774 35.7395ZM8.54682 30.0128C8.60245 30.0233 8.6588 30.0296 8.71539 30.0316L12.3431 30.0313L13.0278 31.7812H7.72291L8.54682 30.0128ZM34.2265 22.2283C34.1138 22.1216 33.9801 22.0394 33.834 21.9869C33.688 21.9344 33.5326 21.9127 33.3777 21.9232C33.2228 21.9337 33.0718 21.9761 32.9341 22.0478C32.7965 22.1195 32.6751 22.2189 32.5777 22.3398L27.3291 28.8513C27.3105 28.8685 27.2931 28.887 27.277 28.9066H23.6566C23.4301 28.9056 23.2087 28.9735 23.0216 29.1011C22.8346 29.2288 22.6907 29.4103 22.6091 29.6215L21.9243 31.3711C21.8576 31.5416 21.8334 31.7259 21.854 31.9079C21.8747 32.0898 21.9394 32.264 22.0426 32.4153C22.1459 32.5666 22.2845 32.6904 22.4464 32.7759C22.6084 32.8615 22.7887 32.9062 22.9719 32.9061H23.0816L21.6631 35.1353C21.5829 35.2611 21.5561 35.4137 21.5884 35.5594C21.6208 35.705 21.7097 35.8319 21.8356 35.912C21.9614 35.9921 22.114 36.019 22.2596 35.9866C22.4053 35.9543 22.5322 35.8654 22.6123 35.7395L24.4153 32.9061H28.5787L30.3818 35.7395C30.4215 35.8018 30.473 35.8557 30.5335 35.8981C30.594 35.9405 30.6623 35.9706 30.7344 35.9866C30.8066 36.0026 30.8811 36.0043 30.9539 35.9915C31.0267 35.9787 31.0962 35.9517 31.1585 35.912C31.2209 35.8723 31.2748 35.8208 31.3171 35.7602C31.3595 35.6997 31.3896 35.6315 31.4056 35.5594C31.4216 35.4872 31.4233 35.4126 31.4105 35.3399C31.3977 35.2671 31.3707 35.1976 31.331 35.1353L29.5886 32.3972L35.7347 25.1155C35.92 24.8959 36.0142 24.6136 35.9981 24.3267C35.9819 24.0398 35.8566 23.7699 35.6479 23.5725L34.2265 22.2283ZM22.9719 31.7812L23.6566 30.0316H27.2845C27.3378 30.0295 27.3909 30.0235 27.4434 30.0138L28.2668 31.7812H22.9719Z" fill="#E51C24"/>
<path d="M24.4687 27.0004V24.7504C24.4687 24.6012 24.4094 24.4581 24.3039 24.3526C24.1985 24.2472 24.0554 24.1879 23.9062 24.1879H12.0937C11.9446 24.1879 11.8015 24.2472 11.696 24.3526C11.5905 24.4581 11.5313 24.6012 11.5312 24.7504V27.0004C11.5313 27.1496 11.5905 27.2926 11.696 27.3981C11.8015 27.5036 11.9446 27.5629 12.0937 27.5629H17.4375V35.4378C17.4375 35.587 17.4967 35.7301 17.6022 35.8356C17.7077 35.9411 17.8508 36.0003 18 36.0003C18.1492 36.0003 18.2922 35.9411 18.3977 35.8356C18.5032 35.7301 18.5625 35.587 18.5625 35.4378V27.5629H23.9062C24.0554 27.5629 24.1985 27.5036 24.3039 27.3981C24.4094 27.2926 24.4687 27.1496 24.4687 27.0004ZM18.014 17.0498C17.8206 17.0492 17.6275 17.0671 17.4375 17.1033V23.0629H18.5625V17.0976C18.3814 17.066 18.1979 17.05 18.014 17.0498V17.0498Z" fill="#E51C24"/>
<path d="M27.7705 15.9243C28.7309 15.9221 29.6635 16.2471 30.4145 16.8458C31.1655 17.4444 31.6901 18.281 31.9021 19.2178C32.0315 19.8365 32.4927 19.8337 32.5827 19.8253C32.6995 19.8149 32.8109 19.7709 32.9033 19.6987C32.9933 19.6349 33.0668 19.5507 33.1176 19.4528C33.1685 19.355 33.1953 19.2465 33.1958 19.1362C33.2127 18.8465 33.2211 18.5709 33.224 18.3009C33.2605 10.3078 26.938 3.75187 18.8296 3.375H18.5624V2.8125C18.5624 2.66331 18.5032 2.52024 18.3977 2.41475C18.2922 2.30926 18.1491 2.25 17.9999 2.25C17.8508 2.25 17.7077 2.30926 17.6022 2.41475C17.4967 2.52024 17.4374 2.66331 17.4374 2.8125V3.375H17.339C9.2306 3.75187 2.84906 10.305 2.8125 18.2953C2.8125 18.4949 2.81531 18.6946 2.82094 18.8915C2.84344 19.5524 3.27094 19.6509 3.40031 19.6649C3.42458 19.6677 3.44901 19.6686 3.47342 19.6678C3.61967 19.6762 4.01061 19.634 4.16529 19.0574C4.41203 18.1575 4.94747 17.3635 5.68932 16.7975C6.43118 16.2314 7.33839 15.9247 8.27153 15.9243C9.30271 15.915 10.301 16.2867 11.0749 16.9682C11.8489 17.6497 12.3439 18.593 12.465 19.6171C12.4767 19.7502 12.5261 19.8771 12.6073 19.9832C12.6884 20.0892 12.7981 20.17 12.9234 20.2162C12.9885 20.2388 13.057 20.2502 13.1259 20.2499C13.2368 20.2493 13.3455 20.2192 13.4409 20.1628C13.4461 20.1597 13.4509 20.1559 13.455 20.1515C13.5484 20.1036 13.6289 20.0338 13.6896 19.9481C13.7503 19.8624 13.7894 19.7634 13.8037 19.6593C14.1537 17.6299 15.9203 15.9243 18.014 15.9243C18.939 15.9217 19.8392 16.2231 20.5762 16.7821C21.0138 17.1083 21.3827 17.5177 21.6617 17.9869C21.9406 18.456 22.1242 18.9756 22.2018 19.5159C22.1953 19.6825 22.2488 19.8459 22.3525 19.9765C22.4562 20.1071 22.6033 20.1961 22.7671 20.2274C22.8596 20.243 22.9543 20.2392 23.0452 20.2165C23.1362 20.1937 23.2214 20.1523 23.2957 20.095C23.3699 20.0377 23.4314 19.9657 23.4765 19.8834C23.5215 19.8012 23.5491 19.7105 23.5574 19.6171C23.6919 18.5951 24.1935 17.6569 24.9687 16.9775C25.7439 16.298 26.7397 15.9237 27.7705 15.9243V15.9243ZM22.874 17.8649C22.7183 17.5374 22.5299 17.2264 22.3115 16.9368C22.1877 9.71997 19.7184 6.20999 18.5624 4.95562V14.8303C18.3824 14.8134 18.1996 14.7993 18.014 14.7993C17.8213 14.8002 17.6288 14.8124 17.4374 14.8359V5.10468C16.2196 6.49124 13.8768 10.0434 13.7025 17.0099C13.4918 17.295 13.3081 17.5992 13.154 17.9184C12.9982 17.5744 12.8059 17.2481 12.5803 16.9453C12.7518 9.98435 14.985 6.24936 16.3884 4.58155C16.709 4.54499 17.0353 4.51687 17.3643 4.49999H18.7537C19.0856 4.51687 19.4146 4.54499 19.7381 4.58437C21.1274 6.25217 23.324 9.98997 23.4337 16.9481C23.2157 17.2334 23.0281 17.5407 22.874 17.8649V17.8649Z" fill="#E51C24"/>
</g>
<defs>
<clipPath id="clip0_3772_289">
<rect width="36" height="36" fill="white"/>
</clipPath>
</defs>
</svg>
