<svg width="36" height="36" viewBox="0 0 36 36" fill="none" xmlns="http://www.w3.org/2000/svg">
<g clip-path="url(#clip0_3772_289)">
<path d="M20.4001 22.2002H15.6001V27.0002H20.4001V22.2002Z" fill="#E51C24"/>
<path d="M16.7999 16.2002H14.3999V17.4002H16.7999V16.2002Z" fill="#E51C24"/>
<path d="M21.6002 16.2002H19.2002V17.4002H21.6002V16.2002Z" fill="#E51C24"/>
<path d="M16.7999 18.5996H14.3999V19.7996H16.7999V18.5996Z" fill="#E51C24"/>
<path d="M21.6002 18.5996H19.2002V19.7996H21.6002V18.5996Z" fill="#E51C24"/>
<path d="M4.2002 14.4H6.6002V27.6H12.6002V14.4H23.4002V27.6H29.4002V14.4H31.8002L18.6002 8.661V0L15.0002 1.2V2.7L11.4002 3.6L12.6002 4.2L11.4002 6L16.2002 4.8V3.1998L17.4002 2.8002V8.661L4.2002 14.4ZM10.2002 24.6H9.0002V23.4H10.2002V24.6ZM10.2002 22.2H9.0002V21H10.2002V22.2ZM10.2002 19.8H9.0002V18.6H10.2002V19.8ZM10.2002 17.4H9.0002V16.2H10.2002V17.4ZM25.8002 16.2H27.0002V17.4H25.8002V16.2ZM25.8002 18.6H27.0002V19.8H25.8002V18.6ZM25.8002 21H27.0002V22.2H25.8002V21ZM25.8002 23.4H27.0002V24.6H25.8002V23.4Z" fill="#E51C24"/>
<path d="M16.2 28.2002H5.4V30.6002L3 31.2002V33.0002L0 33.6002V36.0002H12.6L16.2 28.2002Z" fill="#E51C24"/>
<path d="M32.9998 31.2002L30.5998 30.6002V28.2002H19.7998L23.3998 36.0002H35.9998V33.6002L32.9998 33.0002V31.2002Z" fill="#E51C24"/>
</g>
<defs>
<clipPath id="clip0_3772_289">
<rect width="36" height="36" fill="white"/>
</clipPath>
</defs>
</svg>
