<svg width="64" height="64" viewBox="0 0 64 64" fill="none" xmlns="http://www.w3.org/2000/svg">
<path d="M30.102 45.5163L40.6245 60.1012C45.6193 57.5038 49.8149 53.3081 52.4787 48.3134L37.894 37.7244C37.0281 41.5871 33.9647 44.5839 30.102 45.5163ZM3.19678 22.4071L17.6483 33.0626C18.5141 29.2665 21.5777 26.2031 25.4402 25.3374L14.7848 10.8857C9.9231 13.4164 5.79407 17.5455 3.19678 22.4071Z" fill="#626262"/>
<path d="M19.3799 35.3945C19.3799 40.0563 23.176 43.8524 27.8378 43.8524C28.1707 43.8524 28.5038 43.8524 28.8368 43.7858C32.6994 43.3196 35.8295 40.1895 36.229 36.3268C36.2957 35.9939 36.2957 35.661 36.2957 35.3279C36.2957 30.666 32.4996 26.8701 27.8378 26.8701C27.5048 26.8701 27.1717 26.8701 26.8388 26.9366C22.9762 27.3363 19.8461 30.4663 19.3799 34.3955V35.3945ZM27.7712 31.0656C30.1687 31.0656 32.1666 33.0636 32.1666 35.4611C32.1666 37.8586 30.2353 39.8566 27.7712 39.8566C25.3736 39.8566 23.4424 37.9252 23.4424 35.4611C23.4424 32.997 25.3736 31.0656 27.7712 31.0656Z" fill="#626262"/>
<path d="M50.0812 22.0072C50.0812 25.4704 47.0842 28.2675 43.3548 28.2675C39.5588 28.2675 36.6285 25.537 36.6285 22.0072C36.6285 18.8106 39.2257 16.1467 42.489 15.7472V11.7513C38.0937 9.0208 33.0988 7.55566 27.8377 7.55566C23.7753 7.55566 19.7793 8.42142 16.1165 10.1529L27.3049 25.3371C27.3715 25.4038 27.3715 25.4704 27.4381 25.6035H27.8377C33.232 25.6035 37.6275 29.999 37.6275 35.3933V35.7928C37.6941 35.7928 37.7606 35.8595 37.8938 35.9261L53.1446 46.9812C54.8096 43.3184 55.6753 39.4557 55.6753 35.3933C55.6753 29.3329 53.744 23.539 50.1478 18.744V22.0072H50.0812ZM28.2372 45.1831H27.8377C22.4432 45.1831 18.0479 40.7878 18.0479 35.3933V34.9937C17.9812 34.9937 17.848 34.9271 17.7815 34.8605L2.59729 23.7387C0.865764 27.4016 0 31.3309 0 35.3933C0 50.7107 12.4537 63.1643 27.7711 63.1643C31.7668 63.1643 35.6961 62.2986 39.2924 60.6337L28.3039 45.3829C28.3039 45.3163 28.2372 45.2497 28.2372 45.1831ZM27.7711 57.9032C15.384 57.9032 5.32778 47.8469 5.32778 35.4599C5.32778 35.127 5.59417 34.7939 5.99375 34.7939C6.39334 34.7939 6.65972 35.127 6.65972 35.4599C6.65972 47.1144 16.1165 56.5712 27.7711 56.5712C28.1706 56.5712 28.4371 56.9043 28.4371 57.2372C28.4371 57.5701 28.1706 57.9032 27.7711 57.9032Z" fill="#626262"/>
<path d="M60.6035 1.02915L46.4182 2.76069C44.953 2.96048 43.821 4.22582 43.821 5.75756V17.0791H43.3548C40.3578 17.0791 37.9604 19.2768 37.9604 22.0739C37.9604 24.871 40.3578 27.002 43.3548 27.002C46.3516 27.002 48.7491 24.8044 48.7491 22.0739V11.4849C48.7491 10.819 49.2819 10.2196 50.0146 10.153L57.5399 9.22061C57.9395 9.15402 58.2726 9.28722 58.6055 9.5536C58.8719 9.81999 59.0717 10.153 59.0717 10.5526V14.6816H58.6055C55.6086 14.6816 53.2112 16.8793 53.2112 19.6097C53.2112 22.3402 55.6086 24.538 58.6055 24.538C61.6023 24.538 63.9999 22.3402 63.9999 19.6097V4.02602C63.9999 3.16026 63.6003 2.36109 63.0009 1.82832C62.335 1.22895 61.4692 0.89596 60.6035 1.02915Z" fill="#E72931"/>
</svg>
