<svg width="44" height="44" viewBox="0 0 44 44" fill="none" xmlns="http://www.w3.org/2000/svg">
<path d="M20.6951 31.6044L27.9293 41.6315C31.3632 39.8458 34.2477 36.9613 36.0791 33.5274L26.0521 26.2475C25.4568 28.9031 23.3507 30.9634 20.6951 31.6044ZM2.19775 15.7168L12.1332 23.0425C12.7284 20.4327 14.8346 18.3266 17.4901 17.7314L10.1645 7.7959C6.8221 9.53575 3.98339 12.3745 2.19775 15.7168V15.7168Z" fill="#525252"/>
<path d="M13.3237 24.6457C13.3237 27.8507 15.9335 30.4605 19.1385 30.4605C19.3674 30.4605 19.5964 30.4605 19.8253 30.4147C22.4809 30.0942 24.6328 27.9423 24.9075 25.2867C24.9533 25.0578 24.9533 24.8289 24.9533 24.5999C24.9533 21.3949 22.3435 18.7852 19.1385 18.7852C18.9096 18.7852 18.6806 18.7852 18.4517 18.8309C15.7962 19.1057 13.6442 21.2576 13.3237 23.9589V24.6457V24.6457ZM19.0927 21.6696C20.741 21.6696 22.1146 23.0432 22.1146 24.6915C22.1146 26.3398 20.7868 27.7134 19.0927 27.7134C17.4444 27.7134 16.1167 26.3856 16.1167 24.6915C16.1167 22.9974 17.4444 21.6696 19.0927 21.6696Z" fill="#525252"/>
<path d="M34.4308 15.4423C34.4308 17.8232 32.3704 19.7462 29.8064 19.7462C27.1967 19.7462 25.1821 17.869 25.1821 15.4423C25.1821 13.2446 26.9677 11.4132 29.2112 11.1385V8.39133C26.1894 6.51412 22.7554 5.50684 19.1384 5.50684C16.3455 5.50684 13.5983 6.10205 11.0801 7.29247L18.7721 17.7316C18.8179 17.7774 18.8179 17.8232 18.8637 17.9147H19.1384C22.847 17.9147 25.8689 20.9366 25.8689 24.6452V24.9199C25.9147 24.9199 25.9604 24.9657 26.052 25.0115L36.5369 32.6119C37.6816 30.0937 38.2768 27.4381 38.2768 24.6452C38.2768 20.4787 36.949 16.4954 34.4766 13.1988V15.4423H34.4308ZM19.4131 31.3757H19.1384C15.4297 31.3757 12.4079 28.3539 12.4079 24.6452V24.3705C12.3621 24.3705 12.2705 24.3247 12.2248 24.2789L1.78564 16.6327C0.595213 19.1509 0 21.8523 0 24.6452C0 35.1759 8.56191 43.7378 19.0926 43.7378C21.8397 43.7378 24.5411 43.1426 27.0135 41.998L19.4589 31.5131C19.4589 31.4673 19.4131 31.4215 19.4131 31.3757ZM19.0926 40.1208C10.5765 40.1208 3.66285 33.2071 3.66285 24.691C3.66285 24.4621 3.84599 24.2331 4.1207 24.2331C4.39542 24.2331 4.57856 24.4621 4.57856 24.691C4.57856 32.7035 11.0801 39.205 19.0926 39.205C19.3673 39.205 19.5505 39.434 19.5505 39.6629C19.5505 39.8918 19.3673 40.1208 19.0926 40.1208V40.1208Z" fill="#525252"/>
<path d="M41.6648 1.02004L31.9124 2.21047C30.9051 2.34783 30.1268 3.21775 30.1268 4.27082V12.0544H29.8063C27.7459 12.0544 26.0977 13.5653 26.0977 15.4883C26.0977 17.4113 27.7459 18.8764 29.8063 18.8764C31.8666 18.8764 33.5149 17.3655 33.5149 15.4883V8.20838C33.5149 7.75053 33.8812 7.33846 34.3849 7.29267L39.5586 6.65167C39.8333 6.60589 40.0623 6.69746 40.2912 6.8806C40.4743 7.06374 40.6117 7.29267 40.6117 7.56739V10.4061H40.2912C38.2308 10.4061 36.5826 11.917 36.5826 13.7942C36.5826 15.6714 38.2308 17.1824 40.2912 17.1824C42.3515 17.1824 43.9998 15.6714 43.9998 13.7942V3.08039C43.9998 2.48518 43.7251 1.93575 43.313 1.56947C42.8552 1.1574 42.26 0.928471 41.6648 1.02004V1.02004Z" fill="#525252"/>
</svg>
