<svg width="36" height="36" viewBox="0 0 36 36" fill="none" xmlns="http://www.w3.org/2000/svg">
<path d="M30.7248 16.1336C30.4051 15.3919 30.0065 14.6868 29.5361 14.0304C29.0592 13.3316 28.5156 12.6808 27.9129 12.0872C25.5755 9.72639 22.4687 8.2825 19.1571 8.01791V6.31476C19.1786 6.04906 19.2695 5.79366 19.4207 5.57417C19.572 5.35469 19.7783 5.17884 20.019 5.06426C20.1305 5.07777 20.2427 5.0854 20.3551 5.08712C21.0857 5.10113 21.7998 4.86925 22.3828 4.42872C22.8418 4.02382 23.1993 3.51693 23.4268 2.94878C23.6543 2.38063 23.7454 1.76704 23.6928 1.1573C23.6928 0.854148 23.5723 0.563408 23.358 0.349044C23.1436 0.13468 22.8529 0.0142516 22.5497 0.0142516C21.9398 -0.0379233 21.3262 0.0536069 20.758 0.281496C20.1899 0.509385 19.6831 0.867287 19.2783 1.32648C18.8595 1.87419 18.6307 2.54359 18.6268 3.23309C18.4081 3.38236 18.2031 3.55067 18.0141 3.73603C17.8251 3.55067 17.6201 3.38236 17.4014 3.23309C17.3975 2.54359 17.1687 1.87419 16.7499 1.32648C16.3451 0.867287 15.8383 0.509385 15.2701 0.281496C14.702 0.0536069 14.0884 -0.0379233 13.4785 0.0142516C13.1753 0.0142516 12.8846 0.13468 12.6702 0.349044C12.4558 0.563408 12.3354 0.854148 12.3354 1.1573C12.2831 1.76667 12.3744 2.37981 12.6019 2.94753C12.8294 3.51526 13.1868 4.02177 13.6453 4.42643C14.2278 4.8686 14.942 5.1021 15.6731 5.0894C15.7855 5.08768 15.8976 5.08005 16.0092 5.06654C16.2497 5.18075 16.4559 5.35619 16.6072 5.57528C16.7585 5.79437 16.8495 6.04939 16.871 6.31476V8.01791C16.1925 8.06689 15.5195 8.17397 14.8593 8.33796C13.8353 8.56105 12.8442 8.91446 11.9102 9.38957C10.5005 10.0655 9.21691 10.9779 8.11526 12.0872C6.80586 13.3808 5.76752 14.9226 5.06097 16.6222C4.35441 18.3219 3.99382 20.1454 4.00027 21.986C3.98959 23.6676 4.29996 25.3359 4.91471 26.9011C5.15472 27.6288 5.47686 28.3268 5.87487 28.9815C6.48593 30.0537 7.2396 31.0381 8.11526 31.9077C9.41484 33.2075 10.9582 34.2381 12.6568 34.9403C14.3555 35.6425 16.176 36.0026 18.0141 35.9998C18.688 36.0034 19.361 35.9498 20.0259 35.8398C20.7863 35.7403 21.5362 35.572 22.2662 35.3369C25.1003 34.4366 27.5741 32.6574 29.3292 30.257C31.0843 27.8565 32.0296 24.9596 32.0279 21.986C32.0397 19.962 31.5943 17.9614 30.7248 16.1336V16.1336ZM17.9958 10.2583L18.0141 10.2629L18.0324 10.2606C21.1368 10.2642 24.1136 11.4962 26.3127 13.6874C26.6553 14.0181 26.9689 14.3775 27.25 14.7619C25.9056 15.252 24.7093 16.0784 23.7751 17.1623C23.5664 17.4691 23.2757 17.711 22.9362 17.8606C22.5967 18.0102 22.2219 18.0613 21.8547 18.0082C20.5059 18.0082 19.8658 17.1395 18.9057 15.7221C18.5504 14.9268 17.9952 14.237 17.2941 13.7202C16.5929 13.2034 15.7698 12.877 14.905 12.773C14.2192 12.7501 14.0591 12.5215 13.9905 12.453C13.7761 12.0214 13.7117 11.5307 13.8077 11.0584C15.1408 10.5301 16.5618 10.2586 17.9958 10.2583V10.2583ZM9.71553 30.2846C9.05465 29.6274 8.47864 28.8902 8.00095 28.0899L9.78411 27.3584C10.4747 27.0754 11.2386 27.0249 11.9604 27.2147C12.6822 27.4044 13.3226 27.824 13.7848 28.41C14.243 28.9944 14.885 29.4071 15.6068 29.5813C16.3287 29.7556 17.0883 29.6812 17.7626 29.3701L20.1859 28.2957C20.3329 28.228 20.4927 28.1929 20.6545 28.1929C20.8163 28.1929 20.9762 28.228 21.1232 28.2957C21.3975 28.419 21.6171 28.6386 21.7404 28.9129C21.7496 28.9999 21.7728 29.0848 21.809 29.1644C21.8646 29.3786 21.8622 29.6038 21.8019 29.8167C21.7416 30.0297 21.6257 30.2227 21.4661 30.376C20.5077 31.1825 19.9009 32.3304 19.7744 33.5766C17.9569 33.8599 16.0982 33.7093 14.3501 33.1372C12.6019 32.5651 11.0138 31.5876 9.71553 30.2846V30.2846Z" fill="#E51C24"/>
</svg>
