<svg width="64" height="64" viewBox="0 0 64 64" fill="none" xmlns="http://www.w3.org/2000/svg">
<g clip-path="url(#clip0_3601_238)">
<rect width="64" height="64" fill="white"/>
<path d="M0.00194779 26.9879V41.3835C-0.000495279 44.2386 0.759672 47.0425 2.20372 49.5048C3.64777 51.967 5.72319 53.9981 8.21503 55.3876L10.6683 56.7577V62.2206C10.6683 62.6925 10.8556 63.1451 11.189 63.4788C11.5224 63.8125 11.9745 64 12.446 64H26.6678C27.1393 64 27.5915 63.8125 27.9248 63.4788C28.2582 63.1451 28.4455 62.6925 28.4455 62.2206V48.8927C28.4455 44.1238 28.0544 42.3622 25.4767 39.7642L21.0858 35.3512C20.014 34.3454 18.6308 33.737 17.1658 33.6269C15.7008 33.5169 14.2424 33.9118 13.0327 34.7462L11.2549 25.8491C11.0053 24.4388 10.2323 23.175 9.09095 22.3113C7.94955 21.4475 6.52412 21.0476 5.10048 21.1916C3.67685 21.3357 2.36025 22.0131 1.41467 23.0881C0.469103 24.1631 -0.0355339 25.5561 0.00194779 26.9879V26.9879ZM7.7706 26.632L10.455 40.0133C10.455 40.2268 10.455 40.4226 10.455 40.6361C10.4462 40.808 10.4462 40.9802 10.455 41.1521C10.455 41.3835 10.5972 41.6148 10.6683 41.8461L10.8105 42.2732C10.9292 42.5316 11.0658 42.7813 11.2194 43.0205C11.2659 43.1191 11.3194 43.2143 11.3794 43.3053C11.5975 43.6374 11.8476 43.9473 12.126 44.2306V44.2306L16.3748 48.4834C16.7095 48.8185 17.1636 49.0067 17.637 49.0067C18.1104 49.0067 18.5644 48.8185 18.8991 48.4834C19.2339 48.1483 19.422 47.6939 19.422 47.22C19.422 46.7461 19.2339 46.2917 18.8991 45.9566L14.6504 41.7038C14.151 41.2033 13.8705 40.5249 13.8705 39.8176C13.8705 39.1102 14.151 38.4318 14.6504 37.9314C15.157 37.4442 15.8323 37.1721 16.5348 37.1721C17.2373 37.1721 17.9126 37.4442 18.4192 37.9314L22.8101 42.3444C24.4279 43.9636 24.7479 44.6398 24.7479 48.946V60.4411H14.2237V55.7079C14.2232 55.3926 14.139 55.0831 13.9797 54.811C13.8203 54.539 13.5917 54.3143 13.3171 54.1598L9.9572 52.3803C8.00128 51.2926 6.37455 49.6971 5.24828 47.7618C4.12202 45.8265 3.53789 43.6231 3.5574 41.3835V26.9879C3.5832 26.4717 3.79517 25.9824 4.15399 25.6108C4.5128 25.2391 4.9941 25.0103 5.50861 24.9669C6.02312 24.9234 6.53592 25.0682 6.95188 25.3744C7.36784 25.6806 7.65874 26.1275 7.7706 26.632V26.632ZM58.3113 21.2937C56.9974 21.29 55.7232 21.7445 54.7078 22.579C53.6924 23.4136 52.999 24.5761 52.747 25.8669L50.9693 34.764C49.7607 33.9264 48.3016 33.5295 46.8357 33.6396C45.3699 33.7498 43.9863 34.3602 42.9162 35.369L38.5252 39.782C35.9475 42.3622 35.5564 44.1238 35.5564 48.8927V62.2206C35.5564 62.6925 35.7437 63.1451 36.0771 63.4788C36.4105 63.8125 36.8627 64 37.3341 64H51.5559C52.0274 64 52.4796 63.8125 52.813 63.4788C53.1464 63.1451 53.3337 62.6925 53.3337 62.2206V56.7577L55.7869 55.3876C58.2788 53.9981 60.3542 51.967 61.7982 49.5048C63.2423 47.0425 64.0024 44.2386 64 41.3835V26.9879C63.9953 25.4792 63.3945 24.0335 62.3286 22.9667C61.2628 21.8999 59.8186 21.2984 58.3113 21.2937V21.2937ZM60.4445 41.3835C60.4481 43.608 59.8564 45.7929 58.731 47.7111C57.6055 49.6293 55.9874 51.2109 54.0447 52.2914L50.6848 54.0708C50.4102 54.2253 50.1816 54.4501 50.0223 54.7221C49.863 54.9941 49.7787 55.3036 49.7782 55.6189V60.4411H39.1119V48.8927C39.1119 44.5864 39.4319 43.9103 41.0496 42.291L45.4406 37.878C45.9472 37.3908 46.6224 37.1187 47.3249 37.1187C48.0275 37.1187 48.7027 37.3908 49.2093 37.878C49.7087 38.3785 49.9892 39.0569 49.9892 39.7642C49.9892 40.4715 49.7087 41.1499 49.2093 41.6504L44.9606 45.9032C44.6258 46.2383 44.4378 46.6927 44.4378 47.1666C44.4378 47.6405 44.6258 48.0949 44.9606 48.43C45.2953 48.7651 45.7493 48.9533 46.2228 48.9533C46.6962 48.9533 47.1502 48.7651 47.4849 48.43L51.7337 44.1772C52.006 43.8885 52.2557 43.5791 52.4803 43.2519C52.5465 43.1429 52.6059 43.03 52.6581 42.9138C52.7999 42.6922 52.9247 42.4602 53.0314 42.2198C53.0926 42.0745 53.146 41.926 53.1914 41.7749C53.1914 41.5436 53.3337 41.3301 53.387 41.081C53.3968 40.9032 53.3968 40.7249 53.387 40.5471C53.387 40.3514 53.387 40.1735 53.387 39.9777L56.2313 26.632C56.3432 26.1275 56.6341 25.6806 57.0501 25.3744C57.466 25.0682 57.9788 24.9234 58.4933 24.9669C59.0078 25.0103 59.4891 25.2391 59.848 25.6108C60.2068 25.9824 60.4187 26.4717 60.4445 26.9879V41.3835ZM30.7566 38.572C31.0889 38.898 31.5356 39.0806 32.001 39.0806C32.4663 39.0806 32.9131 38.898 33.2454 38.572L51.5559 20.4752C52.675 19.3636 53.5632 18.0414 54.1693 16.5846C54.7754 15.1278 55.0875 13.5654 55.0875 11.9873C55.0875 10.4093 54.7754 8.84682 54.1693 7.39005C53.5632 5.93328 52.675 4.61101 51.5559 3.49945C49.2668 1.25625 46.1908 0 42.9873 0C39.7838 0 36.7078 1.25625 34.4187 3.49945L32.001 5.8305L29.5833 3.49945C27.2941 1.25625 24.2181 0 21.0146 0C17.8111 0 14.7351 1.25625 12.446 3.49945C11.3189 4.61193 10.4239 5.93753 9.81298 7.39923C9.20209 8.86093 8.88751 10.4296 8.88751 12.014C8.88751 13.5985 9.20209 15.1671 9.81298 16.6288C10.4239 18.0905 11.3189 19.4161 12.446 20.5286L30.7566 38.572ZM14.9526 5.99065C16.5719 4.39641 18.7522 3.50298 21.0235 3.50298C23.2948 3.50298 25.4752 4.39641 27.0945 5.99065L30.7566 9.54951C31.0889 9.87555 31.5356 10.0582 32.001 10.0582C32.4663 10.0582 32.9131 9.87555 33.2454 9.54951L36.9075 5.99065C38.529 4.40065 40.7085 3.51012 42.9784 3.51012C45.2483 3.51012 47.4278 4.40065 49.0493 5.99065C49.8422 6.76922 50.472 7.6982 50.9019 8.72326C51.3318 9.74832 51.5533 10.8489 51.5533 11.9606C51.5533 13.0724 51.3318 14.1729 50.9019 15.198C50.472 16.2231 49.8422 17.152 49.0493 17.9306L32.001 34.7996L14.9526 17.9306C14.1598 17.152 13.53 16.2231 13.1001 15.198C12.6701 14.1729 12.4487 13.0724 12.4487 11.9606C12.4487 10.8489 12.6701 9.74832 13.1001 8.72326C13.53 7.6982 14.1598 6.76922 14.9526 5.99065V5.99065Z" fill="#525252"/>
<path d="M26.6679 21.2936H30.2233V24.8525C30.2233 25.3244 30.4106 25.777 30.744 26.1107C31.0774 26.4444 31.5295 26.6319 32.001 26.6319C32.4725 26.6319 32.9247 26.4444 33.2581 26.1107C33.5915 25.777 33.7788 25.3244 33.7788 24.8525V21.2936H37.3342C37.8057 21.2936 38.2579 21.1062 38.5912 20.7724C38.9246 20.4387 39.1119 19.9861 39.1119 19.5142C39.1119 19.0423 38.9246 18.5897 38.5912 18.2559C38.2579 17.9222 37.8057 17.7348 37.3342 17.7348H33.7788V14.1759C33.7788 13.704 33.5915 13.2514 33.2581 12.9177C32.9247 12.584 32.4725 12.3965 32.001 12.3965C31.5295 12.3965 31.0774 12.584 30.744 12.9177C30.4106 13.2514 30.2233 13.704 30.2233 14.1759V17.7348H26.6679C26.1964 17.7348 25.7442 17.9222 25.4108 18.2559C25.0774 18.5897 24.8901 19.0423 24.8901 19.5142C24.8901 19.9861 25.0774 20.4387 25.4108 20.7724C25.7442 21.1062 26.1964 21.2936 26.6679 21.2936Z" fill="#525252"/>
</g>
<defs>
<clipPath id="clip0_3601_238">
<rect width="64" height="64" fill="white"/>
</clipPath>
</defs>
</svg>
