<svg width="44" height="44" viewBox="0 0 44 44" fill="none" xmlns="http://www.w3.org/2000/svg">
<path d="M43.518 28.1986C42.9175 27.4568 41.8931 27.2095 41.0101 27.5628L27.6933 33.1791L26.4923 33.5323C26.0685 33.6383 25.6446 33.7443 25.1854 33.7443C24.2317 33.7796 22.8541 33.8149 22.6068 33.8502H14.8004C14.6591 33.8502 14.5532 33.8149 14.4472 33.709C14.2353 33.603 14.1293 33.391 14.1293 33.1438C14.1293 32.7552 14.4472 32.4727 14.8711 32.4727H23.7371C24.3376 32.4727 24.9028 32.2254 25.3267 31.8368C25.6799 31.4836 25.8918 31.0244 25.9625 30.5299C25.9625 30.4592 25.9625 30.3533 25.9625 30.2826C25.9625 29.2229 25.2207 28.3045 24.161 28.0926C19.2158 27.1036 14.3059 25.9379 9.2194 26.2911C9.00746 26.2911 7.24132 26.3618 6.2876 26.4678V39.6432L6.32292 40.7382C8.08907 40.9502 20.0282 42.3984 20.2048 42.4337C22.1123 42.787 23.9844 42.681 25.7859 41.6213C25.7859 41.6213 25.7859 41.6213 25.8212 41.6213C25.8212 41.6213 37.7957 34.8746 43.0235 31.4483C44.0832 30.6712 44.3304 29.1876 43.518 28.1986Z" fill="#525252"/>
<path d="M4.80392 24.8428H0V40.6675H4.80392V24.8428Z" fill="#525252"/>
<path d="M19.7809 17.955C21.6884 17.2486 23.9137 17.0366 25.2913 16.966C25.3973 16.966 25.4679 16.966 25.5739 16.966C25.6446 16.966 25.7152 16.966 25.7858 16.966H25.8212C25.9978 16.966 26.1744 16.966 26.2804 16.966H26.3157H26.351C26.4923 16.966 26.6336 16.966 26.8102 16.966H26.8455C26.9162 16.966 26.9868 16.966 27.0575 16.966C27.1281 16.966 27.2341 16.966 27.3401 16.966C28.7177 17.0366 30.943 17.2486 32.8504 17.955C35.7469 16.1182 39.5265 15.3411 43.2354 15.4824C42.1404 9.40686 35.429 4.70891 28.8589 3.75519C28.3644 3.68454 27.8699 3.64922 27.3401 3.6139V2.02437C27.3401 1.4592 26.8809 1 26.3157 1C25.7505 1 25.2913 1.4592 25.2913 2.02437V3.64922C24.7968 3.64922 24.267 3.71987 23.7724 3.79051C17.2024 4.74423 10.5263 9.44219 9.396 15.5177C13.1049 15.3411 16.9198 16.1182 19.7809 17.955ZM26.2804 18.4849C26.0684 18.4849 25.7505 18.4849 25.2913 18.5202V26.2912C26.1391 26.6445 26.8455 27.245 27.3401 27.9867V18.5202C26.9162 18.4849 26.563 18.4849 26.351 18.4849H26.2804V18.4849Z" fill="#525252"/>
</svg>
