<svg width="64" height="64" viewBox="0 0 64 64" fill="none" xmlns="http://www.w3.org/2000/svg">
<rect width="64" height="64" fill="white"/>
<path d="M6.62665 25.9987L26.0941 46.7786L16.7198 25.9987H6.62665ZM32 50.1221L42.9055 25.9987H21.0945L32 50.1221ZM16.8135 21.999L23.1881 9.99975H15.0011L6.00169 21.999H16.8135H16.8135ZM37.9059 46.7786L57.3733 25.9987H47.2802L37.9059 46.7786ZM21.3444 21.999H42.6556L36.281 9.99975H27.719L21.3444 21.999ZM47.1865 21.999H57.9983L48.9989 9.99975H40.812L47.1865 21.999ZM51.5925 6.81246L63.5917 22.8114C63.8833 23.1864 64.0188 23.6187 63.9979 24.1082C63.9771 24.5978 63.8 25.0196 63.4667 25.3737L33.4686 57.3717C33.0937 57.7883 32.6041 57.9966 32 57.9966C31.3959 57.9966 30.9063 57.7883 30.5314 57.3717L0.533297 25.3738C0.199988 25.0196 0.0229167 24.5978 0.00208333 24.1082C-0.01875 23.6187 0.116667 23.1864 0.408333 22.8114L12.4075 6.8125C12.7825 6.27083 13.3137 6 14.0012 6H49.9988C50.6863 6 51.2175 6.27083 51.5925 6.8125V6.81246Z" fill="#525252"/>
</svg>
