<svg width="64" height="64" viewBox="0 0 64 64" fill="none" xmlns="http://www.w3.org/2000/svg">
<rect width="64" height="64" fill="white"/>
<path d="M53.3336 52.999C51.867 52.999 50.667 54.199 50.667 55.6657C50.667 57.1323 51.867 58.3323 53.3336 58.3323C54.8003 58.3323 56.0003 57.1323 56.0003 55.6657C56.0003 54.199 54.8002 52.999 53.3336 52.999Z" fill="#525252"/>
<path d="M42.667 27.666V63.6657H64.0001V27.666H42.667ZM53.3336 60.9991C50.3869 60.9991 48.0003 58.6124 48.0003 55.6658C48.0003 52.7191 50.3869 50.3325 53.3336 50.3325C56.2802 50.3325 58.6669 52.7191 58.6669 55.6658C58.6669 58.6123 56.2802 60.9991 53.3336 60.9991ZM53.3336 46.3325C48.9203 46.3325 45.3336 42.7459 45.3336 38.3326C45.3336 33.9193 48.9203 30.3327 53.3336 30.3327C57.7469 30.3327 61.3335 33.9193 61.3335 38.3326C61.3335 42.7459 57.7469 46.3325 53.3336 46.3325Z" fill="#525252"/>
<path d="M53.3335 34.333C51.1202 34.333 49.3335 36.1197 49.3335 38.333C49.3335 40.5463 51.1202 42.3329 53.3335 42.3329C55.5468 42.3329 57.3335 40.5463 57.3335 38.333C57.3335 36.1197 55.5467 34.333 53.3335 34.333ZM10.6666 52.9995C9.19999 52.9995 8 54.1995 8 55.6662C8 57.1328 9.19999 58.3328 10.6666 58.3328C12.1333 58.3328 13.3333 57.1328 13.3333 55.6662C13.3333 54.1995 12.1333 52.9995 10.6666 52.9995Z" fill="#525252"/>
<path d="M0 63.6657H21.3332V27.666H0V63.6657V63.6657ZM10.6666 60.9991C7.71994 60.9991 5.33329 58.6124 5.33329 55.6658C5.33329 52.7191 7.71994 50.3325 10.6666 50.3325C13.6132 50.3325 15.9999 52.7191 15.9999 55.6658C15.9999 58.6123 13.6134 60.9991 10.6666 60.9991ZM10.6666 30.3327C15.0799 30.3327 18.6665 33.9193 18.6665 38.3326C18.6665 42.7459 15.0799 46.3325 10.6666 46.3325C6.25328 46.3325 2.66664 42.7459 2.66664 38.3326C2.66664 33.9193 6.25328 30.3327 10.6666 30.3327Z" fill="#525252"/>
<path d="M10.6665 42.3322C12.8798 42.3322 14.6664 40.5456 14.6664 38.3322C14.6664 36.1189 12.8798 34.3323 10.6665 34.3323C8.45316 34.3323 6.6665 36.1189 6.6665 38.3322C6.6665 40.5456 8.45329 42.3322 10.6665 42.3322ZM38.6668 24.999H36.0023V27.6657H33.3324V24.999H30.6679V27.6657H27.9979V24.999H25.3334V27.6657H22.6668V63.6654H41.3333V27.6657H38.6666V24.999H38.6668ZM28.1601 47.5722C26.1067 47.9722 24.2668 47.3455 24.0268 46.1855C23.7868 45.0254 25.2534 43.7721 27.2934 43.3722C27.9867 43.2389 28.6534 43.2255 29.24 43.3055L27.0001 35.8389L28.7601 35.6389C29.2534 35.6789 29.9467 35.7989 30.6934 36.1323C32.2667 36.8656 33.0534 38.1189 33.32 38.6256L32.1067 39.3989C31.36 38.2789 30.2134 37.4789 28.8934 37.1323L30.96 43.9855C31.2002 44.1989 31.3735 44.4655 31.44 44.7589C31.6668 45.9188 30.2002 47.1855 28.1601 47.5722ZM39.9866 46.6255L38.7733 47.3988C38.0266 46.2788 36.88 45.4788 35.56 45.1322L37.6266 51.9855C37.8668 52.1988 38.0401 52.4655 38.1066 52.7588C38.3333 53.9188 36.8667 55.1854 34.8267 55.5721C32.7734 55.9721 30.9334 55.3454 30.6934 54.1854C30.4534 53.0253 31.92 51.772 33.96 51.3721C34.6533 51.2388 35.32 51.2255 35.9067 51.3055L33.6667 43.8389L35.4267 43.6389C35.92 43.6789 36.6133 43.7989 37.36 44.1322C38.9334 44.8655 39.72 46.1188 39.9866 46.6255Z" fill="#525252"/>
<path d="M43.9497 18.0966C44.1548 17.1435 43.6424 16.1819 42.7375 15.8199L36.2816 13.2375C35.9971 13.0818 35.6754 12.9854 35.328 12.9854H28.6614C28.5638 12.9854 28.4702 13.0006 28.3764 13.0141L24.5515 10.0054L28.181 4.03934C28.7553 3.09534 28.4558 1.86549 27.5124 1.29136C26.5691 0.717764 25.3385 1.01723 24.7644 1.96002L20.213 9.44169C19.687 10.3062 19.8894 11.4279 20.685 12.0537L26.6615 16.7547V23.652H37.328V17.9639L39.6848 18.9065L38.8436 22.8232C38.6112 23.9026 39.2987 24.9664 40.3788 25.1982C40.5201 25.2288 40.6613 25.2438 40.8007 25.2438C41.7232 25.2438 42.5527 24.602 42.7537 23.6632L43.9497 18.0966Z" fill="#525252"/>
<path d="M31.9946 11.6513C34.2037 11.6513 35.9946 9.86045 35.9946 7.65133C35.9946 5.44221 34.2037 3.65137 31.9946 3.65137C29.7855 3.65137 27.9946 5.44221 27.9946 7.65133C27.9946 9.86045 29.7855 11.6513 31.9946 11.6513Z" fill="#525252"/>
<path d="M49.463 15.7414C51.5089 15.3468 52.9752 14.0853 52.7381 12.9239C52.6778 12.6284 52.5112 12.3689 52.2653 12.1512L50.2025 5.29579C51.5154 5.64152 52.6629 6.44192 53.4146 7.56177L54.6297 6.79151C53.6981 5.07859 52.04 3.9578 50.061 3.7998L48.3007 3.99754L50.5501 11.4736C49.9582 11.3933 49.2956 11.4021 48.6044 11.5355C46.5585 11.9301 45.0923 13.1916 45.3293 14.3529C45.5665 15.5144 47.4172 16.136 49.463 15.7414ZM56.6239 16.8688C54.5781 17.2634 53.1117 18.5249 53.3488 19.6863C53.5858 20.8477 55.4365 21.4694 57.4823 21.0747C59.5282 20.6801 60.9946 19.4186 60.7574 18.2572C60.6971 17.9617 60.5304 17.7022 60.2846 17.4845L58.2218 10.6291C59.5346 10.9748 60.6822 11.7752 61.4337 12.8951L62.6489 12.1248C61.7167 10.4108 60.058 9.29096 58.0802 9.13309L56.3201 9.33083L58.5696 16.8069C57.9776 16.7266 57.3151 16.7354 56.6239 16.8688ZM13.7141 5.29579L11.6514 12.1512C10.3078 13.3409 11.8087 15.2312 14.4536 15.7413C16.4995 16.136 18.3501 15.5142 18.5872 14.3528C18.913 12.7567 16.0633 11.1076 13.3664 11.4735L15.616 3.9974C14.2811 3.8474 11.1908 3.29181 9.28698 6.79138L10.5022 7.56164C11.2538 6.44192 12.4012 5.64166 13.7141 5.29579ZM5.69474 10.6291L3.63196 17.4845C2.28784 18.675 3.79049 20.5647 6.4342 21.0746C8.48019 21.4693 10.3307 20.8475 10.5679 19.6862C10.8922 18.0968 8.05632 16.4392 5.34714 16.8069L7.59659 9.33083C6.15354 9.16869 5.39901 8.94536 3.90262 9.63229C2.32264 10.3578 1.54544 11.614 1.26758 12.1248L2.48263 12.8951C3.23423 11.7752 4.38182 10.9749 5.69474 10.6291Z" fill="#525252"/>
</svg>
