<svg width="64" height="64" viewBox="0 0 64 64" fill="none" xmlns="http://www.w3.org/2000/svg">
<g clip-path="url(#clip0_3601_238)">
<rect width="64" height="64" fill="white"/>
<path d="M60.5137 40.8048L31.9984 23.2551L3.48319 40.8048C2.40667 41.4654 0.998739 41.1317 0.340485 40.0551C-0.322341 38.9808 0.0136429 37.5728 1.09016 36.9123L30.8031 18.6265C31.5367 18.174 32.4647 18.174 33.1984 18.6265L62.9113 36.9123C63.9878 37.5751 64.3215 38.9808 63.6609 40.0551C62.9935 41.1363 61.581 41.4631 60.5137 40.8048Z" fill="#525252"/>
<path d="M37.7125 45.7143H26.2845C25.6537 45.7143 25.1417 46.2263 25.1417 46.8571V64H9.14243V41.3463L31.9985 27.2823L54.8546 41.3486V64H38.8553V46.8571C38.8553 46.2263 38.3433 45.7143 37.7125 45.7143ZM59.4258 0V14.24C59.4258 14.8891 58.6418 15.2137 58.1824 14.7543L53.4466 10.0183L45.447 18.0183C44.5191 18.9486 43.0814 19.12 41.9569 18.448L32.0168 12.4846L0 32.1897V25.4811L30.5014 6.71086C31.4088 6.15086 32.5516 6.144 33.4704 6.69486L42.9854 12.4046L49.408 5.98171L44.6722 1.24571C44.2105 0.784 44.5373 0 45.1865 0H59.4258Z" fill="#525252"/>
</g>
<defs>
<clipPath id="clip0_3601_238">
<rect width="64" height="64" fill="white"/>
</clipPath>
</defs>
</svg>
