<svg width="64" height="64" viewBox="0 0 64 64" fill="none" xmlns="http://www.w3.org/2000/svg">
<g clip-path="url(#clip0_3763_1143)">
<path d="M27.9999 1.24299V16.0003H25.3333V1.33366C25.3333 0.980041 25.1928 0.640904 24.9427 0.390857C24.6927 0.14081 24.3536 0.000335126 23.9999 0.000335126C23.6463 0.000335126 23.3072 0.14081 23.0571 0.390857C22.8071 0.640904 22.6666 0.980041 22.6666 1.33366V16.0003H20V1.28566C20 -0.430329 17.3333 -0.371663 17.3333 1.24166V16.0003H14.6667V1.34699C14.6667 -0.470329 12 -0.403663 12 1.27499V20.5709C12 23.3535 14.6667 25.1882 17.3333 25.1882V60C17.3333 65.3333 25.3333 65.3333 25.3333 60V25.1895C27.9999 25.1895 30.6666 22.9735 30.6666 20.8869V1.28566C30.6666 -0.414329 27.9999 -0.348996 27.9999 1.24299ZM39.9999 5.33364V38.6668H42.6665V60C42.6665 65.3333 51.9998 65.3333 51.9998 60V5.33364C51.9998 -1.33299 39.9999 -1.33299 39.9999 5.33364Z" fill="#525252"/>
</g>
<defs>
<clipPath id="clip0_3763_1143">
<rect width="64" height="64" fill="white"/>
</clipPath>
</defs>
</svg>
