<svg width="64" height="64" viewBox="0 0 64 64" fill="none" xmlns="http://www.w3.org/2000/svg">
<rect width="64" height="64" fill="white"/>
<path d="M54 16H44.4V12.8C44.4 9.40523 43.0514 6.1495 40.651 3.74903C38.2505 1.34857 34.9948 0 31.6 0C28.2052 0 24.9495 1.34857 22.549 3.74903C20.1486 6.1495 18.8 9.40523 18.8 12.8V16H9.2C8.35131 16 7.53738 16.3371 6.93726 16.9373C6.33714 17.5374 6 18.3513 6 19.2V54.4C6 56.9461 7.01143 59.3879 8.81178 61.1882C10.6121 62.9886 13.0539 64 15.6 64H47.6C50.1461 64 52.5879 62.9886 54.3882 61.1882C56.1886 59.3879 57.2 56.9461 57.2 54.4V19.2C57.2 18.3513 56.8629 17.5374 56.2627 16.9373C55.6626 16.3371 54.8487 16 54 16ZM25.2 12.8C25.2 11.1026 25.8743 9.47475 27.0745 8.27452C28.2748 7.07428 29.9026 6.4 31.6 6.4C33.2974 6.4 34.9253 7.07428 36.1255 8.27452C37.3257 9.47475 38 11.1026 38 12.8V16H25.2V12.8ZM50.8 54.4C50.8 55.2487 50.4629 56.0626 49.8627 56.6627C49.2626 57.2629 48.4487 57.6 47.6 57.6H15.6C14.7513 57.6 13.9374 57.2629 13.3373 56.6627C12.7371 56.0626 12.4 55.2487 12.4 54.4V22.4H18.8V25.6C18.8 26.4487 19.1371 27.2626 19.7373 27.8627C20.3374 28.4629 21.1513 28.8 22 28.8C22.8487 28.8 23.6626 28.4629 24.2627 27.8627C24.8629 27.2626 25.2 26.4487 25.2 25.6V22.4H38V25.6C38 26.4487 38.3371 27.2626 38.9373 27.8627C39.5374 28.4629 40.3513 28.8 41.2 28.8C42.0487 28.8 42.8626 28.4629 43.4627 27.8627C44.0629 27.2626 44.4 26.4487 44.4 25.6V22.4H50.8V54.4Z" fill="#525252"/>
</svg>
