<svg width="36" height="36" viewBox="0 0 36 36" fill="none" xmlns="http://www.w3.org/2000/svg">
<path d="M3.18046 28.0596C4.07768 27.2047 5.21464 26.7093 6.43261 26.5852L6.4782 22.5696C6.25112 22.3945 3.67121 19.7942 3.46979 19.5915L6.84476 21.5917C7.15626 21.7756 7.517 21.8231 7.84712 21.7463L13.2633 20.4845C13.9953 20.3134 14.4497 19.5815 14.2799 18.8496C14.1087 18.1172 13.3792 17.6598 12.6461 17.8331L7.76168 18.9714L4.8574 17.2499C6.89173 17.843 6.4641 17.7183 7.45839 18.0093L10.7246 17.2481L13.6252 14.6249C14.1815 14.1208 14.2261 13.2601 13.7214 12.7027C13.2166 12.1448 12.3545 12.1031 11.7986 12.6062L7.64934 16.3583L4.8001 15.4285C4.75691 15.4139 4.07179 15.2868 3.8258 15.2868H2.7028C1.20975 15.2868 0 16.4971 0 17.9896V27.5367C1.04454 27.08 2.29756 27.251 3.18046 28.0596Z" fill="#E51C24"/>
<path d="M3.27882 14.4972C5.01197 14.4972 6.41732 13.0924 6.41732 11.3587C6.41732 9.62552 5.01197 8.21973 3.27882 8.21973C1.54444 8.21973 0.13916 9.62559 0.13916 11.3587C0.13916 13.0925 1.54444 14.4972 3.27882 14.4972Z" fill="#E51C24"/>
<path d="M21.3378 13.4366C20.7524 13.908 20.6598 14.7641 21.1305 15.3502L24.8756 20.0111C24.9729 20.1316 25.0888 20.2342 25.2188 20.3156L27.6943 21.8514C27.6218 22.0563 27.5796 22.27 27.5574 22.4891L29.2027 22.009L26.2985 23.7304L21.414 22.5922C20.6786 22.4224 19.9513 22.8779 19.7802 23.6086C19.6105 24.3405 20.0648 25.073 20.7967 25.2434L26.2129 26.5053C26.5431 26.5819 26.9038 26.5352 27.2153 26.3507L30.5914 24.3505L28.3571 26.5861C29.9837 26.342 31.7134 26.7723 32.9617 27.8923C33.2919 27.626 33.669 27.4509 34.0602 27.3472V22.7485C34.0602 21.2559 32.8503 20.0463 31.3586 20.0463H30.2355C30.1511 20.0463 30.0714 20.0626 29.9895 20.0703L26.8522 18.1251L23.2523 13.6458C22.7817 13.0602 21.9269 12.9677 21.3378 13.4366Z" fill="#E51C24"/>
<path d="M30.7814 19.2564C32.5169 19.2564 33.9212 17.8517 33.9212 16.1186C33.9212 14.3848 32.5169 12.9795 30.7814 12.9795C29.0482 12.9795 27.6431 14.3848 27.6431 16.1186C27.6431 17.8517 29.0482 19.2564 30.7814 19.2564Z" fill="#E51C24"/>
<path d="M19.7639 10.4104C21.5346 10.4104 22.9692 8.97527 22.9692 7.20518C22.9692 5.43458 21.5346 4 19.7639 4C17.9933 4 16.5576 5.43458 16.5576 7.20518C16.5576 8.97527 17.9933 10.4104 19.7639 10.4104Z" fill="#E51C24"/>
<path d="M35.652 29.3609C35.1918 28.8996 34.4411 28.8984 33.9786 29.3621C33.4316 29.909 32.4784 29.9066 31.9315 29.3621C30.4935 27.9205 27.9803 27.9176 26.5352 29.3626C25.9907 29.909 25.0362 29.9078 24.4894 29.3614C23.07 27.9409 20.5159 27.9386 19.0919 29.3632C18.5274 29.9265 17.6117 29.9277 17.0449 29.3614C15.6056 27.9205 13.1371 27.8754 11.6042 29.4071C11.0818 29.9311 10.1719 29.9299 9.64726 29.4071C8.2326 27.9895 5.76169 27.9889 4.34237 29.4071C3.72299 30.0259 2.64078 30.0259 2.02126 29.4071C1.55879 28.9445 0.810488 28.9451 0.347879 29.4065C-0.114658 29.8685 -0.114658 30.618 0.347879 31.0805C1.1044 31.837 2.1104 32.2545 3.18178 32.2545C4.25344 32.2545 5.25829 31.837 6.01582 31.0811C6.54039 30.5576 7.45041 30.5553 7.97388 31.0811C9.39319 32.4986 11.8115 32.5443 13.3231 31.0354C13.8713 30.4874 14.8212 30.485 15.3737 31.0378C16.8598 32.5216 19.2769 32.5245 20.7701 31.0338C21.3064 30.4961 22.276 30.495 22.8147 31.0349C24.2586 32.4771 26.7693 32.4765 28.2097 31.0366C28.7601 30.4867 29.7111 30.4867 30.2579 31.0354C31.7007 32.4765 34.215 32.4765 35.6542 31.0342C36.1157 30.5712 36.1157 29.8223 35.652 29.3609Z" fill="#E51C24"/>
</svg>
