<svg width="36" height="36" viewBox="0 0 36 36" fill="none" xmlns="http://www.w3.org/2000/svg">
<path d="M13.7416 19.6688C15.5042 21.1792 17.2471 22.6419 18.9474 24.1526C19.3516 24.5118 19.571 24.2646 19.8527 24.083C21.3848 23.0952 22.9219 22.1146 24.4404 21.1061C25.1925 20.6067 25.952 20.5446 26.7428 20.9466C29.1751 22.1834 31.6041 23.4262 34.0287 24.6778C34.8525 25.1031 35.327 25.8 35.2574 26.729C35.1904 27.6223 34.6378 28.2079 33.7823 28.4875C33.1745 28.686 32.6366 28.4814 32.1013 28.2049C30.224 27.2357 28.3329 26.2931 26.4654 25.3053C26.0046 25.0617 25.6856 25.0808 25.2391 25.3702C23.3182 26.6147 21.4927 27.9682 19.8579 29.5793C18.5339 30.8841 16.6716 30.9665 15.2611 29.7721C12.6721 27.5796 10.1003 25.3661 7.54262 23.1368C6.39122 22.1333 6.0598 20.7579 6.55841 19.4178C7.0379 18.1292 8.25909 17.326 9.74112 17.2243C11.1701 17.1261 12.5954 16.9644 14.0186 16.8006C14.5874 16.7351 15.0309 16.4007 15.4321 15.9952C16.4878 14.9282 17.5537 13.8708 18.6278 12.8221C19.3265 12.1398 20.1347 12.0733 20.7033 12.6212C21.3383 13.233 21.2896 13.9832 20.5166 14.756C19.1548 16.117 17.7447 17.4313 16.4119 18.8199C15.6718 19.5911 14.6738 19.2315 13.7416 19.6688Z" fill="#E51C24"/>
<path d="M17.1231 13.0575C17.1231 11.3128 17.1108 9.72828 17.1302 8.14412C17.1365 7.63112 17.0613 7.25454 16.5846 6.90794C15.7017 6.266 15.2497 5.30426 15.1611 4.22739C15.1193 3.71833 14.9985 3.54168 14.4654 3.43304C10.6123 2.64757 6.77032 1.80807 2.92516 0.98356C2.56219 0.905683 2.0001 0.940975 2.09513 0.400763C2.20692 -0.234083 2.72761 0.0545549 3.12784 0.138544C13.7838 2.37529 24.4404 4.6083 35.0951 6.84939C35.4248 6.91879 35.92 6.93495 35.8542 7.42509C35.7743 8.01952 35.2533 7.82058 34.9088 7.74882C31.1224 6.95999 27.338 6.16111 23.56 5.33344C23.0358 5.2185 22.7414 5.24354 22.4995 5.79499C22.2072 6.46138 21.6851 7.01993 21.0124 7.2926C20.33 7.56901 20.2025 8.00729 20.2673 8.64707C20.3099 9.06721 20.2681 9.49524 20.2768 9.91932C20.2943 10.7795 20.4966 11.6452 19.0615 11.5961C18.3176 11.5707 17.8845 12.5173 17.1231 13.0575Z" fill="#E51C24"/>
<path d="M19.9893 30.6578C21.3897 29.0992 22.8812 27.9599 24.4174 26.8708C24.7802 26.6137 25.096 26.7483 25.3815 26.9843C27.6202 28.835 29.8773 30.6651 32.0762 32.5621C32.9009 33.2736 32.8715 34.4978 32.1696 35.2971C31.4279 36.1417 30.3138 36.2488 29.3667 35.4875C27.7896 34.22 26.2159 32.9442 24.7037 31.6012C23.9259 30.9103 23.1327 30.5221 22.0775 30.6448C21.467 30.7157 20.8416 30.6578 19.9893 30.6578Z" fill="#E51C24"/>
<path d="M1.00009 13.8004C1.01409 11.7421 2.66863 10.108 4.74155 10.1055C6.86335 10.1029 8.49996 11.7598 8.48004 13.8903C8.46072 15.9634 6.8186 17.5939 4.74924 17.5947C2.64951 17.5955 0.985895 15.912 1.00009 13.8004Z" fill="#E51C24"/>
<path d="M20.275 16.3997C20.275 18.3851 20.2582 20.3705 20.2868 22.3554C20.2939 22.8495 19.9972 23.0323 19.6691 23.2462C19.2803 23.4995 19.0808 23.1867 18.8432 22.9822C18.621 22.791 18.4012 22.5972 18.1774 22.4079C16.7019 21.1611 16.6564 19.7092 18.0309 18.335C18.7137 17.6524 19.3679 16.9413 20.035 16.2432C20.1149 16.2954 20.1949 16.3477 20.275 16.3997Z" fill="#E51C24"/>
</svg>
