<svg width="44" height="44" viewBox="0 0 44 44" fill="none" xmlns="http://www.w3.org/2000/svg">
<rect width="44" height="44" fill="white"/>
<path d="M22 7C18.3707 7.01138 14.8651 8.32037 12.1165 10.6905C10.01 12.5055 8.48375 14.8705 8.0905 17.2437C3.4815 18.2612 0 22.2762 0 27.1245C0 32.7565 4.697 37.25 10.3977 37.25H34.8893C39.8805 37.25 44 33.3175 44 28.3757C44 23.8767 40.5845 20.211 36.2065 19.5922C35.5383 12.4973 29.3975 7 22 7ZM28.4735 20.3485L20.2235 28.5985C20.0958 28.7265 19.944 28.8281 19.777 28.8975C19.6099 28.9668 19.4309 29.0025 19.25 29.0025C19.0691 29.0025 18.8901 28.9668 18.723 28.8975C18.556 28.8281 18.4042 28.7265 18.2765 28.5985L14.1515 24.4735C14.0237 24.3457 13.9222 24.1939 13.8531 24.0269C13.7839 23.8598 13.7483 23.6808 13.7483 23.5C13.7483 23.3192 13.7839 23.1402 13.8531 22.9731C13.9222 22.8061 14.0237 22.6543 14.1515 22.5265C14.2793 22.3987 14.4311 22.2972 14.5981 22.2281C14.7652 22.1589 14.9442 22.1233 15.125 22.1233C15.3058 22.1233 15.4848 22.1589 15.6519 22.2281C15.8189 22.2972 15.9707 22.3987 16.0985 22.5265L19.25 25.6808L26.5265 18.4015C26.7847 18.1433 27.1349 17.9983 27.5 17.9983C27.8651 17.9983 28.2153 18.1433 28.4735 18.4015C28.7317 18.6597 28.8767 19.0099 28.8767 19.375C28.8767 19.7401 28.7317 20.0903 28.4735 20.3485V20.3485Z" fill="#525252"/>
</svg>
