<svg width="44" height="44" viewBox="0 0 44 44" fill="none" xmlns="http://www.w3.org/2000/svg">
<g clip-path="url(#clip0_3391_14187)">
<rect width="44" height="44" fill="white"/>
<path d="M38.3636 42H5.63636M2 14.7273H42V2H2V14.7273ZM20.1818 9.27273H22V7.45455H20.1818V9.27273ZM34.7273 9.27273H36.5455V7.45455H34.7273V9.27273ZM27.4545 9.27273H29.2727V7.45455H27.4545V9.27273ZM20.1818 22H22V20.1818H20.1818V22ZM34.7273 22H36.5455V20.1818H34.7273V22ZM27.4545 22H29.2727V20.1818H27.4545V22ZM20.1818 34.7273H22V32.9091H20.1818V34.7273ZM34.7273 34.7273H36.5455V32.9091H34.7273V34.7273ZM27.4545 34.7273H29.2727V32.9091H27.4545V34.7273ZM2 27.4545H42V14.7273H2V27.4545ZM2 40.1818H42V27.4545H2V40.1818Z" stroke="#525252" stroke-width="4"/>
</g>
<defs>
<clipPath id="clip0_3391_14187">
<rect width="44" height="44" fill="white"/>
</clipPath>
</defs>
</svg>
