<svg width="44" height="44" viewBox="0 0 44 44" fill="none" xmlns="http://www.w3.org/2000/svg">
<rect width="44" height="44" fill="white"/>
<path d="M38.9925 5.54858C38.5221 5.24425 37.9842 5.06014 37.4259 5.01243C36.8677 4.96471 36.3063 5.05486 35.791 5.27495L18.908 11.9242C18.5083 12.0869 18.0808 12.1705 17.6493 12.1705H6.8408C5.93365 12.1705 5.06366 12.5308 4.42221 13.1723C3.78076 13.8137 3.4204 14.6837 3.4204 15.5909V15.8645H0V24.0735H3.4204V24.4292C3.44183 25.322 3.81164 26.1711 4.45078 26.7949C5.08992 27.4187 5.9477 27.7677 6.8408 27.7675L10.9453 36.469C11.2232 37.0549 11.6608 37.5506 12.2077 37.8991C12.7546 38.2476 13.3888 38.4348 14.0373 38.4391H15.7612C16.6636 38.4319 17.5266 38.0684 18.1621 37.4277C18.7977 36.787 19.1543 35.9212 19.1542 35.0187V28.0958L35.791 34.7451C36.2003 34.9079 36.6367 34.9915 37.0771 34.9914C37.7604 34.9803 38.4258 34.7712 38.9925 34.3894C39.4426 34.0855 39.8138 33.6788 40.0755 33.203C40.3372 32.7272 40.4819 32.1959 40.4975 31.6531V8.36699C40.495 7.81019 40.3566 7.26242 40.0943 6.77126C39.8321 6.28009 39.4538 5.86038 38.9925 5.54858V5.54858ZM15.7338 15.5909V24.4292H6.8408V15.5909H15.7338ZM15.7338 35.0187H14.0099L10.6443 27.7675H15.7338V35.0187ZM20.1667 24.8396C19.8418 24.6736 19.503 24.5363 19.1542 24.4292V15.3993C19.4997 15.3281 19.8384 15.2274 20.1667 15.0983L37.0771 8.36699V31.571L20.1667 24.8396ZM40.5796 16.5486V23.3894C41.4867 23.3894 42.3567 23.029 42.9982 22.3876C43.6396 21.7461 44 20.8761 44 19.969C44 19.0618 43.6396 18.1918 42.9982 17.5504C42.3567 16.9089 41.4867 16.5486 40.5796 16.5486V16.5486Z" fill="#525252"/>
</svg>
