<svg width="44" height="44" viewBox="0 0 44 44" fill="none" xmlns="http://www.w3.org/2000/svg">
<rect width="44" height="44" fill="white"/>
<path d="M2 20.254V24.9683H5.96552V44H37.8621V24.9683H42V20.254H2ZM22.0724 40.4363C21.0259 40.4363 20.1793 39.5773 20.1793 38.5175C20.1793 37.4594 21.0259 36.6003 22.0724 36.6003C23.119 36.6003 23.9672 37.4594 23.9672 38.5175C23.9672 39.5773 23.119 40.4363 22.0724 40.4363ZM26.4759 31.371C26.219 31.7359 25.7293 32.2108 25.0034 32.7852L24.2845 33.3527C23.8897 33.66 23.6345 34.0179 23.5034 34.43C23.4207 34.6902 23.3793 35.0952 23.3724 35.6417H20.6276C20.669 34.4859 20.7793 33.6879 20.9534 33.2479C21.1259 32.8062 21.581 32.2963 22.3069 31.7219L23.0466 31.1335C23.2897 30.9449 23.4897 30.7424 23.6345 30.5241C23.9034 30.154 24.0362 29.7402 24.0362 29.2862C24.0362 28.7676 23.8828 28.291 23.5862 27.8649C23.2828 27.4371 22.7362 27.2206 21.9414 27.2206C21.1603 27.2206 20.6 27.486 20.2759 28.0116C19.9845 28.4813 19.8259 28.9632 19.7914 29.4678V29.4957C19.7914 29.5446 19.7914 29.6005 19.7845 29.6494C19.7466 30.0248 19.5724 30.3565 19.3121 30.5957C19.0517 30.8349 18.7069 30.9798 18.3259 30.9798C17.5655 30.9798 16.9431 30.3984 16.8672 29.6494C16.8672 29.6494 16.881 29.2792 16.8948 29.1744C17.0552 27.4721 17.7172 26.2481 18.8724 25.499C19.6672 24.9805 20.6483 24.7221 21.8103 24.7221C23.3379 24.7221 24.6086 25.0852 25.619 25.8273C26.6276 26.5624 27.1328 27.6624 27.1328 29.1238C27.1328 30.0143 26.9103 30.7633 26.4759 31.371ZM26.8276 8.73016H17C14.3121 8.73016 12.1724 11.0716 12.1724 13.7937V19.381H15.6207V14.6667C15.6207 14.3681 15.8431 14.1429 16.1379 14.1429C16.4328 14.1429 16.6552 14.3681 16.6552 14.6667V19.381H27.1724V14.6667C27.1724 14.3681 27.3948 14.1429 27.6897 14.1429C27.9845 14.1429 28.2069 14.3681 28.2069 14.6667V19.381H31.6552V13.7937C31.6552 11.089 29.4983 8.73016 26.8276 8.73016ZM21.9138 0C19.7638 0 18.0121 1.77397 18.0121 3.95127C18.0121 6.12683 19.7466 7.90079 21.9138 7.90079C24.0466 7.90079 25.8138 6.12683 25.8138 3.95127C25.8138 1.77397 24.0638 0 21.9138 0Z" fill="#525252"/>
</svg>
