<svg width="44" height="44" viewBox="0 0 44 44" fill="none" xmlns="http://www.w3.org/2000/svg">
<rect width="44" height="44" fill="white"/>
<path d="M41.8 22.284C41.8 10.206 32.428 2 22 2C11.682 2 2.2 10.03 2.2 22.416C0.88 23.164 0 24.572 0 26.2V30.6C0 33.02 1.98 35 4.4 35H6.6V21.58C6.6 13.066 13.486 6.18 22 6.18C30.514 6.18 37.4 13.066 37.4 21.58V37.2H19.8V41.6H37.4C39.82 41.6 41.8 39.62 41.8 37.2V34.516C43.098 33.834 44 32.492 44 30.908V25.848C44 24.308 43.098 22.966 41.8 22.284V22.284Z" fill="#525252"/>
<path d="M15.3992 26.2C16.6142 26.2 17.5992 25.215 17.5992 24C17.5992 22.785 16.6142 21.8 15.3992 21.8C14.1842 21.8 13.1992 22.785 13.1992 24C13.1992 25.215 14.1842 26.2 15.3992 26.2Z" fill="#525252"/>
<path d="M28.5984 26.2C29.8135 26.2 30.7984 25.215 30.7984 24C30.7984 22.785 29.8135 21.8 28.5984 21.8C27.3834 21.8 26.3984 22.785 26.3984 24C26.3984 25.215 27.3834 26.2 28.5984 26.2Z" fill="#525252"/>
<path d="M35.1967 19.666C34.6721 16.5731 33.0702 13.7655 30.6745 11.7402C28.2788 9.71496 25.2438 8.60258 22.1067 8.60001C15.4407 8.60001 8.26871 14.122 8.84071 22.79C11.5536 21.6799 13.9496 19.9157 15.8152 17.6547C17.6808 15.3938 18.9579 12.7063 19.5327 9.83201C22.4147 15.618 28.3327 19.6 35.1967 19.666Z" fill="#525252"/>
</svg>
