<svg width="44" height="44" viewBox="0 0 44 44" fill="none" xmlns="http://www.w3.org/2000/svg">
<rect width="44" height="44" fill="white"/>
<path d="M2.53125 31.3581V40.1817C2.53125 40.6971 2.94904 41.1147 3.46433 41.1147H20.3692C20.2229 40.8027 20.1407 40.4549 20.1407 40.0881V31.3581H2.53125Z" fill="#525252"/>
<path d="M1.39962 29.9113H2.5278H20.1371V29.1073V27.9681C20.1371 27.9574 20.1375 27.9468 20.1375 27.9361C20.1425 27.2262 20.3148 26.5552 20.617 25.961C20.7475 25.7045 20.9019 25.4623 21.0776 25.2375C21.2865 24.9703 21.5254 24.7274 21.7889 24.5141C22.5522 23.896 23.5236 23.5252 24.58 23.5252H25.6323V21.5044C25.6323 19.972 24.3901 18.7298 22.8577 18.7298H20.3473C19.8572 18.7298 19.4315 19.0671 19.3195 19.5441L18.1526 24.5141L17.9827 25.2376L17.8624 25.7497C17.8456 25.8215 17.8258 25.892 17.8031 25.961H17.0294C17.0208 25.7189 16.9962 25.4773 16.9558 25.2375C16.9489 25.1959 16.9415 25.1545 16.9336 25.1132L16.7784 24.5141L15.8654 20.9898L16.5941 19.3815C16.7324 19.0761 16.5092 18.7298 16.1739 18.7298H14.6099C14.2746 18.7298 14.0513 19.0761 14.1897 19.3815L14.9184 20.9898L13.9707 24.5141L13.8268 25.0496C13.8143 25.112 13.8032 25.1747 13.7928 25.2375C13.7532 25.4773 13.7294 25.7189 13.7216 25.961H12.9807C12.9581 25.8919 12.9383 25.8215 12.9214 25.7497L12.8011 25.2376L12.6313 24.5141L11.4643 19.5443C11.3523 19.0671 10.9267 18.7299 10.4366 18.7299H7.92622C6.39382 18.7299 5.15157 19.9722 5.15157 21.5046V24.5144V25.2378V25.9612H1.39962C0.626655 25.9612 0 26.5878 0 27.3608V28.5119C0 29.2848 0.626655 29.9113 1.39962 29.9113Z" fill="#525252"/>
<path d="M15.3913 17.2303C18.8305 17.2303 21.6186 14.4423 21.6186 11.0031V4.38418C21.6186 3.52617 20.8459 2.87507 20.0003 3.02035C18.1679 3.33512 13.9895 4.16897 11.3896 4.69354C10.0949 4.95476 9.16406 6.09251 9.16406 7.41333V11.0032C9.16411 14.4423 11.9521 17.2303 15.3913 17.2303Z" fill="#525252"/>
<path d="M24.5786 24.9248C24.0959 24.9248 23.6399 25.0376 23.2344 25.2375C22.8741 25.4152 22.5544 25.6622 22.2919 25.961C21.8277 26.4893 21.5438 27.1795 21.5359 27.9361C21.5359 27.9468 21.5352 27.9574 21.5352 27.9681V29.1073V29.9113V30.6347V31.3581V40.0881C21.5352 40.6551 21.9948 41.1148 22.5618 41.1148H38.1482H42.972C43.539 41.1148 43.9987 40.6551 43.9987 40.0881V27.9681C43.9987 26.4955 42.9526 25.2672 41.5629 24.9856C41.3667 24.9459 41.1635 24.9248 40.9554 24.9248H25.6309H24.5786Z" fill="#525252"/>
<path d="M32.7716 23.2802C36.5437 23.2802 39.6017 20.2222 39.6017 16.45V12.5126C39.6017 11.064 38.5806 9.81605 37.1607 9.52955C34.3091 8.95422 29.7262 8.03966 27.7164 7.69437C27.6287 7.6793 27.5417 7.67207 27.4562 7.67207C26.6363 7.67207 25.9414 8.3381 25.9414 9.19028V16.45C25.9415 20.2222 28.9994 23.2802 32.7716 23.2802Z" fill="#525252"/>
</svg>
