<svg width="44" height="44" viewBox="0 0 44 44" fill="none" xmlns="http://www.w3.org/2000/svg">
<rect width="44" height="44" fill="white"/>
<path d="M31.7137 7.85715H37.9994V14.1429H31.7137V7.85715ZM31.7137 17.2857H37.9994V23.5714H31.7137V17.2857ZM22.2852 7.85715H28.5709V14.1429H22.2852V7.85715ZM22.2852 17.2857H28.5709V23.5714H22.2852V17.2857Z" fill="#525252"/>
<path d="M18.3571 37.7143C19.659 37.7143 20.7143 36.659 20.7143 35.3571C20.7143 34.0553 19.659 33 18.3571 33C17.0553 33 16 34.0553 16 35.3571C16 36.659 17.0553 37.7143 18.3571 37.7143Z" fill="#525252"/>
<path d="M28.5714 44H8.14286C7.30957 43.9992 6.51066 43.6678 5.92144 43.0786C5.33222 42.4893 5.00083 41.6904 5 40.8571V3.14286C5.00083 2.30957 5.33222 1.51066 5.92144 0.92144C6.51066 0.332221 7.30957 0.000832035 8.14286 0H28.5714V3.14286H8.14286V40.8571H28.5714V28.2857H31.7143V40.8571C31.7135 41.6904 31.3821 42.4893 30.7928 43.0786C30.2036 43.6678 29.4047 43.9992 28.5714 44Z" fill="#525252"/>
</svg>
