<svg width="44" height="44" viewBox="0 0 44 44" fill="none" xmlns="http://www.w3.org/2000/svg">
<g clip-path="url(#clip0_3391_14187)">
<rect width="44" height="44" fill="white"/>
<path d="M43.7023 28.8884L40.901 28.006C40.7023 27.3203 40.43 26.6582 40.0887 26.0311L41.4893 23.426C41.5421 23.3265 41.5611 23.2126 41.5434 23.1014C41.5257 22.9902 41.4723 22.8878 41.3913 22.8097L39.3604 20.8068C39.2822 20.7257 39.1798 20.6723 39.0686 20.6546C38.9574 20.6369 38.8435 20.656 38.7441 20.7088L36.1529 22.1094C35.5191 21.7511 34.8473 21.4646 34.1501 21.255L33.2957 18.4538C33.2599 18.3493 33.1917 18.259 33.101 18.196C33.0103 18.133 32.9018 18.1006 32.7915 18.1036H29.9902C29.8805 18.1046 29.7739 18.1404 29.6858 18.2058C29.5977 18.2713 29.5326 18.363 29.5 18.4678L28.6456 21.269C27.9435 21.4776 27.267 21.7642 26.6287 22.1234L24.0936 20.7228C23.9942 20.67 23.8803 20.651 23.7691 20.6686C23.6579 20.6863 23.5555 20.7398 23.4773 20.8208L21.2924 22.8377C21.2113 22.9158 21.1579 23.0182 21.1402 23.1294C21.1225 23.2406 21.1415 23.3546 21.1943 23.454L22.5949 26.0031C22.2512 26.6388 21.9787 27.3105 21.7826 28.006L18.9813 28.8604C18.8766 28.893 18.7848 28.958 18.7194 29.0461C18.6539 29.1342 18.6182 29.2408 18.6172 29.3506V32.1518C18.6182 32.2616 18.6539 32.3682 18.7194 32.4563C18.7848 32.5444 18.8766 32.6094 18.9813 32.642L21.7826 33.4964C22.008 34.2057 22.3134 34.8871 22.693 35.5273L21.2924 38.1885C21.2395 38.2879 21.2205 38.4018 21.2382 38.513C21.2559 38.6242 21.3093 38.7266 21.3904 38.8048L23.4213 40.8357C23.4994 40.9167 23.6018 40.9702 23.713 40.9878C23.8242 41.0055 23.9382 40.9865 24.0376 40.9337L26.6567 39.5331C27.2755 39.8677 27.9281 40.1353 28.6036 40.3314L29.458 43.1327C29.4906 43.2375 29.5557 43.3292 29.6437 43.3946C29.7318 43.4601 29.8385 43.4959 29.9482 43.4968H32.7494C32.8592 43.4959 32.9658 43.4601 33.0539 43.3946C33.142 43.3292 33.207 43.2375 33.2397 43.1327L34.094 40.3314C34.7649 40.135 35.4129 39.8674 36.0269 39.5331L38.6741 40.9337C38.7735 40.9865 38.8874 41.0055 38.9986 40.9878C39.1098 40.9702 39.2122 40.9167 39.2903 40.8357L41.3212 38.8048C41.4023 38.7266 41.4557 38.6242 41.4734 38.513C41.4911 38.4018 41.4721 38.2879 41.4193 38.1885L40.0186 35.5553C40.3587 34.9375 40.631 34.2848 40.831 33.6085L43.6322 32.7541C43.737 32.7215 43.8288 32.6564 43.8942 32.5683C43.9596 32.4802 43.9954 32.3736 43.9964 32.2639V29.4066C44.0067 29.3005 43.9839 29.1937 43.9313 29.101C43.8786 29.0083 43.7987 28.934 43.7023 28.8884V28.8884ZM31.3348 35.4993C30.4154 35.491 29.5189 35.2111 28.7581 34.6949C27.9972 34.1786 27.4059 33.4489 27.0586 32.5976C26.7112 31.7463 26.6231 30.8113 26.8056 29.9101C26.988 29.0089 27.4327 28.1817 28.0838 27.5325C28.735 26.8833 29.5635 26.4411 30.4652 26.2614C31.3669 26.0816 32.3017 26.1724 33.1519 26.5223C34.0022 26.8723 34.7301 27.4657 35.2441 28.2281C35.7581 28.9905 36.0353 29.8878 36.0409 30.8072C36.0427 31.4221 35.923 32.0312 35.6886 32.5996C35.4541 33.168 35.1096 33.6845 34.6748 34.1192C34.2401 34.554 33.7236 34.8985 33.1552 35.133C32.5868 35.3674 31.9777 35.4871 31.3628 35.4853L31.3348 35.4993Z" fill="#525252"/>
<path d="M11.2787 34.2247C11.8641 34.0991 12.4025 33.8121 12.8332 33.3962C13.2639 32.9804 13.5697 32.4523 13.7158 31.8717C14.6117 31.6362 15.4952 31.3557 16.363 31.0313V29.3366C16.3688 29.0752 16.4112 28.8159 16.489 28.5662C15.5011 28.9971 14.4858 29.3621 13.4497 29.6587C13.1474 29.0605 12.6646 28.5725 12.0695 28.2639C11.4745 27.9553 10.7975 27.8418 10.1343 27.9394C9.47118 28.037 8.85557 28.3408 8.37469 28.8077C7.89382 29.2747 7.57207 29.8811 7.45502 30.5411H6.82474C4.37437 27.6965 2.95341 24.1096 2.79096 20.3586C4.6732 17.7205 7.05199 15.475 9.79406 13.7477C10.202 14.165 10.7187 14.4597 11.2856 14.5984C11.8526 14.737 12.447 14.714 13.0015 14.532C14.7071 17.2951 16.9163 19.7134 19.5143 21.6612C19.6062 21.5012 19.7141 21.351 19.8365 21.213L21.083 19.9945C18.5543 18.15 16.4168 15.822 14.7943 13.1454C15.1117 12.6421 15.2816 12.0598 15.2845 11.4647V11.1565C20.4186 9.44301 25.9726 9.45777 31.0975 11.1986C30.7207 12.8131 30.1811 14.3851 29.4868 15.8906C29.6294 15.8556 29.7746 15.8322 29.921 15.8206H31.9518C32.4657 14.5932 32.8871 13.3291 33.2124 12.0389C33.8147 12.3051 34.3889 12.6132 34.9772 12.9353C35.8728 14.9816 36.3491 17.1867 36.3778 19.4202L37.7784 18.7059C38.1759 18.4968 38.6179 18.3863 39.067 18.3837H39.179C38.9414 14.5864 37.6041 10.9403 35.3302 7.88976C33.0564 4.83925 29.9441 2.51615 26.3729 1.20365C22.8017 -0.108842 18.9258 -0.354035 15.2177 0.497962C11.5096 1.34996 8.12941 3.26234 5.48925 6.00199C2.84909 8.74164 1.063 12.1902 0.348683 15.9273C-0.365629 19.6644 0.022704 23.5286 1.46634 27.0488C2.90998 30.569 5.34656 33.5932 8.47906 35.7528C11.6116 37.9123 15.3047 39.1138 19.1082 39.2109C18.8948 38.5335 18.9551 37.7995 19.2762 37.166L19.6684 36.4237H19.5704C16.6621 36.4261 13.8037 35.668 11.2787 34.2247V34.2247ZM19.5564 2.79485C21.8073 2.79825 24.0346 3.25376 26.1062 4.13435C28.1777 5.01494 30.0513 6.30267 31.6157 7.92112C31.6157 8.27127 31.6157 8.63543 31.5037 8.98559C25.878 7.13152 19.7977 7.18567 14.206 9.13966C13.7306 8.7329 13.1461 8.47477 12.5253 8.39733C12.1503 7.23971 11.8647 6.05505 11.6709 4.85376C14.0889 3.5266 16.7982 2.81922 19.5564 2.79485V2.79485ZM9.61198 6.10031C9.79311 7.0082 10.0222 7.90585 10.2983 8.7895C9.84009 9.0764 9.46224 9.47491 9.20012 9.94771C8.938 10.4205 8.80019 10.9521 8.79962 11.4927C8.79962 11.4927 8.79962 11.6328 8.79962 11.7028C6.68333 13.0343 4.76044 14.6509 3.08509 16.5069C3.86974 12.3388 6.20123 8.6214 9.61198 6.10031V6.10031Z" fill="#525252"/>
</g>
<defs>
<clipPath id="clip0_3391_14187">
<rect width="44" height="44" fill="white"/>
</clipPath>
</defs>
</svg>
