<svg width="44" height="44" viewBox="0 0 44 44" fill="none" xmlns="http://www.w3.org/2000/svg">
<rect width="44" height="44" fill="white"/>
<path d="M0 5.26413C0 3.46233 1.46233 2 3.26413 2H38.5168C40.3186 2 41.7809 3.46233 41.7809 5.26413V9.18109C41.7809 10.9829 40.3186 12.4452 38.5168 12.4452H3.26413C1.46233 12.4452 0 10.9829 0 9.18109V5.26413ZM2.61131 15.0565H39.1696V19.2346C37.1489 18.2011 34.911 17.664 32.6413 17.6678C29.5678 17.6678 26.7189 18.634 24.3818 20.2791H16.9735C16.6272 20.2791 16.2951 20.4167 16.0503 20.6616C15.8054 20.9064 15.6678 21.2385 15.6678 21.5848C15.6678 21.9311 15.8054 22.2632 16.0503 22.508C16.2951 22.7529 16.6272 22.8904 16.9735 22.8904H21.5616C19.435 25.4609 18.2738 28.6939 18.2791 32.03C18.2791 34.3802 18.8432 36.5998 19.8459 38.5583H10.4452C8.36754 38.5583 6.37495 37.7329 4.90581 36.2638C3.43666 34.7946 2.61131 32.8021 2.61131 30.7244V15.0565ZM26.288 24.0473C26.476 24.7176 26.5281 25.4187 26.4413 26.1095C26.3544 26.8002 26.1303 27.4666 25.7821 28.0695C25.434 28.6724 24.9688 29.1996 24.414 29.6201C23.8591 30.0406 23.2258 30.3459 22.5512 30.5181L21.3474 30.8262C21.2603 31.7089 21.269 32.5985 21.3735 33.4793L22.2875 33.696C22.9798 33.8598 23.6314 34.1632 24.2023 34.5877C24.7731 35.0123 25.2512 35.549 25.6073 36.1649C25.9633 36.7809 26.1897 37.4631 26.2726 38.1696C26.3556 38.8762 26.2933 39.5923 26.0896 40.2739L25.7579 41.3759C26.429 41.9086 27.1602 42.363 27.9384 42.7285L28.787 41.8303C29.2756 41.3129 29.8648 40.9009 30.5183 40.6194C31.1719 40.338 31.876 40.193 32.5876 40.1935C33.2992 40.194 34.0032 40.3399 34.6563 40.6223C35.3095 40.9046 35.8981 41.3175 36.3859 41.8355L37.2659 42.7703C38.0284 42.4178 38.7492 41.9817 39.4124 41.4699L39.0025 40.018C38.814 39.3475 38.7616 38.6461 38.8483 37.9551C38.935 37.264 39.159 36.5973 39.5072 35.9941C39.8554 35.391 40.3207 34.8635 40.8758 34.4428C41.4308 34.0222 42.0644 33.7167 42.7392 33.5446L43.9404 33.2391C44.0278 32.3555 44.019 31.465 43.9143 30.5834L43.0056 30.3692C42.313 30.2055 41.6611 29.902 41.09 29.4773C40.519 29.0526 40.0407 28.5156 39.6847 27.8994C39.3286 27.2831 39.1023 26.6006 39.0195 25.8937C38.9368 25.1869 38.9994 24.4705 39.2035 23.7887L39.5326 22.6894C38.8597 22.1561 38.1281 21.7014 37.3521 21.3341L36.5034 22.2324C36.015 22.7499 35.426 23.1621 34.7726 23.4438C34.1191 23.7255 33.415 23.8707 32.7034 23.8704C31.9919 23.8702 31.2878 23.7245 30.6346 23.4424C29.9813 23.1603 29.3926 22.7476 28.9045 22.2298L28.0245 21.2949C27.2639 21.6465 26.5448 22.0818 25.8807 22.5928L26.288 24.0473V24.0473ZM32.6413 34.6413C31.9488 34.6413 31.2846 34.3662 30.7949 33.8765C30.3051 33.3868 30.03 32.7226 30.03 32.03C30.03 31.3375 30.3051 30.6733 30.7949 30.1835C31.2846 29.6938 31.9488 29.4187 32.6413 29.4187C33.3339 29.4187 33.9981 29.6938 34.4878 30.1835C34.9775 30.6733 35.2526 31.3375 35.2526 32.03C35.2526 32.7226 34.9775 33.3868 34.4878 33.8765C33.9981 34.3662 33.3339 34.6413 32.6413 34.6413Z" fill="#525252"/>
</svg>
