<svg width="44" height="44" viewBox="0 0 44 44" fill="none" xmlns="http://www.w3.org/2000/svg">
<g clip-path="url(#clip0_3391_14187)">
<rect width="44" height="44" fill="white"/>
<path d="M15.3193 9.16667H12.8517L9.16667 23.8333H11.0513L11.902 20.3958H16.148L16.9767 23.8333H18.9237L15.3193 9.16667ZM12.1495 18.9237L14.014 10.9083H14.0965L15.9005 18.9255L12.1495 18.9237ZM20.603 23.8333V9.16667H22.4363V23.8333H20.603ZM20.9458 25.6667H7.33333V7.33333H25.6667V16.0967C27.8366 14.6954 30.4612 14.1797 33 14.6557V11H29.3333V7.33333C29.3304 6.36177 28.9432 5.43082 28.2562 4.74381C27.5692 4.05681 26.6382 3.66957 25.6667 3.66667H22V0H18.3333V3.66667H14.6667V0H11V3.66667H7.33333C6.36177 3.66957 5.43082 4.05681 4.74381 4.74381C4.05681 5.43082 3.66957 6.36177 3.66667 7.33333V11H0V14.6667H3.66667V18.3333H0V22H3.66667V25.6667C3.66957 26.6382 4.05681 27.5692 4.74381 28.2562C5.43082 28.9432 6.36177 29.3304 7.33333 29.3333H11V33H14.6667V29.3333H18.3333V33H22V29.348C21.4187 28.1987 21.0609 26.9495 20.9458 25.6667ZM24.75 24.75C24.75 23.4809 25.1263 22.2403 25.8314 21.1851C26.5365 20.1299 27.5386 19.3074 28.7111 18.8218C29.8836 18.3361 31.1738 18.209 32.4185 18.4566C33.6632 18.7042 34.8066 19.3153 35.7039 20.2127C36.6013 21.1101 37.2125 22.2535 37.46 23.4982C37.7076 24.7429 37.5806 26.0331 37.0949 27.2056C36.6092 28.378 35.7868 29.3802 34.7316 30.0853C33.6764 30.7903 32.4358 31.1667 31.1667 31.1667C30.324 31.1669 29.4894 31.0011 28.7108 30.6787C27.9322 30.3563 27.2248 29.8837 26.6289 29.2878C26.033 28.6919 25.5603 27.9845 25.238 27.2058C24.9156 26.4272 24.7498 25.5927 24.75 24.75V24.75ZM31.1667 34.8333C26.884 34.8333 18.3333 36.9838 18.3333 41.25V44H44V41.25C44 36.982 35.4493 34.8333 31.1667 34.8333Z" fill="#525252"/>
</g>
<defs>
<clipPath id="clip0_3391_14187">
<rect width="44" height="44" fill="white"/>
</clipPath>
</defs>
</svg>
